<svg width="32" height="32" viewBox="0 0 32 32" fill="none" xmlns="http://www.w3.org/2000/svg">
<path d="M15.9935 2.66602C8.62949 2.66602 2.66016 8.63535 2.66016 15.9993C2.66016 23.3633 8.62949 29.3327 15.9935 29.3327C23.3575 29.3327 29.3268 23.3633 29.3268 15.9993C29.3268 8.63535 23.3575 2.66602 15.9935 2.66602ZM16.6602 22.666H15.3268C14.9588 22.666 14.6602 22.3673 14.6602 21.9993V20.666C14.6602 20.298 14.9588 19.9993 15.3268 19.9993H16.6602C17.0282 19.9993 17.3268 20.298 17.3268 20.666V21.9993C17.3268 22.3673 17.0282 22.666 16.6602 22.666ZM15.9935 17.3327C15.2575 17.3327 14.6602 16.7353 14.6602 15.9993V10.666C14.6602 9.93002 15.2575 9.33268 15.9935 9.33268C16.7295 9.33268 17.3268 9.93002 17.3268 10.666V15.9993C17.3268 16.7353 16.7295 17.3327 15.9935 17.3327Z" fill="black"/>
</svg>
