<svg width="128" height="128" viewBox="0 0 128 128" fill="none" xmlns="http://www.w3.org/2000/svg">
<path opacity="0.3" d="M122.604 59.792C122.756 59.12 122.888 58.52 123.016 58.056L123.048 57.94L123.076 57.82C125.416 48.272 123.232 37.22 117.38 28.984C113.396 23.376 107.976 19.492 101.832 17.772C95.9996 12 94.9076 9.72 90.0836 6.924L89.9076 6.82L89.7236 6.728C86.2356 4.944 82.2636 4 78.2317 4C73.7997 4 69.4597 5.12 65.7037 7.168C65.4717 7.076 65.2397 6.988 65.0077 6.9C61.9397 5.6 58.6757 4.94 55.3117 4.94C45.2117 4.94 35.3277 10.988 30.2797 19.816C24.3637 21.524 19.4317 25.3 15.8397 30.908C9.05965 41.496 8.81165 55.504 11.5077 65.372C8.34765 70.712 7.27565 76.76 8.48365 82.8L8.52765 83.012L8.58365 83.22C9.89165 88.244 12.9437 92.64 17.0237 95.62C17.1157 100.876 18.9237 106.036 22.2477 110.16C25.9876 114.796 31.3237 117.616 37.0716 118.036C38.7276 119.952 40.6557 121.564 42.8317 122.86C46.2597 124.896 50.0757 125.976 53.8717 125.976C57.1917 125.976 60.4157 125.176 63.3237 123.688C67.0077 126.324 71.3196 127.736 75.8676 127.736C82.1516 127.736 88.4397 124.952 93.0637 120.28C98.8637 119.684 104.152 116.948 108.144 112.424C111.896 108.168 114.112 102.648 114.468 96.972C118.6 93.9 121.716 89.508 123.176 84.52L123.244 84.28L123.3 84.036C124.676 77.848 123.812 71.656 120.868 66.164C121.668 63.928 122.18 61.668 122.604 59.792Z" fill="black"/>
<path d="M118.604 55.792C118.756 55.12 118.888 54.52 119.016 54.056L119.048 53.94L119.076 53.82C121.416 44.272 119.232 33.22 113.38 24.984C109.396 19.376 103.976 15.492 97.8316 13.772C94.8437 9.36 90.9077 5.724 86.0797 2.928L85.9036 2.824L85.7197 2.732C82.2356 0.944 78.2636 0 74.2317 0C69.7997 0 65.4597 1.12 61.7037 3.168C61.4717 3.076 61.2397 2.988 61.0077 2.9C57.9397 1.6 54.6757 0.94 51.3117 0.94C41.2117 0.94 31.3277 6.988 26.2797 15.816C20.3637 17.524 15.4317 21.3 11.8397 26.908C5.05965 37.496 4.81165 51.504 7.50765 61.372C4.34765 66.712 3.27565 72.76 4.48365 78.8L4.52765 79.012L4.58365 79.22C5.89165 84.244 8.94365 88.64 13.0237 91.62C13.1157 96.876 14.9237 102.036 18.2477 106.16C21.9877 110.796 27.3237 113.616 33.0716 114.036C34.7276 115.952 36.6557 117.564 38.8317 118.86C42.2597 120.896 46.0757 121.976 49.8717 121.976C53.1917 121.976 56.4157 121.176 59.3237 119.688C63.0077 122.324 67.3196 123.736 71.8676 123.736C78.1516 123.736 84.4397 120.952 89.0637 116.28C94.8637 115.684 100.152 112.948 104.144 108.424C107.896 104.168 110.112 98.648 110.468 92.972C114.6 89.9 117.716 85.508 119.176 80.52L119.244 80.28L119.3 80.036C120.676 73.848 119.812 67.656 116.868 62.164C117.668 59.928 118.18 57.668 118.604 55.792Z" fill="white"/>
<path d="M36.5411 35.46C42.2771 35.884 47.3371 33.052 47.3931 27.068C47.4371 25.292 48.9611 23.86 50.7531 24.08C52.2811 24.256 53.4051 25.568 53.4051 27.068C53.6211 31.36 52.1371 36.208 48.6251 39.112C44.8891 42.332 33.3091 46.812 32.3571 39.716C32.1931 37.352 34.1811 35.34 36.5411 35.46Z" fill="black"/>
<path d="M75.2095 77.9922C80.9455 78.4162 86.0055 75.5842 86.0615 69.6002C86.1055 67.8242 87.6295 66.3922 89.4215 66.6122C90.9495 66.7882 92.0735 68.1002 92.0735 69.6002C92.2895 73.8922 90.8055 78.7402 87.2935 81.6442C83.5575 84.8642 71.9775 89.3442 71.0295 82.2482C70.8615 79.8882 72.8455 77.8722 75.2095 77.9922Z" fill="black"/>
<path d="M82.1442 34.8281C83.1842 40.4841 87.1962 44.6681 93.0042 43.2121C94.7362 42.8081 96.5043 43.9201 96.7443 45.7081C96.9603 47.2281 95.9722 48.6481 94.5202 49.0281C90.4202 50.3201 85.3563 50.1041 81.6603 47.4401C77.6043 44.6361 70.3443 34.5601 76.9723 31.8521C79.2123 31.1001 81.6642 32.5121 82.1442 34.8281Z" fill="black"/>
<path d="M41.8164 86.612C42.2404 80.876 39.4084 75.816 33.4244 75.76C31.6484 75.716 30.2164 74.192 30.4364 72.4C30.6124 70.872 31.9244 69.748 33.4244 69.748C37.7164 69.532 42.5644 71.016 45.4684 74.528C48.6884 78.264 53.1684 89.844 46.0724 90.792C43.7124 90.956 41.6964 88.972 41.8164 86.612Z" fill="black"/>
<path d="M110.924 51.3401C113.956 38.6441 107.004 21.6521 92.6245 19.7481C90.2325 15.1961 86.7485 11.4441 82.1284 8.70805C75.6164 5.30405 67.4125 6.77605 62.5205 11.5521C61.3004 10.6201 60.0005 9.81205 58.6204 9.24805C48.2284 4.57605 36.2284 12.0521 32.7324 21.7881C15.7884 23.6241 12.2685 47.5281 17.2245 61.1441C17.3125 61.3801 17.4524 61.5841 17.6044 61.7681C14.2764 65.8041 12.4964 71.0121 13.6004 76.6721C14.7604 81.2401 18.1205 85.1721 22.5164 86.7161C20.1804 96.6961 27.4645 107.504 37.9485 105.608C39.2805 108.008 41.1564 110.172 43.6844 111.708C49.9725 115.536 56.6525 113.536 60.5325 108.748C65.8405 117.936 78.8925 117.612 85.3165 108.156C95.9884 108.996 103.64 98.6441 102.152 88.1241C106.448 86.2401 109.756 82.4041 111.08 77.7601C112.396 71.7081 110.736 66.2601 107.436 62.0001C109.452 59.1601 110.248 53.7921 110.924 51.3401ZM43.0125 100.308C42.2525 98.4161 40.0125 97.6481 38.2125 98.5641C35.6685 99.9361 31.6485 98.2921 30.2125 95.8241C28.4365 93.0721 28.5524 88.84 30.2444 85.5321C31.4524 83.3081 29.6005 80.3881 27.0444 80.5921C24.1524 81.2321 20.4444 78.6521 19.4044 75.1441C16.4444 62.3801 35.4965 52.2121 44.9565 61.5681C45.6365 62.2121 46.7164 62.2121 47.3965 61.5481C48.0924 60.8681 48.1085 59.7521 47.4285 59.0561C43.6285 55.1601 38.0684 53.2601 32.6484 53.7401C28.4804 54.1321 24.4084 55.812 21.0764 58.3921C18.4604 47.784 21.5365 27.6841 34.7924 28.4161C36.5005 28.8161 38.0644 27.6521 38.6284 26.0241C40.8004 21.2881 44.6445 17.2721 49.0325 16.1881C53.3165 14.9361 58.7285 17.1361 60.0205 20.5961C62.2924 31.5841 60.5885 44.4441 60.2724 55.8241C59.4165 69.6041 58.2405 83.4521 56.7765 97.1921C56.7765 108.344 47.1005 110.004 43.0125 100.308ZM102.464 75.1761C101.524 77.8921 98.1205 79.8361 96.3165 79.1881C92.3325 78.3601 88.9044 82.9441 91.0245 86.5121C91.8084 87.9241 92.1124 89.6281 92.0805 91.1561C92.1205 95.3241 87.4245 98.5441 84.0965 95.9121C81.5245 94.7281 78.4804 95.8521 77.2964 98.4241C76.6404 100.04 75.5444 101.84 74.2924 102.756C73.2884 103.636 72.3085 103.588 71.2205 104.072C70.0525 104.756 68.9885 104.72 67.8565 104.124C66.6445 103.492 65.3965 101.792 64.7485 99.9601C64.5725 99.48 64.3044 99.104 63.9964 98.7921C65.7004 84.6761 66.9245 70.4921 67.9245 56.3081C68.5245 47.0401 69.0404 37.5081 68.8084 28.2041C68.7124 25.1041 68.8244 21.6321 67.3524 17.6801C67.2324 17.3881 67.0485 17.1561 66.9165 16.8801C73.5525 14.3481 80.9804 18.5321 83.3804 25.0841C84.6724 28.2081 87.8204 30.2921 91.1205 30.5961C98.4525 32.0121 99.8245 43.916 101.524 50.9201C101.748 52.8281 101.724 54.7721 101.564 56.7161C93.4604 51.5361 82.2284 50.9121 74.8684 58.1921C72.4684 60.5161 75.8844 64.2961 78.4364 62.0921C84.9165 56.6801 95.2404 58.9801 100.1 65.4001C102.552 68.4641 103.516 72.5121 102.464 75.1761Z" fill="black"/>
</svg>
