<svg width="24" height="24" viewBox="0 0 24 24" fill="none" xmlns="http://www.w3.org/2000/svg">
<path d="M9 2C8.448 2 8 2.448 8 3H5C4.448 3 4 3.448 4 4C4 4.552 4.448 5 5 5V19C5 20.105 5.895 21 7 21H17C18.105 21 19 20.105 19 19V5C19.552 5 20 4.552 20 4C20 3.448 19.552 3 19 3H16C16 2.448 15.552 2 15 2H9ZM7.5 5H8.5C8.776 5 9 5.224 9 5.5V6.5C9 6.776 8.776 7 8.5 7H7.5C7.224 7 7 6.776 7 6.5V5.5C7 5.224 7.224 5 7.5 5ZM11.5 5H12.5C12.776 5 13 5.224 13 5.5V6.5C13 6.776 12.776 7 12.5 7H11.5C11.224 7 11 6.776 11 6.5V5.5C11 5.224 11.224 5 11.5 5ZM15.5 5H16.5C16.776 5 17 5.224 17 5.5V6.5C17 6.776 16.776 7 16.5 7H15.5C15.224 7 15 6.776 15 6.5V5.5C15 5.224 15.224 5 15.5 5ZM7.5 9H8.5C8.776 9 9 9.224 9 9.5V10.5C9 10.776 8.776 11 8.5 11H7.5C7.224 11 7 10.776 7 10.5V9.5C7 9.224 7.224 9 7.5 9ZM11.5 9H12.5C12.776 9 13 9.224 13 9.5V10.5C13 10.776 12.776 11 12.5 11H11.5C11.224 11 11 10.776 11 10.5V9.5C11 9.224 11.224 9 11.5 9ZM15.5 9H16.5C16.776 9 17 9.224 17 9.5V10.5C17 10.776 16.776 11 16.5 11H15.5C15.224 11 15 10.776 15 10.5V9.5C15 9.224 15.224 9 15.5 9ZM7.5 13H8.5C8.776 13 9 13.224 9 13.5V14.5C9 14.776 8.776 15 8.5 15H7.5C7.224 15 7 14.776 7 14.5V13.5C7 13.224 7.224 13 7.5 13ZM11.5 13H12.5C12.776 13 13 13.224 13 13.5V14.5C13 14.776 12.776 15 12.5 15H11.5C11.224 15 11 14.776 11 14.5V13.5C11 13.224 11.224 13 11.5 13ZM15.5 13H16.5C16.776 13 17 13.224 17 13.5V14.5C17 14.776 16.776 15 16.5 15H15.5C15.224 15 15 14.776 15 14.5V13.5C15 13.224 15.224 13 15.5 13ZM7.5 17H8.5C8.776 17 9 17.224 9 17.5V18.5C9 18.776 8.776 19 8.5 19H7.5C7.224 19 7 18.776 7 18.5V17.5C7 17.224 7.224 17 7.5 17ZM11.5 17H12.5C12.776 17 13 17.224 13 17.5V18.5C13 18.776 12.776 19 12.5 19H11.5C11.224 19 11 18.776 11 18.5V17.5C11 17.224 11.224 17 11.5 17ZM15.5 17H16.5C16.776 17 17 17.224 17 17.5V18.5C17 18.776 16.776 19 16.5 19H15.5C15.224 19 15 18.776 15 18.5V17.5C15 17.224 15.224 17 15.5 17Z" fill="black"/>
</svg>
