<svg width="24" height="24" viewBox="0 0 24 24" fill="none" xmlns="http://www.w3.org/2000/svg">
<path d="M7 1C6.448 1 6 1.448 6 2V3H5C3.9 3 3 3.9 3 5V19C3 20.1 3.9 21 5 21H8.09375C8.59375 21 9 20.5938 9 20.0938V19.9062C9 19.4062 8.59375 19 8.09375 19H6C5.448 19 5 18.552 5 18V8H19V18C19 18.552 18.552 19 18 19H15.9062C15.4062 19 15 19.4062 15 19.9062V20.0938C15 20.5938 15.4062 21 15.9062 21H19C20.1 21 21 20.1 21 19V5C21 3.9 20.1 3 19 3H18V2C18 1.448 17.552 1 17 1C16.448 1 16 1.448 16 2V3H8V2C8 1.448 7.552 1 7 1ZM11.9844 9.98633C11.7195 9.99047 11.4671 10.0995 11.2825 10.2896C11.098 10.4796 10.9964 10.7351 11 11V16C10.9981 16.1325 11.0226 16.2641 11.072 16.387C11.1214 16.51 11.1948 16.6219 11.2878 16.7163C11.3809 16.8107 11.4918 16.8856 11.614 16.9368C11.7363 16.9879 11.8675 17.0142 12 17.0142C12.1325 17.0142 12.2637 16.9879 12.386 16.9368C12.5082 16.8856 12.6191 16.8107 12.7122 16.7163C12.8052 16.6219 12.8786 16.51 12.928 16.387C12.9774 16.2641 13.0019 16.1325 13 16V11C13.0018 10.8662 12.9768 10.7334 12.9264 10.6095C12.876 10.4855 12.8012 10.373 12.7065 10.2784C12.6118 10.1839 12.4991 10.1094 12.375 10.0592C12.251 10.009 12.1182 9.98424 11.9844 9.98633ZM12 19C11.8675 18.9981 11.7359 19.0226 11.613 19.072C11.49 19.1214 11.3781 19.1948 11.2837 19.2878C11.1893 19.3809 11.1144 19.4918 11.0632 19.614C11.0121 19.7363 10.9858 19.8675 10.9858 20C10.9858 20.1325 11.0121 20.2637 11.0632 20.386C11.1144 20.5082 11.1893 20.6191 11.2837 20.7122C11.3781 20.8052 11.49 20.8786 11.613 20.928C11.7359 20.9774 11.8675 21.0019 12 21C12.1325 21.0019 12.2641 20.9774 12.387 20.928C12.51 20.8786 12.6219 20.8052 12.7163 20.7122C12.8107 20.6191 12.8856 20.5082 12.9368 20.386C12.9879 20.2637 13.0142 20.1325 13.0142 20C13.0142 19.8675 12.9879 19.7363 12.9368 19.614C12.8856 19.4918 12.8107 19.3809 12.7163 19.2878C12.6219 19.1948 12.51 19.1214 12.387 19.072C12.2641 19.0226 12.1325 18.9981 12 19Z" fill="black"/>
</svg>
