<svg width="24" height="24" viewBox="0 0 24 24" fill="none" xmlns="http://www.w3.org/2000/svg">
<path d="M7 1C6.448 1 6 1.448 6 2V3H5C3.9 3 3 3.9 3 5V19C3 20.1 3.9 21 5 21H19C20.1 21 21 20.1 21 19V5C21 3.9 20.1 3 19 3H18V2C18 1.448 17.552 1 17 1C16.448 1 16 1.448 16 2V3H8V2C8 1.448 7.552 1 7 1ZM5 8H19V19H5V8ZM11.9922 10C10.8662 10.003 9.88405 10.6298 9.37305 11.5508C9.01205 12.2008 9.52748 13 10.2715 13H10.2734C10.6154 13 10.9552 12.8382 11.1152 12.5352C11.2822 12.2172 11.616 12 12 12C12.552 12 13 12.448 13 13C13 13.629 11.3084 14.7997 10.3984 15.4297C10.1814 15.5797 9.71681 15.9402 9.38281 16.2012C9.14081 16.3902 9 16.6813 9 16.9883V17C9 17.552 9.448 18 10 18H14C14.552 18 15 17.551 15 16.998C15 16.446 14.552 15.998 14 15.998H13.0215C14.4655 14.856 15.5605 13.5191 14.6895 11.7891C14.1705 10.7591 13.1452 9.997 11.9922 10Z" fill="black"/>
</svg>
