<svg width="25" height="25" viewBox="0 0 25 25" fill="none" xmlns="http://www.w3.org/2000/svg">
  <path
    d="M7.11328 1.97095C6.56128 1.97095 6.11328 2.41895 6.11328 2.97095V3.97095H5.11328C4.01328 3.97095 3.11328 4.87095 3.11328 5.97095V19.9709C3.11328 21.0709 4.01328 21.9709 5.11328 21.9709H19.1133C20.2133 21.9709 21.1133 21.0709 21.1133 19.9709V5.97095C21.1133 4.87095 20.2133 3.97095 19.1133 3.97095H18.1133V2.97095C18.1133 2.41895 17.6653 1.97095 17.1133 1.97095C16.5613 1.97095 16.1133 2.41895 16.1133 2.97095V3.97095H8.11328V2.97095C8.11328 2.41895 7.66528 1.97095 7.11328 1.97095ZM5.11328 8.97095H19.1133V18.9709C19.1133 19.5229 18.6653 19.9709 18.1133 19.9709H6.11328C5.56128 19.9709 5.11328 19.5229 5.11328 18.9709V8.97095Z"
    fill="black" />
</svg>