<svg width="389" height="517" viewBox="0 0 389 517" fill="none" xmlns="http://www.w3.org/2000/svg">
<path opacity="0.5" d="M277.27 5.49051C274.921 5.29302 86.1359 -3.47547 83.86 3.07682C81.7073 2.92992 79.5607 3.0338 77.4243 3.16024C57.2805 4.37429 37.1667 6.64612 17.083 9.95198C12.274 10.733 7.09025 12.5187 3.88619 32.5954C0.992017 50.7537 0.379261 79.9489 0.164487 107.707C-0.584298 204.366 1.99889 305.491 7.68097 402.207C8.82261 421.594 10.1666 441.607 12.5602 456.515C16.5602 481.417 22.2946 485.551 27.4332 487.827C52.432 498.88 77.3698 505.924 102.214 508.947C122.643 524.302 302.841 512.784 311.585 512.267C331.729 511.053 351.842 508.781 371.925 505.475C376.734 504.694 381.918 502.908 385.122 482.831C388.016 464.672 388.629 435.477 388.844 407.719C389.593 311.06 387.01 209.936 381.328 113.22C380.187 93.8333 378.843 73.8196 376.449 58.9121C372.449 34.0098 369.413 17.2344 364.275 14.9588C336.081 2.49223 305.266 7.76307 277.273 5.51397L277.27 5.49051Z" fill="#C7EAF3"/>
</svg>
