<svg width="25" height="25" viewBox="0 0 25 25" fill="none" xmlns="http://www.w3.org/2000/svg">
  <path
    d="M4.11328 4.97095C3.00828 4.97095 2.11328 5.86595 2.11328 6.97095C2.11328 7.52295 2.56128 7.97095 3.11328 7.97095H21.1133C21.6653 7.97095 22.1133 7.52295 22.1133 6.97095C22.1133 5.86595 21.2183 4.97095 20.1133 4.97095H4.11328ZM3.11328 10.9709C2.56128 10.9709 2.11328 11.4189 2.11328 11.9709V18.9709C2.11328 20.0759 3.00828 20.9709 4.11328 20.9709H20.1133C21.2183 20.9709 22.1133 20.0759 22.1133 18.9709V11.9709C22.1133 11.4189 21.6653 10.9709 21.1133 10.9709H3.11328ZM7.10938 13.9709H8.10938V14.9709H7.10938C6.55837 14.9709 6.10938 15.4199 6.10938 15.9709V16.9709C6.10938 17.5219 6.55837 17.9709 7.10938 17.9709H8.10938V18.9709H7.10938C6.00437 18.9709 5.10938 18.0759 5.10938 16.9709V15.9709C5.10938 14.8659 6.00437 13.9709 7.10938 13.9709ZM9.61328 13.9709H10.6816L11.6133 17.1506L12.5449 13.9709H13.6133L12.1465 18.9709H11.0801L9.61328 13.9709ZM14.6133 13.9709H15.6816L16.6133 17.1506L17.5449 13.9709H18.6133L17.1465 18.9709H16.0801L14.6133 13.9709Z"
    fill="black" />
</svg>