<svg width="264" height="252" viewBox="0 0 264 252" fill="none" xmlns="http://www.w3.org/2000/svg">
<g opacity="0.2">
<path d="M100.793 192.94C99.2927 166.473 69.5099 148.707 46.8289 160.803C37.5972 164.798 32.5064 174.447 29.6252 183.811C25.5567 197.981 30.7701 214.6 42.248 224.008C67.3499 245.328 103.841 225.559 100.793 192.94ZM111.195 192.141C116.228 234.094 67.6121 259.216 36.2108 231.506C17.3788 215.644 13.1481 183.179 30.2656 165.724C34.5538 161.779 38.629 157.685 43.7835 154.987C71.2267 139.532 107.448 159.464 111.195 192.141Z" fill="#1A8DC6"/>
<path d="M188.024 210.543C186.505 196.023 173.046 183.825 157.095 190.029C151.225 192.553 147.985 198.643 146.149 204.552C143.556 213.493 146.861 223.977 154.152 229.908C170.096 243.35 189.34 223.108 188.024 210.543ZM193.398 208.968C196.577 235.436 165.664 251.303 145.719 233.832C133.757 223.831 131.084 203.35 141.973 192.331C144.7 189.841 147.292 187.256 150.57 185.552C168.02 175.791 191.033 188.354 193.398 208.968Z" fill="#1A8DC6"/>
<path d="M140.987 42.7229C103.203 54.1628 90.7736 105.489 118.545 135.702C128.499 148.321 144.808 152.702 159.711 153.829C182.129 155.093 203.936 141.43 212.448 120.763C232.144 75.3066 187.016 26.8039 140.987 42.7229ZM135.15 27.2216C193.85 5.05871 252.208 70.0993 226.057 127.324C211.472 161.381 166.198 179.04 133.14 159.121C125.481 153.983 117.699 149.219 111.463 142.335C76.6698 106.062 89.3519 44.2201 135.15 27.2216Z" fill="#1A8DC6"/>
</g>
</svg>
