<svg preserveAspectRatio="none"  viewBox="0 0 387 370" fill="none" xmlns="http://www.w3.org/2000/svg">
<path fill-rule="evenodd" clip-rule="evenodd" d="M20.0546 27.5895C47.8842 17.8251 75.7798 11.6744 103.697 9.15658L103.7 9.1394C106.041 8.92196 294.455 -3.52165 296.956 1.04179C299.103 0.866807 301.251 0.871208 303.389 0.890263C323.558 1.08548 343.727 2.03133 363.895 3.71075C368.724 4.10542 373.955 5.1997 377.725 19.3204C381.13 32.0916 382.567 52.7585 383.565 72.4203C387.042 140.887 387.314 212.628 384.365 281.347C383.771 295.122 382.992 309.348 381.021 319.99C377.725 337.768 372.11 340.886 367.038 342.668C342.362 351.326 317.634 357.143 292.885 360.105C273.49 371.308 103.258 369.567 84.9653 369.38C84.3929 369.374 83.9693 369.37 83.7037 369.367C63.5346 369.172 43.366 368.226 23.198 366.547C18.369 366.152 13.1373 365.058 9.3679 350.937C5.96248 338.166 4.52586 317.499 3.52767 297.837C0.0509184 229.37 -0.221604 157.63 2.72803 88.9107C3.32197 75.1359 4.10033 60.9099 6.0721 50.2675C9.36741 32.49 14.9825 29.3716 20.0546 27.5895Z" fill="black"/>
</svg>
