<svg width="128" height="128" viewBox="0 0 128 128" fill="none" xmlns="http://www.w3.org/2000/svg">
<g clip-path="url(#clip0_620_60553)">
<path opacity="0.3" d="M16.2619 71.3758C17.1379 75.4358 20.1059 78.6678 24.0459 79.8798L42.9859 86.4158L36.2299 93.4878L28.7179 101.352C27.5859 102.54 26.5939 103.572 25.7859 104.536L25.7339 104.484C22.4499 107.704 21.4979 112.572 23.3139 116.88C25.1379 121.208 29.3219 124.008 33.9739 124.008C34.1979 124.008 34.4219 124 34.6499 123.988L57.9419 123.036C61.0739 122.9 63.9459 121.588 66.0499 119.348L83.3379 100.932L95.2259 88.2678L99.1419 84.0958C99.5699 83.6398 100.034 83.1478 100.478 82.6158L100.506 82.6438C103.326 79.7758 104.386 75.5638 103.274 71.6478C102.178 67.7838 99.1099 64.7478 95.2499 63.6958L89.8859 62.1518C94.4739 59.0238 96.4819 52.8118 97.7139 48.9878C97.9819 48.1598 98.2859 47.2198 98.4579 46.8158L98.5739 46.5438L98.6699 46.2638L102.162 35.9398C104.194 29.8878 106.438 22.7118 107.722 15.2398L107.738 15.1438L107.754 15.0478L107.79 14.8158C108.002 13.4358 108.402 10.8678 106.93 7.43581L106.822 7.18781L106.698 6.94781C105.362 4.35181 102.046 -0.000191256 94.8619 -0.000191884C93.0579 -0.000192041 91.4099 0.275809 90.0899 0.49581C89.6219 0.575812 89.1739 0.651808 88.7499 0.699805L88.5339 0.723807L88.3179 0.75981C78.0899 2.45581 68.9419 4.29581 60.3419 6.38381L60.0939 6.44381L59.8499 6.5198C58.8699 6.8238 57.8219 7.06781 56.7539 7.3238C53.2859 8.1518 48.9739 9.1838 45.0539 11.9278L44.2299 12.5078L43.5819 13.2758C41.2499 16.0358 40.3219 19.3478 40.9659 22.6038C42.1499 28.5918 48.0459 31.7078 50.5619 33.0358C50.8219 33.1758 51.0819 33.3118 51.3379 33.4478L19.9499 60.4478C16.8339 62.9878 15.3659 67.2238 16.2619 71.3758Z" fill="black"/>
<path d="M20.2619 75.3758C21.1379 79.4358 24.1059 82.6678 28.0459 83.8798L46.9859 90.4158L40.2299 97.4878L32.7179 105.352C31.5859 106.54 30.5939 107.572 29.7859 108.536L29.7339 108.484C26.4499 111.704 25.4979 116.572 27.3139 120.88C29.1379 125.208 33.3219 128.008 37.9739 128.008C38.1979 128.008 38.4219 128 38.6499 127.988L61.9419 127.036C65.0739 126.9 67.9459 125.588 70.0499 123.348L87.3379 104.932L99.2259 92.2678L103.142 88.0958C103.57 87.6398 104.034 87.1478 104.478 86.6158L104.506 86.6438C107.326 83.7758 108.386 79.5638 107.274 75.6478C106.178 71.7838 103.11 68.7478 99.2499 67.6958L93.8859 66.1518C98.4739 63.0238 100.482 56.8118 101.714 52.9878C101.982 52.1598 102.286 51.2198 102.458 50.8158L102.574 50.5438L102.67 50.2638L106.162 39.9398C108.194 33.8878 110.438 26.7118 111.722 19.2398L111.738 19.1438L111.754 19.0478L111.79 18.8158C112.002 17.4358 112.402 14.8678 110.93 11.4358L110.822 11.1878L110.698 10.9478C109.362 8.35181 106.046 3.99981 98.8619 3.99981C97.0579 3.99981 95.4099 4.27581 94.0899 4.49581C93.6219 4.57581 93.1739 4.65181 92.7499 4.6998L92.5339 4.72381L92.3179 4.75981C82.0899 6.45581 72.9419 8.29581 64.3419 10.3838L64.0939 10.4438L63.8499 10.5198C62.8699 10.8238 61.8219 11.0678 60.7539 11.3238C57.2859 12.1518 52.9739 13.1838 49.0539 15.9278L48.2299 16.5078L47.5819 17.2758C45.2499 20.0358 44.3219 23.3478 44.9659 26.6038C46.1499 32.5918 52.0459 35.7078 54.5619 37.0358C54.8219 37.1758 55.0819 37.3118 55.3379 37.4478L23.9499 64.4478C20.8339 66.9878 19.3659 71.2238 20.2619 75.3758Z" fill="white"/>
<path d="M32.585 76.6759L62.237 87.0959L37.209 113.764C36.505 114.52 36.081 115.556 36.129 116.668C36.221 118.876 38.085 120.592 40.293 120.5L63.293 119.54C64.309 119.496 65.321 119.064 66.069 118.256L100.089 81.3599C100.489 80.9239 100.809 80.3799 100.989 79.7719C101.609 77.6519 100.393 75.4279 98.273 74.8079L65.077 65.0919L80.109 48.3439C81.629 51.7839 83.253 55.1759 85.093 58.4559C86.413 60.9239 90.085 61.2119 91.749 58.9399C94.337 55.6199 95.209 51.4399 96.553 47.7719L99.989 37.4319C102.005 31.3119 103.921 24.9239 105.061 18.5119C106.361 13.9159 103.177 10.6879 99.049 11.3439C92.289 12.1919 85.173 13.6359 78.517 15.0079C71.029 16.9959 62.053 17.7919 55.249 21.8679C52.025 25.7439 57.029 28.7479 59.897 30.2479C63.565 32.2359 67.025 33.8879 70.961 35.2319L31.165 69.9759C28.861 71.8879 29.701 75.8559 32.585 76.6759ZM74.773 31.1719C72.117 29.8359 69.237 28.0959 66.549 26.1679C76.297 23.3719 86.629 21.4279 96.621 19.8279C95.533 24.9359 94.033 29.9199 92.385 34.9399C91.265 37.8359 89.845 42.9239 88.345 47.2879C87.161 44.7559 86.069 42.1799 85.081 39.5679C84.113 36.8239 80.265 36.0759 78.361 38.3119L54.877 64.4759C54.497 64.9039 54.185 65.4359 54.013 66.0239C53.393 68.1439 54.609 70.3679 56.729 70.9879L89.833 80.6759L61.305 111.616L49.745 112.096L72.273 88.0919C72.405 87.9519 72.469 87.7439 72.585 87.5799L77.049 88.0079C79.325 88.2959 80.125 84.8239 77.917 84.1039L63.461 78.9639C63.269 78.9039 63.093 78.8839 62.909 78.8479C56.357 76.5479 47.157 73.3199 41.181 71.2199C52.745 59.5319 82.449 29.5199 82.449 29.5199C83.905 28.0959 81.733 25.7879 80.221 27.1479L75.229 31.5039C75.081 31.3919 74.961 31.2599 74.773 31.1719Z" fill="black"/>
</g>
<defs>
<clipPath id="clip0_620_60553">
<rect width="128" height="128" fill="white" transform="translate(128 128) rotate(-180)"/>
</clipPath>
</defs>
</svg>
