<svg width="128" height="128" viewBox="0 0 128 128" fill="none" xmlns="http://www.w3.org/2000/svg">
<g clip-path="url(#clip0_620_60573)">
<path opacity="0.3" d="M127.86 69.604L127.108 68.148C113.944 42.636 93.356 28 70.62 28C69.092 28 67.536 28.068 65.992 28.196C49.352 28.48 32.196 36.784 17.648 51.604C13.368 55.788 8.80798 60.536 5.50398 67.256C3.17198 71.824 3.91998 77.56 7.33198 81.368C14.632 90.208 23.512 97.688 33.016 103.016C42.876 108.864 54.468 112 66.392 112C89.836 112 111.684 100.464 124.828 81.14C125.776 79.752 128.296 76.052 127.972 71.26L127.86 69.604Z" fill="black"/>
<path d="M123.86 65.604L123.108 64.148C109.944 38.636 89.356 24 66.62 24C65.092 24 63.536 24.068 61.992 24.196C45.352 24.48 28.196 32.784 13.648 47.604C9.36798 51.788 4.80798 56.536 1.50398 63.256C-0.828024 67.824 -0.0800242 73.56 3.33198 77.368C10.632 86.208 19.512 93.688 29.016 99.016C38.876 104.864 50.468 108 62.392 108C85.836 108 107.684 96.464 120.828 77.14C121.776 75.752 124.296 72.052 123.972 67.26L123.86 65.604Z" fill="white"/>
<path d="M78.9349 32.568C62.5749 29.056 44.4469 31.888 30.7429 41.724C21.5389 48.648 13.2669 54.888 7.3949 65.376C6.4269 67.14 6.7789 69.42 8.2389 70.916C14.6869 78.572 22.7909 85.452 31.9709 90.456C40.1949 95.236 49.3149 97.74 58.5469 98.284C60.6029 98.504 62.6549 98.552 64.6909 98.36C84.4629 97.636 103.947 87.96 115.447 71.32C116.367 70.016 117.431 68.24 117.287 66.404C108.767 51.164 96.6709 37.012 78.9349 32.568ZM63.3109 86.368C61.4709 86.36 59.6349 86.252 57.7949 86.064C48.8709 84.416 40.9109 77.444 39.9989 64.916C39.9829 33.452 84.2509 33.152 84.1869 64.916C83.2509 78.592 73.4509 85.776 63.3109 86.368ZM17.9469 66.76C21.8429 61.224 27.8109 56.104 33.3549 51.892C29.6829 59.888 29.3029 69.352 32.3589 77.652C27.2949 74.724 22.4669 71.06 17.9469 66.76ZM91.3429 78.916C93.1149 74.736 94.1109 70.052 93.9469 64.916C93.9029 58.16 91.7309 52.172 88.2109 47.272C95.4509 52.204 101.383 59.432 106.727 66.228C101.971 71.512 96.8029 75.748 91.3429 78.916Z" fill="black"/>
<path d="M69.2886 63.0682C65.3166 63.0682 62.0966 59.7642 62.0966 55.6842C62.0966 54.3722 62.4566 53.1602 63.0406 52.0922C62.7246 52.0642 62.4206 51.9922 62.0966 51.9922C56.1366 51.9922 51.3086 56.9522 51.3086 63.0682C51.3086 69.1842 56.1406 74.1402 62.0966 74.1402C68.0566 74.1402 72.8846 69.1802 72.8846 63.0682C72.8846 62.7362 72.8166 62.4242 72.7886 62.0962C71.7486 62.6962 70.5646 63.0682 69.2886 63.0682Z" fill="black"/>
</g>
<defs>
<clipPath id="clip0_620_60573">
<rect width="128" height="128" fill="white"/>
</clipPath>
</defs>
</svg>
