<svg width="70" height="70" viewBox="0 0 70 70" fill="none" xmlns="http://www.w3.org/2000/svg">
  <rect width="70" height="70" rx="35" fill="#FEDF46" />
  <path opacity="0.3"
    d="M65.5844 32.896C64.9364 31.9 64.0864 31.062 63.0944 30.424C63.2004 27.028 62.9024 23.682 62.6744 22.18C62.1184 16.912 57.7084 9.722 50.7424 9.722H50.7144H50.7044C50.6004 9.72 50.4944 9.718 50.3884 9.718C50.2364 9.718 50.0844 9.722 49.9344 9.728C46.7304 6.306 41.8584 5.03 38.2064 5.03H38.0884C37.6964 5.01 37.3064 5 36.9164 5C29.2624 5 21.5984 8.994 16.9144 15.422C13.5884 19.986 12.1224 25.342 12.6864 30.552C11.2164 31.55 10.1024 32.98 9.53238 34.69L9.51438 34.742L9.49838 34.794C8.33638 38.628 9.46038 41.368 10.3624 43.568L10.5424 44.01L10.5724 44.082L10.6044 44.154C12.1164 47.498 14.8284 49.902 17.9204 50.664C20.6524 61.918 29.2184 67 37.0484 67C44.9064 67 53.6984 61.984 56.9724 50.884C57.2544 50.846 57.5264 50.794 57.7924 50.728C62.0604 49.776 65.1924 46.236 66.6144 40.748C67.3724 37.876 67.0084 35.08 65.5844 32.896Z"
    fill="black" />
  <path
    d="M63.5844 30.896C62.9364 29.9 62.0864 29.062 61.0944 28.424C61.2004 25.028 60.9024 21.682 60.6744 20.18C60.1184 14.912 55.7084 7.722 48.7424 7.722H48.7144H48.7044C48.6004 7.72 48.4944 7.718 48.3884 7.718C48.2364 7.718 48.0844 7.722 47.9344 7.728C44.7304 4.306 39.8584 3.03 36.2064 3.03H36.0884C35.6964 3.01 35.3064 3 34.9164 3C27.2624 3 19.5984 6.994 14.9144 13.422C11.5884 17.986 10.1224 23.342 10.6864 28.552C9.21638 29.55 8.10238 30.98 7.53238 32.69L7.51438 32.742L7.49838 32.794C6.33638 36.628 7.46038 39.368 8.36238 41.568L8.54238 42.01L8.57238 42.082L8.60438 42.154C10.1164 45.498 12.8284 47.902 15.9204 48.664C18.6524 59.918 27.2184 65 35.0484 65C42.9064 65 51.6984 59.984 54.9724 48.884C55.2544 48.846 55.5264 48.794 55.7924 48.728C60.0604 47.776 63.1924 44.236 64.6144 38.748C65.3724 35.876 65.0084 33.08 63.5844 30.896Z"
    fill="white" />
  <path
    d="M36.0268 40.9159C34.1648 42.4659 32.5828 43.7939 31.9408 45.7439C31.9008 45.8559 31.9348 45.8299 31.7888 45.6579C31.6128 45.4739 31.4288 45.5159 31.6328 45.5659C32.8408 45.7999 34.1288 45.7739 35.3588 45.4979C35.8308 45.3939 36.2968 45.6919 36.4008 46.1619C36.4948 46.5839 36.2648 47.0019 35.8788 47.1599C34.7588 47.6179 33.5528 47.8999 32.3168 47.9799C31.3808 47.9859 30.6448 48.1999 29.7328 47.2299C29.2488 46.6039 29.2188 45.9879 29.2208 45.5519C29.4128 42.4839 31.5988 39.9719 33.2228 38.0679C35.1428 35.9259 38.2008 39.0219 36.0268 40.9159Z"
    fill="black" />
  <path
    d="M33.9789 51.5219C36.3269 51.0479 38.4869 49.5839 39.3749 47.8359C40.8729 45.1559 44.6809 47.8779 42.6269 50.1659C40.3009 52.7839 37.1309 53.7659 34.1629 53.7519C33.5429 53.7499 33.0429 53.2439 33.0449 52.6239C33.0469 52.0699 33.4529 51.6099 33.9789 51.5219Z"
    fill="black" />
  <path
    d="M27 41.1148C28.1046 41.1148 29 39.8317 29 38.2488C29 36.666 28.1046 35.3828 27 35.3828C25.8954 35.3828 25 36.666 25 38.2488C25 39.8317 25.8954 41.1148 27 41.1148Z"
    fill="black" />
  <path
    d="M43 41.1148C44.1046 41.1148 45 39.8317 45 38.2488C45 36.666 44.1046 35.3828 43 35.3828C41.8954 35.3828 41 36.666 41 38.2488C41 39.8317 41.8954 41.1148 43 41.1148Z"
    fill="black" />
  <path
    d="M56.8184 30.7388C57.3024 26.8388 56.8784 21.8808 56.6204 20.3068C56.2564 16.4748 52.9664 11.1528 48.2524 11.2208C47.4604 11.1908 46.6124 11.2928 45.7944 11.5728C43.7724 7.99883 39.0704 6.42483 35.2584 6.48683C22.3584 5.74483 10.0324 18.1308 13.8604 30.7168C12.0964 30.9328 10.4304 31.9348 9.83444 33.6968C9.01044 36.3728 9.87844 38.0968 10.7844 40.2928C11.6964 42.2768 13.5144 44.2488 15.8464 44.6988C16.4564 44.8448 17.2464 44.8788 18.0144 44.7868C20.9564 66.7528 47.8104 66.1588 51.6124 44.5988C52.6204 44.9008 53.8224 44.9128 54.6764 44.6988C58.1404 43.9648 59.9424 40.6148 60.7604 37.5088C61.8244 33.5548 59.5764 31.1228 56.8184 30.7388ZM19.5804 22.3428C22.0824 16.0528 28.6384 12.1588 35.3364 11.8108C38.3184 11.5788 41.6904 12.0928 42.9384 14.8708C43.2904 15.6568 44.1264 16.1608 45.0264 16.0548C48.4524 15.2968 50.9144 17.5908 51.5224 21.2528C52.0664 24.4668 52.5884 28.1408 52.3304 31.5268C48.7184 28.3068 45.9684 23.8988 44.8644 19.0068C44.7224 18.2768 43.7064 18.0168 43.2364 18.6028C40.1064 22.0628 35.4604 24.1728 31.3164 26.2288C27.2344 28.1008 22.7084 29.4528 18.2924 28.7728C18.3144 26.5488 18.7364 24.3588 19.5804 22.3428ZM56.4764 36.5008C55.9504 38.6948 54.8904 41.3368 52.4224 40.6728C51.4044 40.3108 50.2664 40.8268 49.8804 41.8508C49.6424 42.6048 49.7704 43.1828 50.0944 43.6328C48.7464 47.2488 46.7684 50.5468 44.1444 53.0208C34.2604 61.9448 23.2424 55.2148 20.3924 43.6848C20.7244 43.2488 20.8744 42.6868 20.6784 41.9448C20.3404 40.8948 19.2144 40.3168 18.1624 40.6528C17.7304 40.8028 17.2244 40.8228 16.7644 40.6968C15.0744 40.2808 13.7784 37.0228 14.0324 35.3328C14.7164 35.0168 15.3904 35.7968 15.7504 36.5188C16.3464 37.7588 17.8824 38.2468 19.0844 37.5748C21.0404 36.3568 20.3544 34.3548 19.0524 32.8728C21.3884 32.9248 24.3284 32.1528 25.5664 31.8668C32.1244 29.5408 38.4344 26.1448 43.3224 21.1768C44.2244 26.2208 46.6744 31.0068 50.2844 34.8628C49.5524 37.4348 53.3904 39.2328 54.7744 36.5188C55.1244 35.8528 55.6044 35.2328 56.2664 35.2628C56.5904 35.2668 56.6444 35.5248 56.4764 36.5008Z"
    fill="black" />
</svg>