<svg width="128" height="128" viewBox="0 0 128 128" fill="none" xmlns="http://www.w3.org/2000/svg">
<path opacity="0.3" d="M103.154 11.108L102.794 10.824L102.402 10.584C95.3622 6.276 87.0222 4 78.2902 4C65.9742 4 54.1982 8.584 45.9862 16.58C40.5022 22.108 36.6942 29.148 34.8742 37.028C34.6422 37.92 34.4382 38.876 34.2582 39.744C34.1342 40.34 33.9862 41.052 33.8742 41.432C27.3782 45.56 24.0422 54.068 23.3102 59.192C21.8542 66.324 21.2142 73.508 20.5902 80.46C20.4462 82.064 20.1902 83.652 20.1542 85.24C19.9982 92 29.9182 104.436 30.3382 104.616V104.624C30.6342 106.1 31.0382 108.124 31.8262 110.424C35.5862 120.968 46.1662 128 58.1782 128C62.5902 128 66.9302 126.996 70.7462 125.092C79.1022 121.4 83.5862 113.64 86.8662 107.96L87.1982 107.388C88.3862 105.308 89.8822 104.092 92.1462 102.248C93.6222 101.048 95.2902 99.688 97.0742 97.916L97.2222 97.768L97.3622 97.612C104.834 89.32 113.13 78.828 118.006 63.88L118.078 63.664L118.134 63.444C122.174 47.9 120.674 24.868 103.154 11.108Z" fill="black"/>
<path d="M99.1557 7.108L98.7957 6.824L98.4037 6.584C91.3637 2.276 83.0237 0 74.2917 0C61.9757 0 50.1997 4.584 41.9877 12.58C36.5037 18.108 32.6957 25.144 30.8717 33.028C30.6437 33.92 30.4397 34.876 30.2597 35.744C30.1357 36.34 29.9877 37.052 29.8757 37.432C23.3797 41.56 20.0437 50.068 19.3117 55.192C17.8557 62.324 17.2157 69.508 16.5917 76.46C16.4477 78.064 16.3077 79.656 16.1557 81.24C14.9957 92.292 20.5877 97.448 24.0237 99.528L24.4517 99.788L24.9117 99.992C25.4437 100.228 25.9197 100.436 26.3397 100.612V100.62C26.6357 102.096 27.0397 104.12 27.8277 106.42C31.5877 116.968 42.1677 124 54.1797 124C58.5917 124 62.9317 122.996 66.7477 121.092C75.1037 117.4 79.5877 109.64 82.8677 103.96L83.1997 103.388C84.3877 101.308 85.8837 100.092 88.1477 98.248C89.6237 97.048 91.2917 95.688 93.0757 93.916L93.2237 93.768L93.3637 93.612C100.836 85.32 109.132 74.828 114.008 59.88L114.08 59.664L114.136 59.444C118.176 43.9 116.676 20.868 99.1557 7.108Z" fill="white"/>
<path d="M93.9889 12.64C85.3049 7.168 74.9609 6.568 65.2409 8.448C52.4169 10.688 41.2569 21.444 38.6009 34.196C37.9089 37.216 37.4889 39.736 36.6129 41.264C35.3409 43.512 32.9249 44.088 31.0009 46.66C24.3049 57.352 25.6609 70.132 23.9289 81.924C23.4769 85.832 24.0609 90.86 28.3009 93.308C33.3449 95.512 32.3089 94.568 33.2089 96.2C33.9329 97.804 34.0329 100.62 35.2809 104.22C39.3129 115.104 52.9169 119.536 63.0409 114.592C69.3409 112.04 73.3409 105.188 76.2689 100.02C79.1689 94.908 82.8649 93.336 87.2249 89.06C95.9489 79.492 102.401 70.32 106.537 57.864C110.713 42.228 107.493 22.928 93.9889 12.64ZM95.0649 54.556C92.1729 63.528 85.5129 73.916 79.0529 80.876C75.2369 84.576 69.3449 89.22 66.8849 94.556C64.2969 99.108 62.9369 103.188 58.6529 105.548C53.3889 108.552 45.8249 106.652 43.4009 101.04C42.2409 97.9 41.2609 89.86 36.1409 87.748C33.8969 86.696 32.4529 86.568 32.2329 86.368C31.3969 85.776 31.4569 83.98 31.5089 82.508C32.4569 72.356 31.8529 60.38 37.0489 51.644C38.7729 49.952 42.3129 48.124 43.6449 45.388C47.4929 37.304 47.2969 29.732 54.2569 24.1C62.6489 16.772 77.9489 15.604 87.6489 21.728C96.2449 29.504 98.2489 43.7 95.0649 54.556Z" fill="black"/>
<path d="M65.1548 26.408C57.9668 31.424 57.2108 38.72 52.8668 44.536C51.6668 46.18 50.6868 46.792 48.3068 48.7C45.2548 50.856 43.1828 56.452 45.8468 59.92C48.2108 63.324 52.2948 64.476 52.1548 68.444C52.1428 69.24 51.2068 70.572 49.5348 72.34C44.9628 76.312 43.3108 84.488 49.4588 88.588C51.3468 89.896 53.7908 87.316 52.3308 85.5C51.2908 84.232 50.8468 82.396 51.3268 81.04C53.0508 77.172 58.4468 75.888 59.6988 69.936C61.0588 63.616 56.6788 58.848 52.5268 55.612C52.6388 55.352 52.8508 55.008 53.4228 54.5C56.2748 52.696 59.5788 48.492 61.5548 44.748C67.9988 52.732 70.1068 64.936 65.5228 75.068C65.2068 75.768 65.4508 76.612 66.1228 77.02C66.8508 77.46 67.7948 77.232 68.2388 76.504C75.3268 64.836 74.2868 48.604 65.1588 37.188C66.3148 35.06 67.5548 33.248 69.1268 32.056C75.5468 27.228 84.1508 32.088 84.3668 40.448C84.8828 44.968 85.2628 49.48 83.8028 53.352C83.4988 54.172 83.8388 55.108 84.6348 55.528C89.4748 57.136 89.4948 42.528 89.3468 40.052C90.0548 27.4 75.8028 19.144 65.1548 26.408Z" fill="black"/>
</svg>
