<svg width="128" height="128" viewBox="0 0 128 128" fill="none" xmlns="http://www.w3.org/2000/svg">
<path opacity="0.3" d="M123.428 38.12C121.876 33.28 117.856 29.668 114.624 26.768C114.004 26.212 113.416 25.688 112.92 25.204C105.636 18.132 97.4879 12 88.6999 6.972C86.2799 5.588 83.0119 4 79.1999 4C77.6399 4 76.1239 4.268 74.6839 4.792C69.7319 6.604 67.2479 10.908 65.9119 13.22L62.8319 18.552C62.0439 19.92 61.4319 21.22 60.9879 22.484L57.9719 25.936C48.0559 30.96 40.6959 40.54 38.5639 51.36C38.4799 51.732 38.4039 52.096 38.3319 52.464C37.3439 53.492 36.5759 54.476 35.9479 55.284C35.6879 55.62 35.3359 56.068 35.1599 56.264C35.1039 56.308 35.0479 56.356 34.9919 56.4C34.4599 56.84 33.7679 57.2 32.8479 57.5C29.4039 55.612 25.6159 55.38 22.8279 55.208C22.1959 55.168 21.5719 55.132 20.9599 55.072L20.4639 55.02C19.6119 54.928 18.5519 54.816 17.3879 54.816C10.7239 54.816 7.6559 58.708 6.4239 61.032C4.0159 65.56 4.0479 71.236 4.0759 75.796C4.0799 76.716 4.0879 77.584 4.0639 78.348C3.7359 89.228 4.6719 100.12 6.8439 110.724C7.4039 113.456 8.7159 119.856 14.4559 123.112C16.4719 124.256 18.7639 124.836 21.2719 124.836C23.3999 124.836 25.3199 124.428 26.9519 124.044L28.0359 123.788L32.9679 122.628C33.3159 122.544 33.7839 122.436 34.3319 122.284C37.2639 125.896 41.7079 128 46.5839 128C49.1759 128 51.7359 127.408 54.0439 126.332C55.5719 126.836 57.1959 127.104 58.8599 127.104C60.8439 127.104 62.8039 126.728 64.6159 126.032C66.4959 126.792 68.5319 127.196 70.6119 127.196C72.3999 127.196 74.1719 126.908 75.8519 126.356C77.8279 127.212 79.9639 127.672 82.1119 127.672C84.0679 127.672 85.9599 127.296 87.7319 126.552C92.7439 124.58 96.5719 120.752 98.5759 115.88C104.04 113.348 107.528 108.768 108.004 103.42C110.492 101.548 112.392 99.048 113.508 96.092C114.624 93.132 114.832 89.952 114.18 86.928C116.744 83.136 117.772 78.74 117.044 74.292C116.984 73.932 116.9 73.576 116.792 73.224C116.44 72.104 115.988 71.048 115.432 70.048C116.448 67.408 116.788 64.448 116.352 61.524C116.048 59.472 115.38 57.552 114.412 55.852C115.176 55.168 115.876 54.48 116.536 53.832C116.996 53.38 117.452 52.928 117.916 52.504L118.288 52.164C120.328 50.32 125.764 45.408 123.428 38.12Z" fill="black"/>
<path d="M119.428 34.12C117.876 29.28 113.856 25.668 110.624 22.768C110.004 22.212 109.416 21.688 108.92 21.204C101.636 14.132 93.4879 8 84.6999 2.972C82.2799 1.588 79.0119 0 75.1999 0C73.6399 0 72.1239 0.268 70.6839 0.792C65.7319 2.604 63.2479 6.908 61.9119 9.22L58.8319 14.552C58.0439 15.92 57.4319 17.22 56.9879 18.484L53.9719 21.936C44.0519 26.96 36.6959 36.54 34.5639 47.36C34.4799 47.732 34.4039 48.096 34.3319 48.464C33.3439 49.492 32.5759 50.476 31.9479 51.284C31.6879 51.62 31.3359 52.068 31.1599 52.264C31.1039 52.308 31.0479 52.356 30.9919 52.4C30.4599 52.84 29.7679 53.2 28.8479 53.5C25.4039 51.612 21.6159 51.38 18.8279 51.208C18.1959 51.168 17.5719 51.132 16.9599 51.072L16.4639 51.02C15.6119 50.928 14.5519 50.816 13.3879 50.816C6.7239 50.816 3.6559 54.708 2.4239 57.032C0.0158968 61.56 0.0478967 67.236 0.0758967 71.796C0.0798967 72.716 0.0878967 73.584 0.0638967 74.348C-0.264103 85.228 0.671897 96.12 2.8439 106.724C3.4039 109.456 4.7159 115.856 10.4559 119.112C12.4719 120.256 14.7639 120.836 17.2719 120.836C19.3999 120.836 21.3199 120.428 22.9519 120.044L24.0359 119.788L28.9679 118.628C29.3159 118.544 29.7839 118.436 30.3319 118.284C33.2639 121.896 37.7079 124 42.5839 124C45.1759 124 47.7359 123.408 50.0439 122.332C51.5719 122.836 53.1959 123.104 54.8599 123.104C56.8439 123.104 58.8039 122.728 60.6159 122.032C62.4959 122.792 64.5319 123.196 66.6119 123.196C68.3999 123.196 70.1719 122.908 71.8519 122.356C73.8279 123.212 75.9639 123.672 78.1119 123.672C80.0679 123.672 81.9599 123.296 83.7319 122.552C88.7439 120.58 92.5719 116.752 94.5759 111.88C100.04 109.348 103.528 104.768 104.004 99.42C106.492 97.548 108.392 95.048 109.508 92.092C110.624 89.132 110.832 85.952 110.18 82.928C112.744 79.136 113.772 74.74 113.044 70.292C112.984 69.932 112.9 69.576 112.792 69.224C112.44 68.104 111.988 67.048 111.432 66.048C112.448 63.408 112.788 60.448 112.352 57.524C112.048 55.472 111.38 53.552 110.412 51.852C111.176 51.168 111.876 50.48 112.536 49.832C112.996 49.38 113.452 48.928 113.916 48.504L114.288 48.164C116.328 46.32 121.764 41.408 119.428 34.12Z" fill="white"/>
<path d="M112.006 36.288C110.85 32.704 106.114 29.172 103.49 26.64C96.6943 20.076 89.0703 14.368 80.8343 9.684C78.5622 8.392 75.8822 7.148 73.3623 8.064C71.1783 8.856 69.8303 11.028 68.6583 13.04C67.6303 14.808 66.6063 16.576 65.5783 18.34C64.9343 19.448 64.3183 20.692 64.0343 21.92L58.7103 27.944C50.2743 31.676 43.7863 39.796 42.0703 48.6C41.7943 49.828 41.5783 51.016 41.3823 52.176C38.7663 54.22 37.5863 56.764 35.9663 57.964C34.1823 59.492 31.7983 60.444 29.2583 61.008C28.4783 61.208 27.6663 61.312 26.8543 61.428C24.3943 58.5 19.9943 58.856 16.1903 58.476C13.7343 58.232 10.7143 57.692 9.30225 60.328C7.41425 63.86 7.97425 70.204 7.85425 74.14C7.54225 84.332 8.42225 94.564 10.4783 104.536C11.0463 107.284 11.9223 110.324 14.2983 111.664C16.3583 112.824 18.8783 112.32 21.1623 111.784C23.1663 111.316 25.1743 110.848 27.1783 110.376C29.3703 109.864 31.8303 109.016 32.7543 106.96L34.8663 106.82C34.7783 108.356 34.8783 109.92 35.7223 111.948C38.9103 117.104 46.2863 116.432 49.7063 112.544C52.5623 115.092 57.2783 115.768 60.1463 112.824C60.3103 112.672 60.4383 112.484 60.5863 112.316C64.0063 115.324 69.1423 115.516 72.3303 112.872C74.4983 114.988 77.9102 115.992 80.8102 114.748C85.1582 113.088 87.6863 109.352 88.2903 105.252C92.4902 104.368 97.0663 101.304 96.2903 96.56C96.2023 95.868 95.8983 95.168 95.5703 94.496C102.51 92.756 104.654 85.788 101.306 80.896C104.19 78.468 106.15 75.124 105.454 71.048C104.77 68.904 103.446 67.36 101.802 66.196C102.17 65.864 102.538 65.56 102.914 65.172C105.986 61.736 105.37 55.24 101.39 52.848C101.262 52.76 101.142 52.728 101.014 52.648L103.442 47.18C105.294 45.924 106.954 44.04 108.654 42.492C110.466 40.848 112.87 38.964 112.006 36.288ZM19.9983 100C17.7903 100 15.9983 98.208 15.9983 96C15.9983 93.792 17.7903 92 19.9983 92C22.2063 92 23.9983 93.792 23.9983 96C23.9983 98.208 22.2063 100 19.9983 100ZM75.9983 16C78.2063 16 79.9983 17.792 79.9983 20C79.9983 22.208 78.2063 24 75.9983 24C73.7903 24 71.9983 22.208 71.9983 20C71.9983 17.792 73.7903 16 75.9983 16ZM42.8303 74.008C48.4263 68.428 50.3903 58.28 52.0903 51.22C53.8063 45.024 58.3463 40.376 64.2463 38.56C64.7903 38.156 66.9103 36.992 67.1823 36.36C67.1823 36.36 68.7983 33.48 70.6623 30.14C75.6983 33.84 80.7343 37.54 85.7663 41.24C88.6423 43.352 91.5623 45.456 94.7583 47.036L93.2103 50.524C92.8863 50.512 92.5423 50.492 92.2383 50.48C83.7542 50.56 75.4263 51.1 67.0703 52.152C67.0703 52.096 67.0783 52.036 67.0742 51.98C66.7822 48.564 61.5903 48.8 61.6423 52.248C61.6383 52.848 61.5503 53.452 61.4703 54.056C60.8143 54.952 60.6063 56.084 60.7943 57.164C59.1823 62.224 55.5183 67.148 52.0303 70.592C49.4183 73.232 44.9063 75.26 42.4063 74.92C42.4503 74.716 42.5343 74.384 42.8303 74.008ZM74.7183 106.008C73.7863 104.448 71.3063 104.524 70.4943 106.172C68.0823 109.892 65.1543 108.728 61.9143 105.928C61.2463 105.336 60.2503 105.184 59.4263 105.648L57.5463 106.7C55.1583 107.82 53.6903 106.68 51.3383 105.688C50.0743 104.72 48.3703 105.132 47.1343 106.028C44.9583 107.2 43.9263 107.7 41.9063 107.62C41.5943 107.62 41.6863 107.628 41.9663 108.16C42.1143 108.744 41.6583 107.796 41.5303 107.18C41.1183 105.752 40.9343 104.056 40.8383 102.408C40.4543 97.72 45.5823 94.072 47.5023 99.392C47.6983 100.312 48.3343 101.108 49.3223 101.324C50.5823 101.608 51.8303 100.816 52.1143 99.556C53.1343 95.852 57.3383 95.992 58.2343 99.688C58.3703 100.364 58.8022 100.988 59.4663 101.324C60.6263 101.92 62.0543 101.44 62.6263 100.272C64.4463 96.492 69.2422 96.06 69.8503 100.48C70.0143 102.82 73.5063 103.424 74.4103 101.2C75.2383 99.124 77.8582 98.1 79.0742 98.772C80.4703 99.256 81.6982 101.692 81.5583 103.584C81.3702 107.5 76.6023 110.272 74.7183 106.008ZM89.0343 97.784C89.0503 97.68 89.0742 97.56 89.1263 97.44C89.4023 96.976 89.2063 97.492 89.0343 97.784ZM92.2983 76.492C90.7583 76.856 89.4863 78.056 89.1503 79.708C88.6982 81.944 90.1423 84.124 92.3783 84.576C94.5342 85.012 94.8463 86.16 94.7783 85.952C93.4743 87.516 91.4303 86.248 88.6383 87.96C84.7663 90.364 86.7142 95.472 88.8783 98.012C88.5383 98.508 88.1223 98.924 87.6663 99.304C85.1582 92.812 77.0263 90.404 72.4383 95.256C69.7863 92.416 65.1983 91.444 61.8183 94.172C61.4903 94.408 61.2423 94.708 60.9503 94.972C58.0743 91.572 53.0623 91.34 49.9183 94.384C45.6343 89.62 38.0223 92.312 35.7983 98.76L32.6623 98.968C31.9903 91.856 31.3183 84.748 30.6423 77.636C30.2823 73.832 29.8863 69.996 28.9263 66.32C32.6663 65.44 36.3223 64.056 39.0663 61.36C39.4063 61.028 39.6623 60.688 39.9543 60.348C39.2303 65.596 34.3783 68.448 33.8943 74.372C33.3103 80.556 39.6823 84.22 45.0823 82.716C54.9903 80.356 62.9743 70.552 65.8823 60.4C74.5863 59.584 83.4583 59.112 92.1503 59.208C93.8903 59.18 95.3623 59.492 95.9943 59.812C94.5183 61.408 88.7623 62.728 86.0623 63.236C80.6143 64.248 81.6463 72.384 87.2023 71.96C89.5503 71.548 94.7823 72.26 96.7863 73.236C95.9183 74.664 93.8823 76.092 92.2983 76.492Z" fill="black"/>
</svg>
