<svg width="1440" height="27" viewBox="0 0 1440 27" fill="none" xmlns="http://www.w3.org/2000/svg">
<path d="M51.5 2.8858C7.45268 10.5906 -99.1046 19.6317 -140 22H1576.72C1578.53 22 1580 20.5309 1580 18.7186C1580 17.1418 1578.92 15.795 1577.37 15.5077C1528.06 6.37319 1422.3 -7.76154 1372.93 5.26418C1322.66 18.5265 1196.78 17.9476 1140.13 16.0004C1089.06 8.84292 976.624 -3.32475 935.449 5.26418C894.994 13.7029 773.427 15.9233 731.725 15.9984C730.254 16.001 728.891 15.8982 727.435 15.6855C669.648 7.23901 547.455 -6.21244 503.953 5.26418C459.905 16.8845 305.261 17.2634 233.445 16.0004C186.565 9.21131 95.5473 -4.81899 51.5 2.8858Z" fill="#C7EAF3"/>
<path d="M51.5 7.8858C7.45268 15.5906 -99.1046 24.6317 -140 27H1576.72C1578.53 27 1580 25.5309 1580 23.7186C1580 22.1418 1578.92 20.795 1577.37 20.5077C1528.06 11.3732 1422.3 -2.76154 1372.93 10.2642C1322.66 23.5265 1196.78 22.9476 1140.13 21.0004C1089.06 13.8429 976.624 1.67525 935.449 10.2642C894.994 18.7029 773.427 20.9233 731.725 20.9984C730.254 21.001 728.891 20.8982 727.435 20.6855C669.648 12.239 547.455 -1.21244 503.953 10.2642C459.905 21.8845 305.261 22.2634 233.445 21.0004C186.565 14.2113 95.5473 0.181008 51.5 7.8858Z" fill="white"/>
</svg>
