<svg width="24" height="24" viewBox="0 0 24 24" fill="none" xmlns="http://www.w3.org/2000/svg">
<path d="M8.0001 2.0001C6.35465 2.0001 5.0001 3.35465 5.0001 5.0001V21.0001C4.99823 21.1326 5.02271 21.2642 5.07212 21.3871C5.12153 21.5101 5.1949 21.622 5.28794 21.7164C5.38098 21.8108 5.49186 21.8857 5.61411 21.9369C5.73637 21.988 5.86757 22.0143 6.0001 22.0143C6.13263 22.0143 6.26383 21.988 6.38609 21.9369C6.50834 21.8857 6.61922 21.8108 6.71226 21.7164C6.8053 21.622 6.87867 21.5101 6.92808 21.3871C6.97749 21.2642 7.00197 21.1326 7.0001 21.0001V5.0001C7.0001 4.44555 7.44555 4.0001 8.0001 4.0001C8.13261 4.00197 8.26417 3.97749 8.38714 3.92808C8.51011 3.87867 8.62203 3.8053 8.7164 3.71226C8.81077 3.61922 8.88571 3.50834 8.93686 3.38609C8.988 3.26383 9.01434 3.13263 9.01434 3.0001C9.01434 2.86757 8.988 2.73637 8.93686 2.61411C8.88571 2.49186 8.81077 2.38098 8.7164 2.28794C8.62203 2.1949 8.51011 2.12153 8.38714 2.07212C8.26417 2.02271 8.13261 1.99823 8.0001 2.0001ZM20.0001 2.0001C18.3546 2.0001 17.0001 3.35465 17.0001 5.0001V6.0001H9.0001C8.86759 5.99823 8.73603 6.02271 8.61306 6.07212C8.49009 6.12153 8.37817 6.1949 8.2838 6.28794C8.18943 6.38098 8.11449 6.49186 8.06334 6.61411C8.0122 6.73637 7.98586 6.86758 7.98586 7.0001C7.98586 7.13263 8.0122 7.26383 8.06334 7.38609C8.11449 7.50834 8.18943 7.61922 8.2838 7.71226C8.37817 7.8053 8.49009 7.87867 8.61306 7.92808C8.73603 7.97749 8.86759 8.00197 9.0001 8.0001H17.0001V10.0001H9.0001C8.86759 9.99823 8.73603 10.0227 8.61306 10.0721C8.49009 10.1215 8.37817 10.1949 8.2838 10.2879C8.18943 10.381 8.11449 10.4919 8.06334 10.6141C8.0122 10.7364 7.98586 10.8676 7.98586 11.0001C7.98586 11.1326 8.0122 11.2638 8.06334 11.3861C8.11449 11.5083 8.18943 11.6192 8.2838 11.7123C8.37817 11.8053 8.49009 11.8787 8.61306 11.9281C8.73603 11.9775 8.86759 12.002 9.0001 12.0001H17.0001V14.0001H9.0001C8.86759 13.9982 8.73603 14.0227 8.61306 14.0721C8.49009 14.1215 8.37817 14.1949 8.2838 14.2879C8.18943 14.381 8.11449 14.4919 8.06334 14.6141C8.0122 14.7364 7.98586 14.8676 7.98586 15.0001C7.98586 15.1326 8.0122 15.2638 8.06334 15.3861C8.11449 15.5083 8.18943 15.6192 8.2838 15.7123C8.37817 15.8053 8.49009 15.8787 8.61306 15.9281C8.73603 15.9775 8.86759 16.002 9.0001 16.0001H17.0001V18.0001H9.0001C8.86759 17.9982 8.73603 18.0227 8.61306 18.0721C8.49009 18.1215 8.37817 18.1949 8.2838 18.2879C8.18943 18.381 8.11449 18.4919 8.06334 18.6141C8.0122 18.7364 7.98586 18.8676 7.98586 19.0001C7.98586 19.1326 8.0122 19.2638 8.06334 19.3861C8.11449 19.5083 8.18943 19.6192 8.2838 19.7123C8.37817 19.8053 8.49009 19.8787 8.61306 19.9281C8.73603 19.9775 8.86759 20.002 9.0001 20.0001H17.0001V21.0001C16.9982 21.1326 17.0227 21.2642 17.0721 21.3871C17.1215 21.5101 17.1949 21.622 17.2879 21.7164C17.381 21.8108 17.4919 21.8857 17.6141 21.9369C17.7364 21.988 17.8676 22.0143 18.0001 22.0143C18.1326 22.0143 18.2638 21.988 18.3861 21.9369C18.5083 21.8857 18.6192 21.8108 18.7123 21.7164C18.8053 21.622 18.8787 21.5101 18.9281 21.3871C18.9775 21.2642 19.002 21.1326 19.0001 21.0001V19.1681C19.0179 19.0601 19.0179 18.9499 19.0001 18.8419V15.1681C19.0179 15.0601 19.0179 14.9499 19.0001 14.8419V11.1681C19.0179 11.0601 19.0179 10.9499 19.0001 10.8419V7.16807C19.0179 7.06008 19.0179 6.94989 19.0001 6.8419V5.0001C19.0001 4.44555 19.4456 4.0001 20.0001 4.0001C20.1326 4.00197 20.2642 3.97749 20.3871 3.92808C20.5101 3.87867 20.622 3.8053 20.7164 3.71226C20.8108 3.61922 20.8857 3.50834 20.9369 3.38609C20.988 3.26383 21.0143 3.13263 21.0143 3.0001C21.0143 2.86757 20.988 2.73637 20.9369 2.61411C20.8857 2.49186 20.8108 2.38098 20.7164 2.28794C20.622 2.1949 20.5101 2.12153 20.3871 2.07212C20.2642 2.02271 20.1326 1.99823 20.0001 2.0001Z" fill="black"/>
</svg>
