<svg width="129" height="129" viewBox="0 0 129 129" fill="none" xmlns="http://www.w3.org/2000/svg">
<g clip-path="url(#clip0_620_60508)">
<path opacity="0.3" d="M118.485 54.2617C115.849 50.1937 114.029 45.3217 112.101 40.1617C109.061 32.0257 105.617 22.8057 98.1251 15.4657L97.6971 15.0457L97.2091 14.6937C87.8171 7.90968 76.4851 4.32568 64.4411 4.32568C37.3051 4.32568 14.8571 21.7497 9.8611 46.6937C6.7131 61.0497 10.0051 76.8337 18.7011 88.7737L18.8571 88.9857L19.0291 89.1897C23.9011 95.0257 25.3171 100.078 25.0411 110.698C23.9331 113.802 24.1931 117.354 25.7771 120.526C27.4331 123.838 30.2931 126.366 33.5091 127.39C35.2731 128.042 37.3731 128.326 40.3651 128.326C41.5571 128.326 42.7931 128.282 43.9091 128.238C44.6411 128.21 45.3131 128.182 45.8451 128.182H46.0491L46.3131 128.194L46.5971 128.19L61.0971 127.91C62.8411 127.846 64.4571 127.83 66.0891 127.814C70.1451 127.77 74.3371 127.726 78.8411 127.102L79.6971 126.982L79.8571 126.922C81.7451 126.586 84.2891 125.786 86.9611 123.274L87.1571 123.09L87.3371 122.894C90.3011 119.706 90.7771 116.086 90.8451 114.114C92.1811 113.894 93.4971 113.618 94.7971 113.286C103.637 110.854 111.057 103.182 113.929 93.6497C114.789 91.3417 115.065 89.0017 115.289 87.0977C115.329 86.7657 115.377 86.3617 115.429 85.9737C120.289 82.5697 123.265 78.4857 124.289 73.8017C125.997 66.0217 121.833 58.9497 118.485 54.2617Z" fill="black"/>
<path d="M114.485 50.2617C111.849 46.1937 110.029 41.3217 108.101 36.1617C105.061 28.0257 101.617 18.8057 94.1251 11.4657L93.6971 11.0457L93.2091 10.6937C83.8171 3.90968 72.4851 0.325684 60.4411 0.325684C33.3051 0.325684 10.8571 17.7497 5.8611 42.6937C2.7131 57.0497 6.0051 72.8337 14.7011 84.7737L14.8571 84.9857L15.0291 85.1897C19.9011 91.0257 21.3171 96.0777 21.0411 106.698C19.9331 109.802 20.1931 113.354 21.7771 116.526C23.4331 119.838 26.2931 122.366 29.5091 123.39C31.2731 124.042 33.3731 124.326 36.3651 124.326C37.5571 124.326 38.7931 124.282 39.9091 124.238C40.6411 124.21 41.3131 124.182 41.8451 124.182H42.0491L42.3131 124.194L42.5971 124.19L57.0971 123.91C58.8411 123.846 60.4571 123.83 62.0891 123.814C66.1451 123.77 70.3371 123.726 74.8411 123.102L75.6971 122.982L75.8571 122.922C77.7451 122.586 80.2891 121.786 82.9611 119.274L83.1571 119.09L83.3371 118.894C86.3011 115.706 86.7771 112.086 86.8451 110.114C88.1811 109.894 89.4971 109.618 90.7971 109.286C99.6371 106.854 107.057 99.1817 109.929 89.6497C110.789 87.3417 111.065 85.0017 111.289 83.0977C111.329 82.7657 111.377 82.3617 111.429 81.9737C116.289 78.5697 119.265 74.4857 120.289 69.8017C121.997 62.0217 117.833 54.9497 114.485 50.2617Z" fill="white"/>
<path d="M113.464 64.6579C113.004 61.7699 111.868 59.8619 110.884 58.1779C102.888 47.3459 100.992 33.7139 93.4161 22.0419C82.3681 7.06187 56.2441 5.94587 40.2801 12.9859C18.6201 22.0819 7.80408 49.1899 17.0481 70.7899C20.2801 80.5539 29.2681 84.9979 29.6441 95.5499C30.4241 101.026 29.0401 107.446 29.7401 112.302C30.6281 115.422 34.6721 116.306 36.9761 116.054L46.9521 115.702C56.2641 115.138 65.5441 115.73 74.8481 114.706C75.2881 114.622 76.0761 114.582 77.2161 113.934C79.2041 112.886 79.6561 110.31 79.5441 108.778C79.5441 106.762 79.3961 104.75 79.1761 102.746C85.0481 102.882 90.8241 101.874 95.9001 98.2539C102.312 93.4299 104.028 85.2339 104.932 78.0739C105.3 76.9899 105.388 76.8939 105.948 76.4619C106.616 75.8859 108.248 75.2419 110.336 73.3979C112.624 71.5499 114.04 67.5459 113.464 64.6579ZM97.2721 72.2339C95.6361 74.9539 95.3841 78.8379 95.1921 81.3419C94.1641 97.5499 76.8241 95.4219 64.9281 93.5059C63.0481 93.1299 61.1841 94.2979 60.7201 96.1779C60.2401 98.1139 61.4241 100.074 63.3601 100.55C66.1121 101.094 68.9801 101.662 71.8841 102.09C72.2321 104.026 72.8801 106.086 72.7361 107.714C72.7401 107.746 72.7521 108.018 72.7641 108.326C62.4921 109.27 48.1441 108.95 36.8401 109.086C36.7881 109.086 36.7681 109.082 36.7201 109.082C37.3521 100.858 40.1161 91.8059 37.3721 83.6899C35.0321 76.8499 30.6241 72.3299 28.1241 66.2699C16.0361 33.7779 49.6561 10.6459 79.0761 23.8419C84.4001 26.0499 86.3161 31.0099 88.8401 36.0779C92.6601 44.6739 96.3321 55.4059 102.488 63.4259C103.236 64.5579 103.72 65.6499 103.784 66.0739C103.768 66.2299 103.796 66.2379 103.82 66.2219C103.8 66.2419 103.78 66.2659 103.724 66.3499C102.74 67.1739 98.2401 69.8699 97.2721 72.2339Z" fill="black"/>
<path d="M80.1755 40.0257L76.5795 39.4377C76.3675 38.7177 76.0795 38.0217 75.7195 37.3657L77.8195 34.3737C77.9875 34.1337 77.9595 33.8017 77.7515 33.5937L75.3835 31.2257C75.1715 31.0137 74.8395 30.9897 74.5995 31.1617L71.6515 33.2817C70.9875 32.9137 70.2875 32.6257 69.5635 32.4137L68.9355 28.8297C68.8835 28.5377 68.6315 28.3257 68.3355 28.3257H64.9875C64.6875 28.3257 64.4355 28.5417 64.3875 28.8377L63.8075 32.4017C63.0755 32.6097 62.3755 32.8977 61.7155 33.2617L58.7755 31.1617C58.5315 30.9897 58.2035 31.0177 57.9915 31.2257L55.6235 33.5897C55.4155 33.7977 55.3835 34.1257 55.5555 34.3697L57.6235 37.3297C57.2555 37.9977 56.9635 38.7017 56.7475 39.4377L53.1995 40.0297C52.9035 40.0737 52.6875 40.3297 52.6875 40.6257V43.9737C52.6875 44.2697 52.8995 44.5217 53.1915 44.5737L56.7395 45.2017C56.9515 45.9337 57.2435 46.6377 57.6155 47.3097L55.5195 50.2377C55.3475 50.4777 55.3755 50.8097 55.5835 51.0217L57.9515 53.3897C58.1595 53.5977 58.4915 53.6257 58.7315 53.4577L61.6955 51.3817C62.3595 51.7457 63.0635 52.0377 63.7915 52.2497L64.3875 55.8177C64.4355 56.1097 64.6875 56.3257 64.9875 56.3257H68.3355C68.6315 56.3257 68.8835 56.1137 68.9355 55.8217L69.5715 52.2377C70.2995 52.0217 70.9995 51.7297 71.6595 51.3657L74.6435 53.4617C74.8875 53.6337 75.2155 53.6017 75.4235 53.3937L77.7915 51.0257C78.0035 50.8137 78.0315 50.4817 77.8555 50.2377L75.7275 47.2817C76.0875 46.6257 76.3755 45.9297 76.5835 45.2057L80.1875 44.5737C80.4755 44.5217 80.6875 44.2697 80.6875 43.9737V40.6257C80.6875 40.3297 80.4715 40.0737 80.1755 40.0257ZM66.6875 46.5857C64.3355 46.5857 62.4275 44.6777 62.4275 42.3257C62.4275 39.9737 64.3355 38.0657 66.6875 38.0657C69.0395 38.0657 70.9475 39.9737 70.9475 42.3257C70.9475 44.6777 69.0395 46.5857 66.6875 46.5857Z" fill="black"/>
<path d="M64.1755 64.0257L60.5795 63.4377C60.3675 62.7177 60.0795 62.0217 59.7195 61.3657L61.8195 58.3737C61.9875 58.1337 61.9595 57.8017 61.7515 57.5937L59.3835 55.2257C59.1715 55.0137 58.8395 54.9897 58.5995 55.1617L55.6515 57.2817C54.9875 56.9137 54.2875 56.6257 53.5635 56.4137L52.9355 52.8297C52.8835 52.5377 52.6315 52.3257 52.3355 52.3257H48.9875C48.6875 52.3257 48.4355 52.5417 48.3875 52.8377L47.8075 56.4017C47.0755 56.6097 46.3755 56.8977 45.7155 57.2617L42.7755 55.1617C42.5315 54.9897 42.2035 55.0177 41.9915 55.2257L39.6235 57.5937C39.4155 57.8017 39.3835 58.1297 39.5555 58.3737L41.6235 61.3337C41.2555 62.0017 40.9635 62.7057 40.7475 63.4417L37.1995 64.0337C36.9035 64.0737 36.6875 64.3297 36.6875 64.6257V67.9737C36.6875 68.2697 36.8995 68.5217 37.1915 68.5737L40.7395 69.2017C40.9515 69.9337 41.2435 70.6377 41.6155 71.3097L39.5195 74.2377C39.3475 74.4777 39.3755 74.8097 39.5835 75.0217L41.9515 77.3897C42.1595 77.5977 42.4915 77.6257 42.7315 77.4577L45.6955 75.3817C46.3595 75.7457 47.0635 76.0377 47.7915 76.2497L48.3875 79.8177C48.4355 80.1097 48.6875 80.3257 48.9875 80.3257H52.3355C52.6315 80.3257 52.8835 80.1137 52.9355 79.8217L53.5715 76.2377C54.2995 76.0217 54.9995 75.7297 55.6595 75.3657L58.6435 77.4617C58.8875 77.6337 59.2155 77.6017 59.4235 77.3937L61.7915 75.0257C62.0035 74.8137 62.0315 74.4817 61.8555 74.2377L59.7275 71.2817C60.0875 70.6257 60.3755 69.9297 60.5835 69.2057L64.1875 68.5737C64.4755 68.5217 64.6875 68.2697 64.6875 67.9737V64.6257C64.6875 64.3297 64.4715 64.0737 64.1755 64.0257ZM50.6875 70.5857C48.3355 70.5857 46.4275 68.6777 46.4275 66.3257C46.4275 63.9737 48.3355 62.0657 50.6875 62.0657C53.0395 62.0657 54.9475 63.9737 54.9475 66.3257C54.9475 68.6777 53.0395 70.5857 50.6875 70.5857Z" fill="black"/>
</g>
<defs>
<clipPath id="clip0_620_60508">
<rect width="128" height="128" fill="white" transform="translate(0.6875 0.325684)"/>
</clipPath>
</defs>
</svg>
