<svg width="16" height="17" viewBox="0 0 16 17" fill="none" xmlns="http://www.w3.org/2000/svg">
<path d="M7.99935 1.16602C5.78348 1.16602 3.99935 2.95014 3.99935 5.16602V5.83268C3.26602 5.83268 2.66602 6.43268 2.66602 7.16602V13.8327C2.66602 14.566 3.26602 15.166 3.99935 15.166H11.9993C12.7327 15.166 13.3327 14.566 13.3327 13.8327V7.16602C13.3327 6.43268 12.7327 5.83268 11.9993 5.83268V5.16602C11.9993 2.95014 10.2152 1.16602 7.99935 1.16602ZM7.99935 2.49935C9.51681 2.49935 10.666 3.64856 10.666 5.16602V5.83268H5.33268V5.16602C5.33268 3.64856 6.48189 2.49935 7.99935 2.49935ZM7.99935 9.16602C8.73268 9.16602 9.33268 9.76602 9.33268 10.4993C9.33268 11.2327 8.73268 11.8327 7.99935 11.8327C7.26602 11.8327 6.66602 11.2327 6.66602 10.4993C6.66602 9.76602 7.26602 9.16602 7.99935 9.16602Z" fill="black"/>
</svg>
