<svg width="101" height="100" viewBox="0 0 101 100" fill="none" xmlns="http://www.w3.org/2000/svg">
<g clip-path="url(#clip0_620_62647)">
<path opacity="0.3" d="M82.1146 46.4223C85.8927 42.8316 87.8802 37.1066 87.4615 31.0441L87.4677 27.6629C87.4709 23.7098 87.4771 19.6254 87.5677 15.691C87.6428 13.3441 86.7365 10.966 85.074 9.23477C83.4084 7.49414 81.0834 6.49414 78.6959 6.49414H78.6334L54.2303 6.00039C52.1146 5.95039 49.7084 5.90664 47.1959 5.85977C41.3709 5.75352 34.7709 5.63164 29.8709 5.41289C29.7865 5.40664 29.5678 5.40039 29.3521 5.40039C26.7084 5.40039 24.2334 6.46602 22.3834 8.39727C20.599 10.2598 19.5865 12.791 19.5771 15.391L19.0146 24.8535L19.0115 24.9348L19.0084 25.016C18.9896 25.5941 18.9646 26.1754 18.9365 26.7629C18.7865 30.0223 18.6178 33.716 19.5771 37.4535C20.7459 42.341 27.1271 43.5535 32.3615 47.1316C34.6021 48.791 36.6396 50.7504 38.8771 52.9566C40.5178 54.5629 39.5365 58.566 41.8021 58.566H41.8584H41.9646C42.349 58.5598 42.7303 58.5504 43.1115 58.5441L42.9771 58.9566H35.249C31.2521 58.9566 27.7396 61.541 26.5053 65.3879C25.2709 69.2316 28.0803 72.6254 31.3209 75.0004L36.099 80.3785L33.7084 87.8223C32.474 91.6723 33.8178 95.8504 37.0553 98.2223C38.6271 99.3848 40.499 100 42.4521 100C44.4053 100 46.2771 99.3848 47.8584 98.2191L54.1084 93.6254L60.3646 98.2223C61.9428 99.3816 63.8115 100 65.7678 100C67.724 100 69.5928 99.3848 71.174 98.2191C74.399 95.8535 75.7459 91.6754 74.5115 87.8254L72.1209 80.3816L78.374 75.7848C81.6052 73.416 82.949 69.2348 81.7115 65.3879C80.4802 61.5441 76.9646 58.9598 72.9709 58.9598H65.2428L65.1021 58.5254L66.3146 58.5348C68.6928 58.5348 70.8678 57.6348 72.5084 55.9973C72.899 55.6129 74.1803 54.3348 78.9615 49.5691L82.1146 46.4223Z" fill="black"/>
<path d="M78.9896 43.2973C82.7677 39.7066 84.7552 33.9816 84.3365 27.9191L84.3427 24.5379C84.3459 20.5848 84.3521 16.5004 84.4427 12.566C84.5178 10.2191 83.6115 7.84102 81.949 6.10977C80.2834 4.36914 77.9584 3.36914 75.5709 3.36914H75.5084L51.1053 2.87539C48.9896 2.82539 46.5834 2.78164 44.0709 2.73477C38.2459 2.62852 31.6459 2.50664 26.7459 2.28789C26.6615 2.28164 26.4428 2.27539 26.2271 2.27539C23.5834 2.27539 21.1084 3.34102 19.2584 5.27227C17.474 7.13477 16.4615 9.66602 16.4521 12.266L15.8896 21.7285L15.8865 21.8098L15.8834 21.891C15.8646 22.4691 15.8396 23.0504 15.8115 23.6379C15.6615 26.8973 15.4928 30.591 16.4521 34.3285C17.6209 39.216 20.8771 43.5535 26.1115 47.1316C28.3521 48.791 30.3896 50.7504 32.6271 52.9566C34.2678 54.5629 36.4115 55.441 38.6771 55.441H38.7334H38.8396C39.224 55.4348 39.6053 55.4254 39.9865 55.4191L39.8521 55.8316H32.124C28.1271 55.8316 24.6146 58.416 23.3803 62.2629C22.1459 66.1098 23.4865 70.291 26.7271 72.6629L32.9709 77.2535L30.5803 84.6973C29.3459 88.5473 30.6896 92.7254 33.9271 95.0973C35.5021 96.2598 37.374 96.8754 39.3271 96.8754C41.2803 96.8754 43.1521 96.2598 44.7334 95.0941L50.9834 90.5004L57.2396 95.0973C58.8178 96.2566 60.6865 96.8754 62.6428 96.8754C64.599 96.8754 66.4678 96.2598 68.049 95.0941C71.274 92.7285 72.6209 88.5504 71.3865 84.7004L68.9959 77.2566L75.249 72.6598C78.4802 70.291 79.824 66.1098 78.5865 62.2629C77.3552 58.4191 73.8396 55.8348 69.8459 55.8348H62.1178L61.9771 55.4004L63.1896 55.4098C65.5678 55.4098 67.7428 54.5098 69.3834 52.8723C69.774 52.4879 71.0553 51.2098 75.8365 46.4441L78.9896 43.2973Z" fill="white"/>
<path d="M77.9449 12.4995C77.9981 10.8964 76.6668 9.58078 75.0699 9.62453L50.0699 9.12765C42.7418 8.96203 32.2824 8.84953 25.0699 8.53078C22.8137 8.38078 21.0324 10.2808 21.1012 12.4995L20.5168 22.2527C20.3981 25.7745 20.0043 29.562 20.9012 33.0089C21.8824 37.062 24.9856 40.1495 28.2887 42.362C30.9793 44.3152 33.3543 46.5839 35.7106 48.8745C36.1918 49.3402 36.8512 49.6214 37.5731 49.6058C41.0106 49.537 44.4481 49.4714 47.8856 49.4714C47.5449 49.812 47.2574 50.2058 47.1012 50.6839L43.2574 62.4995H30.8356C29.4793 62.4995 28.2824 63.3714 27.8637 64.6589C27.4449 65.9433 27.9043 67.3558 28.9981 68.1495L39.0481 75.4527L35.2074 87.2714C34.7887 88.5589 35.2481 89.9683 36.3418 90.762C37.4418 91.562 38.9168 91.562 40.0168 90.762L50.0699 83.462L60.1231 90.7652C60.6731 91.1652 61.3168 91.362 61.9606 91.362C62.6043 91.362 63.2481 91.1652 63.7981 90.7652C64.8949 89.9714 65.3512 88.562 64.9324 87.2745L61.0918 75.4558L71.1418 68.1527C72.2387 67.3589 72.6949 65.9464 72.2762 64.662C71.8606 63.3714 70.6606 62.4995 69.3043 62.4995H56.8824L53.0418 50.687C52.8887 50.2152 52.6043 49.8245 52.2699 49.4839L62.5699 49.5714C63.2449 49.5745 63.9293 49.3214 64.4481 48.812C64.4793 48.7839 74.2762 39.1339 74.3074 39.1027C77.1887 36.4339 78.1356 31.9933 77.8356 28.3464C77.8512 23.0964 77.8231 17.7433 77.9449 12.4995ZM60.7418 43.7495C60.7512 43.9183 60.8074 44.0495 60.8512 44.1902C58.0574 44.2152 54.9512 44.2464 51.7731 44.2652C51.8324 44.0995 51.8918 43.9308 51.9012 43.7464C51.9012 43.7464 52.3074 33.9464 52.6637 25.3214C52.8168 21.6339 52.9574 18.1995 53.0574 15.7995C55.2137 15.762 57.3387 15.7245 59.4512 15.6902L60.7418 43.7495ZM29.6231 22.2527L29.2668 16.3245C30.9824 16.2714 32.7606 16.2214 34.5981 16.1745L35.6168 40.7495C33.7606 38.6464 32.0106 36.437 30.6981 34.0495C29.1418 30.2808 30.0668 26.1839 29.6231 22.2527ZM39.2918 44.1902C39.3356 44.0464 39.3918 43.9089 39.3981 43.7527C39.3981 43.7527 39.8043 33.9527 40.1606 25.3277C40.3074 21.762 40.4449 18.4277 40.5449 16.0402C42.6981 15.9964 44.8731 15.9527 47.0824 15.912L48.2418 43.7495C48.2512 43.937 48.3074 44.1089 48.3668 44.2808C45.1762 44.2839 42.0699 44.262 39.2918 44.1902ZM54.6106 68.7495H59.6887L55.5824 71.7339C54.4856 72.5277 54.0293 73.9402 54.4481 75.2245L56.0168 80.0558L51.9106 77.0714C51.3606 76.6714 50.7168 76.4745 50.0731 76.4745C49.4293 76.4745 48.7856 76.6714 48.2356 77.0714L44.1293 80.0558L45.6981 75.2245C46.1168 73.9402 45.6574 72.5277 44.5637 71.7339L40.4512 68.7495H45.5293C46.8856 68.7495 48.0824 67.8777 48.5012 66.5902L50.0699 61.762L51.6387 66.5902C52.0574 67.8777 53.2574 68.7495 54.6106 68.7495ZM70.3418 35.137L64.5262 41.0433C64.6699 37.9214 64.9168 32.5808 65.1481 27.5839C65.4324 21.3214 65.6949 15.6245 65.6949 15.6245C65.6949 15.6089 65.6856 15.5964 65.6856 15.5808C67.9606 15.537 70.1387 15.4902 72.2262 15.4433C72.2856 19.7402 72.2793 24.0714 72.3012 28.3495C72.3949 31.0495 72.2543 33.2683 70.3418 35.137Z" fill="black"/>
</g>
<defs>
<clipPath id="clip0_620_62647">
<rect width="100" height="100" fill="white" transform="translate(0.0703125)"/>
</clipPath>
</defs>
</svg>
