<svg width="24" height="25" viewBox="0 0 24 25" fill="none" xmlns="http://www.w3.org/2000/svg">
<path d="M20 4.5H4C2.897 4.5 2 5.397 2 6.5V18.5C2 19.603 2.897 20.5 4 20.5H20C21.103 20.5 22 19.603 22 18.5V6.5C22 5.397 21.103 4.5 20 4.5ZM13.847 11.347L11.542 13.213L12.311 16.049C12.408 16.403 12.021 16.695 11.7 16.512L9.012 14.973L6.37 16.524C6.057 16.708 5.672 16.434 5.751 16.082L6.388 13.211L4.149 11.344C3.867 11.108 4.012 10.653 4.379 10.62L7.418 10.341L8.63 7.661C8.777 7.336 9.242 7.336 9.39 7.661L10.602 10.341L13.62 10.618C13.992 10.653 14.135 11.113 13.847 11.347ZM15 16.5C14.448 16.5 14 16.052 14 15.5C14 14.948 14.448 14.5 15 14.5C15.552 14.5 16 14.948 16 15.5C16 16.052 15.552 16.5 15 16.5ZM19 16.5C18.448 16.5 18 16.052 18 15.5C18 14.948 18.448 14.5 19 14.5C19.552 14.5 20 14.948 20 15.5C20 16.052 19.552 16.5 19 16.5Z" fill="black"/>
</svg>
