<svg width="25" height="24" viewBox="0 0 25 24" fill="none" xmlns="http://www.w3.org/2000/svg">
  <path
    d="M16.9062 1H7.90625C6.52625 1 5.40625 2.12 5.40625 3.5V20.5C5.40625 21.88 6.52625 23 7.90625 23H16.9062C18.2863 23 19.4062 21.88 19.4062 20.5V3.5C19.4062 2.12 18.2863 1 16.9062 1ZM12.4062 21.125C11.7843 21.125 11.2812 20.622 11.2812 20C11.2812 19.378 11.7843 18.875 12.4062 18.875C13.0282 18.875 13.5312 19.378 13.5312 20C13.5312 20.622 13.0282 21.125 12.4062 21.125ZM16.4062 18H8.40625C7.85425 18 7.40625 17.552 7.40625 17V5C7.40625 4.448 7.85425 4 8.40625 4H16.4062C16.9583 4 17.4062 4.448 17.4062 5V17C17.4062 17.552 16.9583 18 16.4062 18Z"
    fill="black" />
</svg>