<svg width="128" height="128" viewBox="0 0 128 128" fill="none" xmlns="http://www.w3.org/2000/svg">
<path opacity="0.3" d="M121.923 51.116C119.619 48.596 116.079 47.092 112.447 47.092C111.959 47.092 111.475 47.12 110.999 47.176C109.399 47.296 107.787 47.456 106.175 47.652C107.231 45.096 107.915 42.412 108.139 39.792C108.523 33.592 106.507 27.948 102.471 23.712C98.4115 19.456 92.6835 17.012 86.7475 17.012C81.3835 17.012 76.4875 18.94 72.6755 22.44C69.1555 11.188 59.6995 4 48.2035 4C35.2835 4 24.6795 12.976 22.3555 25.856L18.8515 41.952C18.6315 43.024 18.5595 44.1 18.6275 45.156C15.7795 45.84 13.1955 47.408 11.2515 49.684C8.62748 52.756 7.51548 56.772 8.19548 60.7L14.0875 97.148C14.8715 103.132 20.0075 107.616 26.1355 107.616C32.2195 107.688 37.9155 108.804 42.9755 110.936C47.8355 112.948 52.0755 115.6 56.6395 119.496C56.7195 119.6 56.8075 119.704 56.8995 119.812C59.1235 122.432 62.4635 123.968 66.0395 123.996C66.1555 124 66.2755 124 66.3395 124C67.4715 124 68.6035 123.84 69.7155 123.528C72.7075 122.844 75.2795 121.12 76.9675 118.712C81.1995 115.224 85.1435 112.808 89.6235 110.956C94.7395 108.804 100.471 107.684 106.711 107.616C112.603 107.432 117.479 103.252 118.475 97.68C120.507 86.312 122.199 73.852 123.955 57.284C124.195 55.032 123.455 52.796 121.923 51.116Z" fill="black"/>
<path d="M117.923 47.116C115.619 44.596 112.079 43.092 108.447 43.092C107.959 43.092 107.475 43.12 106.999 43.176C105.399 43.296 103.787 43.456 102.175 43.652C103.231 41.096 103.915 38.412 104.139 35.792C104.523 29.592 102.507 23.948 98.4715 19.712C94.4115 15.456 88.6835 13.012 82.7475 13.012C77.3835 13.012 72.4875 14.94 68.6755 18.44C65.1555 7.188 55.6995 0 44.2035 0C31.2835 0 20.6795 8.976 18.3555 21.856L14.8515 37.956C14.6355 39.028 14.5595 40.104 14.6275 41.16C11.7795 41.844 9.19548 43.412 7.25148 45.688C4.62748 48.76 3.51548 52.776 4.19548 56.704L10.0875 93.152C10.8715 99.136 16.0075 103.62 22.1355 103.62C28.2195 103.692 33.9155 104.808 38.9755 106.94C43.8355 108.952 48.0755 111.604 52.6395 115.5C52.7195 115.604 52.8075 115.708 52.8995 115.816C55.1235 118.436 58.4635 119.972 62.0395 120C62.1555 120 62.2755 120 62.3395 120C63.4715 120 64.6035 119.84 65.7155 119.528C68.7075 118.844 71.2795 117.12 72.9675 114.712C77.1995 111.224 81.1435 108.808 85.6235 106.956C90.7395 104.804 96.4715 103.684 102.711 103.616C108.603 103.432 113.479 99.252 114.475 93.68C116.507 82.312 118.199 69.852 119.955 53.284C120.195 51.032 119.455 48.796 117.923 47.116Z" fill="white"/>
<path d="M107.002 50.3562C101.598 50.7562 96.1936 51.6282 90.8896 52.9082C89.8056 51.3042 89.3736 49.1682 89.5976 46.5362C92.8536 43.3602 95.0136 38.4882 95.3616 34.3082C96.2016 20.4602 78.2416 14.5402 71.0216 26.6002C67.6216 32.6562 69.3496 39.9282 73.5696 44.9842C73.5056 45.2282 73.4416 51.4842 72.0536 53.2682C71.2816 54.2602 70.3256 54.8882 69.4656 55.3002C66.4696 53.7362 63.1736 52.6802 59.9936 52.6762C58.4376 52.3762 56.1296 53.5642 55.7056 51.4242L55.4056 44.1282L61.5136 43.5962C63.8896 43.3882 65.5576 41.1642 65.0896 38.8282L60.8416 20.8922L60.8096 21.0082C55.7056 1.02017 29.3736 3.28017 26.0576 22.5002L22.5456 38.8362C22.0776 41.1722 23.7456 43.4002 26.1216 43.6042L31.7496 44.0922C31.6896 45.9242 31.5976 48.9362 31.5576 50.1922C31.5496 50.2802 31.5496 50.4242 31.5456 50.5882C27.2376 49.4082 22.8136 48.5322 18.2616 48.0042C14.5856 47.6762 11.4056 50.9602 12.0376 54.6362L17.9256 91.4922C18.1456 93.5162 19.8616 95.1282 21.9656 95.1242C28.7616 95.2042 35.5336 96.4282 41.8056 99.1002C48.0856 101.728 53.1936 105.2 58.3576 109.796C58.4416 109.924 58.4736 110.068 58.5736 110.188C59.3776 111.144 60.5216 111.584 61.6776 111.58C62.1616 111.604 62.6376 111.516 63.1056 111.38C64.4776 111.164 65.6376 110.324 66.1736 109.088C71.0536 104.86 75.9416 101.588 81.8776 99.1002C88.1856 96.4122 94.9976 95.2002 101.834 95.1202C103.726 95.0602 105.382 93.6842 105.722 91.7482C108.062 78.4962 109.722 64.6962 111.082 51.7162C110.174 50.7162 108.402 50.1402 107.002 50.3562ZM46.2456 19.5562C48.3536 22.0562 50.8736 24.5242 53.4696 25.9602C53.5336 26.3842 53.6336 26.7642 53.6696 27.2202C53.7736 33.3242 51.6216 43.3722 44.8016 45.2082C37.2816 46.2482 34.2936 35.4882 33.8016 29.6202C33.7296 28.8282 33.7456 28.1002 33.7656 27.3722C37.5696 26.3242 43.0856 24.0842 46.2456 19.5562ZM58.5016 99.4122C51.1856 93.9802 42.5496 89.8442 33.6696 88.1762C31.0816 87.6042 28.4496 87.3322 25.8136 87.1722L24.3616 60.5642C33.1416 61.6842 42.0536 64.3762 49.7776 68.4482C52.8856 70.0002 55.7176 71.9762 58.5016 74.0322V99.4122ZM81.6576 31.3162C83.7656 33.8082 86.2776 36.2602 88.8656 37.6802C87.1576 47.7962 77.9496 49.6242 75.5056 37.0402C77.7176 35.5802 79.8416 33.4682 81.6576 31.3162ZM98.2896 87.1562C86.9336 87.7882 75.7936 91.9602 66.5016 98.4922V72.9682C77.3456 64.6242 90.9256 60.2242 104.506 58.7802C102.118 68.4882 99.9776 77.6922 98.2896 87.1562Z" fill="black"/>
</svg>
