<svg width="75" height="74" viewBox="0 0 75 74" fill="none" xmlns="http://www.w3.org/2000/svg">
<g clip-path="url(#clip0_620_62562)">
<path opacity="0.3" d="M73.5021 27.248C72.5331 24.7713 70.2947 23.2312 67.5173 23.1271C67.4618 23.1248 67.4087 23.1248 67.3532 23.1248C67.33 23.1248 67.3069 23.1248 67.2815 23.1248C64.9204 23.1641 61.6621 23.1988 58.3598 23.2335C55.6242 23.2635 52.8561 23.2913 50.539 23.3237C48.6728 19.996 47.2205 16.3908 46.0273 12.1589C45.4815 9.92041 42.584 2.52734 36.9276 2.52734C35.5678 2.52734 33.001 3.00603 31.0885 6.22041C31.0284 6.31984 30.9752 6.42159 30.922 6.52566C28.6442 11.153 26.4982 16.1457 24.0262 22.5744C23.9614 22.5837 23.9013 22.5906 23.8435 22.5998C18.6288 23.1363 13.1135 23.7792 8.02597 24.8291C7.33453 24.9493 5.85453 25.2384 4.5549 26.3947C4.49015 26.4525 4.42772 26.5126 4.36528 26.5727C2.86215 28.0782 2.14759 30.0068 2.35572 32.0002C2.78584 36.1465 6.98765 38.8914 9.49672 40.531C9.79272 40.7252 10.0448 40.8848 10.2159 41.012C10.2691 41.0513 10.3246 41.0906 10.3801 41.1276C12.5007 42.5405 14.6328 44.4483 16.7094 46.3562C15.9648 49.9151 15.0028 53.9088 14.0662 57.7961C13.4973 60.1548 12.9493 62.4303 12.4845 64.4746C11.5248 66.3084 11.4878 68.5053 12.4359 70.4408C13.5598 72.7348 15.8862 74.2172 18.3652 74.2172C19.6023 74.2172 20.8326 73.8541 21.9287 73.1696C27.4278 69.8488 32.365 65.58 37.1218 61.3758C42.5539 65.617 48.2126 69.865 54.5512 73.3153C54.8148 73.4587 55.0946 73.5766 55.3837 73.6622C55.9988 73.8472 56.637 73.942 57.2776 73.942C60.1983 73.942 62.7282 72.0596 63.5699 69.2568C63.5861 69.2013 63.6023 69.1458 63.6162 69.0903C64.7077 64.8585 63.3155 61.8522 62.298 59.6553C62.1755 59.3917 62.0506 59.1235 61.9303 58.8483C61.8679 58.7072 61.7985 58.5685 61.7199 58.4343C59.2987 54.2348 57.9066 50.4655 57.4117 46.7238C59.0351 45.4497 60.8296 44.187 62.6703 43.0262C62.7143 42.9984 62.7559 42.9707 62.7975 42.9429C63.4335 42.5105 64.2012 42.0827 65.0129 41.6294C67.0895 40.4708 69.4367 39.162 71.407 36.861C73.4674 34.6688 74.7948 30.5502 73.5021 27.248Z" fill="black"/>
<path d="M71.1873 24.7206C70.2183 22.2439 67.9798 20.7038 65.2025 20.5998C65.1493 20.5974 65.0938 20.5974 65.0383 20.5974C65.0152 20.5974 64.9921 20.5974 64.9667 20.5974C62.6056 20.6367 59.3473 20.6714 56.045 20.7061C53.3093 20.7362 50.5413 20.7639 48.2242 20.7963C46.358 17.4686 44.9057 13.8634 43.7125 9.63156C43.169 7.39306 40.2692 0 34.6128 0C33.253 0 30.6862 0.478688 28.7737 3.69306C28.7136 3.7925 28.6604 3.89425 28.6072 3.99831C26.3294 8.62562 24.1834 13.6183 21.7113 20.0471C21.6512 20.0563 21.5911 20.0656 21.531 20.0748C16.3163 20.6113 10.801 21.2542 5.71347 22.3041C5.02203 22.4243 3.54203 22.7134 2.2424 23.8696C2.17765 23.9274 2.11522 23.9876 2.05278 24.0477C0.549654 25.5531 -0.164909 27.4818 0.0432164 29.4751C0.473341 33.6214 4.67515 36.3664 7.18422 38.0059C7.48022 38.2002 7.73228 38.3597 7.9034 38.4869C7.95659 38.5262 8.01209 38.5656 8.06759 38.6026C10.1882 40.0155 12.3203 41.9233 14.3969 43.8311C13.6546 47.3878 12.6926 51.3814 11.756 55.2687C11.1872 57.6275 10.6391 59.903 10.1743 61.9473C9.21459 63.7811 9.17759 65.9779 10.1257 67.9135C11.2473 70.2052 13.576 71.6875 16.055 71.6875C17.2922 71.6875 18.5224 71.3244 19.6185 70.6399C25.1177 67.3192 30.0548 63.0503 34.8117 58.8462C40.2437 63.0873 45.9024 67.3354 52.241 70.7856C52.5046 70.929 52.7844 71.0469 53.0735 71.1325C53.6886 71.3175 54.3268 71.4123 54.9674 71.4123C57.8881 71.4123 60.418 69.5299 61.2597 66.7272C61.2759 66.6717 61.2921 66.6162 61.306 66.5607C62.3975 62.3288 61.0053 59.3226 59.9878 57.1257C59.8653 56.8621 59.7404 56.5938 59.6202 56.3186C59.5577 56.1776 59.4883 56.0388 59.4097 55.9047C56.9885 51.7052 55.5964 47.9358 55.1015 44.1942C56.7249 42.92 58.5194 41.6574 60.3602 40.4965C60.4041 40.4687 60.4457 40.441 60.4873 40.4132C61.1233 39.9808 61.891 39.553 62.7027 39.0998C64.7793 37.9412 67.1265 36.6323 69.0968 34.3314C71.1526 32.1391 72.48 28.0229 71.1873 24.7206Z" fill="white"/>
<path d="M65.0407 24.6399C60.011 24.7208 50.9368 24.7879 45.9811 24.8757C45.9256 24.8804 45.8863 24.8781 45.8377 24.8804C45.8308 24.8665 45.8261 24.8619 45.8192 24.848C42.9748 20.3432 41.0439 15.6373 39.5917 10.4666C38.9812 8.58418 37.9914 5.82537 35.7506 4.34537C34.4672 3.68862 32.9409 4.35693 32.4275 5.67506C30.0665 10.4041 28.0199 15.2419 26.1028 20.1536C25.7976 20.9422 25.0784 22.8431 24.7015 23.7935C23.9407 23.8744 22.2872 24.0155 22.16 24.0247C17.0841 24.552 11.5063 25.2064 6.52521 26.2725C6.03728 26.3604 5.51928 26.4714 5.12153 26.8136C1.92103 29.9563 8.77759 33.6193 10.4333 34.838C13.4465 36.8522 16.3996 39.7243 19.0012 42.0992C17.8079 48.3985 15.6619 56.6796 14.2975 62.7961L14.1796 63.2725L14.1495 63.3904C14.1542 63.3858 14.1472 63.4066 14.1403 63.4297C13.6038 64.2067 13.4951 65.2451 14.064 66.0984C14.9011 67.3564 16.2955 67.4049 17.3685 66.7597L17.3847 66.7875C23.5822 63.0505 29.2016 57.8797 34.6522 53.079C40.8751 57.963 47.179 62.9603 54.3084 66.8291C59.2294 67.5437 57.2268 60.2038 55.7306 57.8266C52.951 52.8986 50.7472 47.5822 50.7518 42.1362C52.8191 40.0735 55.6242 38.3021 58.0916 36.6672C60.5868 34.9698 63.7688 33.8459 65.9449 31.2421C67.5405 29.5956 68.6436 24.7786 65.0407 24.6399ZM14.353 63.1384C14.5357 62.9002 14.7785 62.6874 15.0422 62.6019L15.0468 62.6088C14.7762 62.7452 14.5473 62.9279 14.353 63.1384ZM50.5344 36.0613C49.1492 37.1921 47.7432 37.9784 46.654 39.6411C45.4677 41.4286 45.9649 43.9076 46.2008 45.5703C46.8298 50.2624 48.7723 55.225 51.0385 59.258C45.9002 55.854 40.9653 51.9875 36.0535 48.0933C35.1725 47.3717 33.8682 47.3764 32.9895 48.158C29.264 51.4047 25.2888 55.0608 21.1888 58.2752C22.4237 54.6006 23.573 50.8983 24.5488 47.1336C24.942 45.0384 26.1676 42.4762 25.5386 40.0481C25.1247 38.8479 24.2667 37.9344 23.5105 37.2707C20.502 34.8657 17.6414 32.9533 14.4386 31.1496C15.4376 31.1357 16.4412 31.138 17.4379 31.0987L22.6896 30.8605C24.2667 30.7148 25.9086 30.8004 27.5759 30.2107C29.8445 29.4961 31.0493 26.9223 31.6135 24.959C32.9733 21.0532 34.2521 17.1081 35.3898 13.1259C35.7853 14.4441 36.1946 15.8639 36.7311 17.2098C38.1833 21.0601 39.9663 24.7023 42.2487 28.1433C42.4961 28.474 42.9494 28.9758 43.6339 29.3019C45.0191 29.8661 45.6712 29.621 46.0389 29.6742L48.7607 29.6395C51.2698 29.6094 56.5608 29.5424 60.751 29.4915C60.6793 29.5401 60.6123 29.5932 60.5406 29.6418C57.3956 31.4733 53.543 33.7118 50.5344 36.0613Z" fill="black"/>
</g>
<defs>
<clipPath id="clip0_620_62562">
<rect width="74" height="74" fill="white" transform="translate(0.0117188)"/>
</clipPath>
</defs>
</svg>
