<svg width="128" height="128" viewBox="0 0 128 128" fill="none" xmlns="http://www.w3.org/2000/svg">
<path opacity="0.3" d="M117.295 52.792C114.515 48.028 108.731 45.856 104.483 45.856C104.115 45.856 103.755 45.872 103.403 45.9L101.779 45.912L99.9226 45.924H99.6586L87.5706 45.984L82.1706 46.012C82.4026 43.012 82.6746 40.032 82.9386 37.112C83.4226 31.756 83.9226 26.22 84.2026 20.684L84.2146 20.452L84.2106 20.22C84.1106 10.82 76.5826 4 66.3026 4C65.7626 4 65.2186 4.02 64.6786 4.06C63.8866 4.128 63.2866 4.132 62.7346 4.132H62.2626H61.7626C58.9626 4.132 55.8706 4.332 51.5466 6.708L51.2386 6.872L50.9466 7.072C45.2586 10.916 45.0466 17.296 44.9466 20.364L44.9306 20.872L44.9266 20.968V21.064L44.8466 26.888C44.8306 33.248 45.1746 39.908 45.9146 47.428C42.3946 47.324 38.8626 47.18 35.3906 47.04C32.7466 46.932 30.1066 46.824 27.4826 46.732C26.3626 46.6 25.0586 46.476 23.6586 46.476C14.8466 46.476 11.1946 51.496 9.79864 54.488C7.51864 59.536 7.94263 64.536 8.25063 68.188C8.30263 68.804 8.35464 69.408 8.39063 69.996L8.39863 70.16L8.41464 70.324L8.44264 70.616C8.56264 71.96 8.79063 74.448 10.3546 77.432C14.1226 84.872 22.1786 84.872 24.8306 84.872C25.3826 84.872 25.9346 84.86 26.4706 84.852C26.8786 84.844 27.2786 84.836 27.6586 84.836C27.8506 84.836 28.0306 84.836 28.2106 84.844L28.3906 84.852H28.5706C34.3506 84.824 40.2346 84.632 46.1426 84.28C46.0666 86.008 45.9826 87.888 45.8946 89.836C45.5306 97.9 45.1186 107.044 45.1626 111.592L45.1666 111.864L45.1906 112.136C45.9066 121.032 53.6826 128 62.8906 128C66.2466 128 69.4626 127.024 72.2066 125.18C79.8426 120.428 80.3346 112.016 80.6266 106.976L80.6826 106.036C81.0146 101 81.0826 94.548 81.1426 88.856C81.1626 86.884 81.1826 84.988 81.2146 83.26L94.9466 83.348C94.9546 83.348 104.619 83.396 106.215 83.404H106.235L106.603 83.408C110.131 83.408 114.787 81.636 117.235 77.676L117.367 77.464L117.483 77.244C119.191 74.032 119.455 72.152 119.607 70.196C119.631 69.892 119.651 69.544 119.743 69.064L119.859 68.468L119.879 67.86L119.919 66.828C120.079 62.964 120.299 57.68 117.295 52.792Z" fill="black"/>
<path d="M113.295 48.792C110.515 44.028 104.731 41.856 100.483 41.856C100.115 41.856 99.7546 41.872 99.4026 41.9L97.7786 41.912L95.9226 41.924H95.6586L83.5706 41.984L78.1706 42.012C78.4026 39.012 78.6746 36.032 78.9386 33.112C79.4226 27.756 79.9226 22.22 80.2026 16.684L80.2146 16.452L80.2106 16.22C80.1106 6.82 72.5826 0 62.3026 0H62.2986C61.7586 0 61.2186 0.02 60.6786 0.06C59.8866 0.128 59.2866 0.132 58.7346 0.132H58.2626H57.7626C54.9626 0.132 51.8706 0.332 47.5466 2.708L47.2386 2.872L46.9466 3.072C41.2586 6.916 41.0466 13.296 40.9466 16.364L40.9306 16.872L40.9266 16.968V17.064L40.8466 22.888C40.8306 29.248 41.1746 35.908 41.9146 43.428C38.3946 43.324 34.8626 43.18 31.3906 43.04C28.7466 42.932 26.1066 42.824 23.4826 42.732C22.3626 42.6 21.0586 42.476 19.6586 42.476C10.8466 42.476 7.19463 47.496 5.79864 50.488C3.51864 55.536 3.94263 60.536 4.25063 64.188C4.30263 64.804 4.35464 65.408 4.39063 65.996L4.39863 66.16L4.41463 66.324L4.44263 66.616C4.56263 67.96 4.79063 70.448 6.35463 73.432C10.1226 80.872 18.1786 80.872 20.8306 80.872C21.3826 80.872 21.9346 80.86 22.4706 80.852C22.8786 80.844 23.2786 80.836 23.6586 80.836C23.8506 80.836 24.0306 80.836 24.2106 80.844L24.3906 80.852H24.5706C30.3506 80.824 36.2346 80.632 42.1426 80.28C42.0666 82.008 41.9826 83.888 41.8946 85.836C41.5306 93.9 41.1186 103.044 41.1626 107.592L41.1666 107.864L41.1906 108.136C41.9066 117.032 49.6826 124 58.8906 124C62.2466 124 65.4626 123.024 68.2066 121.18C75.8426 116.428 76.3346 108.016 76.6266 102.976L76.6826 102.036C77.0146 97 77.0826 90.548 77.1426 84.856C77.1626 82.884 77.1826 80.988 77.2146 79.26L90.9466 79.348C90.9546 79.348 100.619 79.396 102.215 79.404H102.235L102.603 79.408C106.131 79.408 110.787 77.636 113.235 73.676L113.367 73.464L113.483 73.244C115.191 70.032 115.455 68.152 115.607 66.196C115.631 65.892 115.651 65.544 115.743 65.064L115.859 64.468L115.879 63.86L115.919 62.828C116.079 58.964 116.299 53.68 113.295 48.792Z" fill="white"/>
<path d="M109.144 55.3361C108.696 51.5521 105.168 48.1721 101.216 48.1641L100.372 48.1521L94.6679 48.1001C88.1799 48.0361 78.8719 47.7201 72.2079 47.5521C72.7119 39.5361 73.2359 31.5121 73.1799 23.4681C73.1639 22.4681 73.1919 17.1481 73.1799 16.2921C73.5159 10.8041 68.6439 6.64008 63.3719 7.02408C57.8839 7.15608 50.0439 6.40008 49.1079 12.9201C48.9359 14.4281 48.9239 16.3681 48.8199 17.6681C48.3399 28.3201 48.6799 39.1761 49.9439 49.7561L49.9839 50.0961C40.7519 50.0721 31.3519 49.5401 22.1039 49.2001C20.4759 49.0081 17.6079 48.6761 15.4999 49.7641C13.7639 50.5401 12.4079 52.2361 11.8399 53.9481C10.7559 57.0561 11.1279 60.4601 11.3319 63.5881C11.7159 66.5681 11.2119 69.3441 14.7839 72.1961C16.6079 73.4641 18.4519 73.4641 20.0399 73.4801C29.8639 73.5481 39.8439 73.1801 49.6279 72.3441C49.4519 76.8881 48.5839 95.6841 48.4959 98.0481C48.4399 99.0241 48.2319 104.4 48.1759 105.236C47.2119 119.104 67.2599 121.612 69.5159 107.748C70.6959 98.1401 70.4279 87.0081 70.6559 77.3321C70.6999 75.5121 70.7679 73.6961 70.9119 72.0481C76.4039 72.0881 94.7439 72.1841 98.0879 72.2121C98.9879 72.2321 101.512 72.2121 102.368 72.2361C102.78 72.1441 104.448 72.5761 106.764 70.8241C108.864 68.8081 108.692 67.2441 108.876 66.8841C109.624 63.0921 109.728 59.1601 109.144 55.3361ZM63.9359 17.1841C63.9039 17.1801 63.8799 17.1561 63.8479 17.1481C63.8639 17.1521 63.8799 17.1521 63.8919 17.1521C64.2239 17.2001 64.0279 17.1961 63.9359 17.1841ZM49.6559 71.4801C49.6559 71.4801 49.6519 71.2921 49.6559 71.4481C49.6599 71.4561 49.6559 71.4801 49.6559 71.4801ZM69.1279 62.9201C66.8879 63.1441 64.8319 64.3361 63.5279 66.0681C60.8439 70.2201 61.9719 73.1561 61.5519 77.1281C61.4039 85.8841 61.6359 96.6561 60.7799 105.248L60.6359 106.552C60.6039 106.696 60.5879 106.844 60.5319 106.972C59.9239 108.852 57.0879 108.312 57.0239 106.34C57.0279 104.952 57.2879 99.6721 57.3279 98.2201L58.2319 75.6241C58.2599 75.0401 58.3639 72.6481 58.3879 72.0921C58.7479 68.3961 56.2279 64.6281 52.5079 63.7361C51.7439 63.5081 50.2399 63.4441 49.6439 63.5441C41.6999 64.1881 33.7319 64.5361 25.7639 64.5721L20.3999 64.5521C20.2919 63.2761 20.2039 61.1601 20.0999 60.1921C20.0799 59.3801 20.1039 58.6761 20.1799 57.9841C28.9119 58.8761 41.0239 59.0761 50.7919 59.3001C54.5679 59.5961 58.2679 56.7921 59.0719 53.1801C59.4879 51.6761 59.2919 50.1521 59.1039 48.6961C58.1679 40.4081 57.7919 32.0281 57.9759 23.6921C58.0239 22.2961 58.1439 18.9801 58.2639 16.8081C59.6399 16.7601 61.0239 16.8321 62.3959 16.9841C61.2199 27.6921 60.7159 38.6161 60.4239 49.3721C60.2039 54.3521 64.6319 59.0161 69.7479 58.8361C71.1279 58.7841 81.6679 58.3481 83.3279 58.2801C88.6839 58.0281 94.5039 57.8521 99.9279 57.7441C100.124 59.4601 100.112 61.1841 99.9359 62.9081C93.0759 62.8961 74.9599 62.9161 69.1279 62.9201Z" fill="black"/>
</svg>
