<svg width="40" height="40" viewBox="0 0 40 40" fill="none" xmlns="http://www.w3.org/2000/svg">
<path d="M20.0001 1.66602C19.0801 1.66602 18.3334 2.41268 18.3334 3.33268V4.99935H21.6667V3.33268C21.6667 2.41268 20.9201 1.66602 20.0001 1.66602ZM21.6667 4.99935V6.66602C21.6667 7.58602 20.9201 8.33268 20.0001 8.33268C19.7701 8.33268 19.5517 8.28685 19.3523 8.20247C18.7542 7.94935 18.3334 7.35602 18.3334 6.66602V4.99935H10.0001C8.15841 4.99935 6.66675 6.49102 6.66675 8.33268V33.3327C6.66675 35.1743 8.15841 36.666 10.0001 36.666H30.0001C31.8417 36.666 33.3334 35.1743 33.3334 33.3327V8.33268C33.3334 6.49102 31.8417 4.99935 30.0001 4.99935H21.6667ZM20.0001 13.3327C22.3617 13.3327 24.1667 15.1377 24.1667 17.4993C24.1667 19.861 22.3617 21.666 20.0001 21.666C17.6384 21.666 15.8334 19.861 15.8334 17.4993C15.8334 15.1377 17.6384 13.3327 20.0001 13.3327ZM20.0001 23.3327C24.5517 23.3327 28.3334 25.3527 28.3334 28.2611V28.8893C28.3334 29.5027 27.8667 29.9993 27.2917 29.9993H12.7084C12.1334 29.9993 11.6667 29.5011 11.6667 28.8861V28.2578C11.6667 25.3511 15.4484 23.3327 20.0001 23.3327Z" fill="black"/>
</svg>
