<svg width="40" height="40" viewBox="0 0 40 40" fill="none" xmlns="http://www.w3.org/2000/svg">
<path d="M13.3332 3.33415C10.5907 3.33415 8.33317 5.59173 8.33317 8.33415V35.0008C8.33005 35.2217 8.37085 35.4409 8.45321 35.6459C8.53557 35.8508 8.65783 36.0374 8.81291 36.1947C8.96798 36.3519 9.15277 36.4768 9.35653 36.5621C9.56029 36.6473 9.77897 36.6912 9.99984 36.6912C10.2207 36.6912 10.4394 36.6473 10.6432 36.5621C10.8469 36.4768 11.0317 36.3519 11.1868 36.1947C11.3418 36.0374 11.4641 35.8508 11.5465 35.6459C11.6288 35.4409 11.6696 35.2217 11.6665 35.0008V8.33415C11.6665 7.40991 12.4089 6.66748 13.3332 6.66748C13.554 6.67061 13.7733 6.62981 13.9782 6.54745C14.1832 6.46509 14.3697 6.34283 14.527 6.18775C14.6843 6.03268 14.8092 5.84789 14.8944 5.64413C14.9797 5.44037 15.0236 5.22169 15.0236 5.00082C15.0236 4.77994 14.9797 4.56127 14.8944 4.35751C14.8092 4.15375 14.6843 3.96896 14.527 3.81388C14.3697 3.65881 14.1832 3.53654 13.9782 3.45419C13.7733 3.37183 13.554 3.33103 13.3332 3.33415ZM33.3332 3.33415C30.5907 3.33415 28.3332 5.59173 28.3332 8.33415V10.0008H14.9998C14.779 9.99769 14.5597 10.0385 14.3548 10.1209C14.1498 10.2032 13.9633 10.3255 13.806 10.4806C13.6487 10.6356 13.5238 10.8204 13.4386 11.0242C13.3533 11.2279 13.3094 11.4466 13.3094 11.6675C13.3094 11.8884 13.3533 12.107 13.4386 12.3108C13.5238 12.5146 13.6487 12.6993 13.806 12.8544C13.9633 13.0095 14.1498 13.1318 14.3548 13.2141C14.5597 13.2965 14.779 13.3373 14.9998 13.3342H28.3332V16.6675H14.9998C14.779 16.6644 14.5597 16.7052 14.3548 16.7875C14.1498 16.8699 13.9633 16.9921 13.806 17.1472C13.6487 17.3023 13.5238 17.4871 13.4386 17.6908C13.3533 17.8946 13.3094 18.1133 13.3094 18.3342C13.3094 18.555 13.3533 18.7737 13.4386 18.9775C13.5238 19.1812 13.6487 19.366 13.806 19.5211C13.9633 19.6762 14.1498 19.7984 14.3548 19.8808C14.5597 19.9631 14.779 20.0039 14.9998 20.0008H28.3332V23.3342H14.9998C14.779 23.331 14.5597 23.3718 14.3548 23.4542C14.1498 23.5365 13.9633 23.6588 13.806 23.8139C13.6487 23.969 13.5238 24.1537 13.4386 24.3575C13.3533 24.5613 13.3094 24.7799 13.3094 25.0008C13.3094 25.2217 13.3533 25.4404 13.4386 25.6441C13.5238 25.8479 13.6487 26.0327 13.806 26.1878C13.9633 26.3428 14.1498 26.4651 14.3548 26.5474C14.5597 26.6298 14.779 26.6706 14.9998 26.6675H28.3332V30.0008H14.9998C14.779 29.9977 14.5597 30.0385 14.3548 30.1209C14.1498 30.2032 13.9633 30.3255 13.806 30.4805C13.6487 30.6356 13.5238 30.8204 13.4386 31.0242C13.3533 31.2279 13.3094 31.4466 13.3094 31.6675C13.3094 31.8884 13.3533 32.107 13.4386 32.3108C13.5238 32.5146 13.6487 32.6993 13.806 32.8544C13.9633 33.0095 14.1498 33.1318 14.3548 33.2141C14.5597 33.2965 14.779 33.3373 14.9998 33.3341H28.3332V35.0008C28.3301 35.2217 28.3709 35.4409 28.4532 35.6459C28.5356 35.8508 28.6578 36.0374 28.8129 36.1947C28.968 36.3519 29.1528 36.4768 29.3565 36.5621C29.5603 36.6473 29.779 36.6912 29.9998 36.6912C30.2207 36.6912 30.4394 36.6473 30.6432 36.5621C30.8469 36.4768 31.0317 36.3519 31.1868 36.1947C31.3418 36.0374 31.4641 35.8508 31.5465 35.6459C31.6288 35.4409 31.6696 35.2217 31.6665 35.0008V31.9474C31.6963 31.7674 31.6963 31.5838 31.6665 31.4038V25.2808C31.6963 25.1008 31.6963 24.9171 31.6665 24.7371V18.6141C31.6963 18.4341 31.6963 18.2505 31.6665 18.0705V11.9474C31.6963 11.7674 31.6963 11.5838 31.6665 11.4038V8.33415C31.6665 7.40991 32.4089 6.66748 33.3332 6.66748C33.554 6.67061 33.7733 6.62981 33.9782 6.54745C34.1832 6.46509 34.3697 6.34283 34.527 6.18775C34.6843 6.03268 34.8092 5.84789 34.8944 5.64413C34.9797 5.44037 35.0236 5.22169 35.0236 5.00082C35.0236 4.77994 34.9797 4.56127 34.8944 4.35751C34.8092 4.15375 34.6843 3.96896 34.527 3.81388C34.3697 3.65881 34.1832 3.53654 33.9782 3.45419C33.7733 3.37183 33.554 3.33103 33.3332 3.33415Z" fill="black"/>
</svg>
