<svg width="40" height="40" viewBox="0 0 40 40" fill="none" xmlns="http://www.w3.org/2000/svg">
<path d="M36.12 21.5906L34.1217 18.3156L35.1167 14.609C35.3233 13.8373 34.9533 13.0273 34.235 12.6773L30.7833 11.0023L29.6167 7.34729C29.3733 6.58562 28.6233 6.10396 27.83 6.19896L24.02 6.65563L21.0617 4.21062C20.445 3.70063 19.555 3.70063 18.9383 4.21062L15.98 6.65563L12.17 6.19896C11.3767 6.10396 10.6267 6.58563 10.385 7.34563L9.21833 11.0006L5.765 12.6773C5.04667 13.0256 4.67667 13.8373 4.88333 14.609L5.87833 18.3156L3.88 21.5906C3.46333 22.2723 3.59 23.1556 4.18167 23.6923L7.02167 26.2723L7.11167 30.109C7.13 30.9073 7.71333 31.5806 8.50167 31.714L12.2867 32.349L14.4367 35.5273C14.885 36.189 15.74 36.4406 16.4733 36.1256L20 34.6123L23.5267 36.124C24.2617 36.439 25.1167 36.1873 25.5633 35.5256L27.7133 32.3473L31.4983 31.7123C32.2867 31.5806 32.87 30.9073 32.8883 30.1073L32.9783 26.2706L35.8183 23.6906C36.41 23.154 36.5367 22.2723 36.12 21.5906ZM24.9133 19.4706L20.1333 25.009C19.805 25.3906 19.34 25.5873 18.87 25.5873C18.5117 25.5873 18.1517 25.4723 17.8483 25.2356L15.0733 23.0773C14.3467 22.5123 14.215 21.464 14.7817 20.739C15.3467 20.014 16.3933 19.8823 17.12 20.4473L18.6467 21.634L22.3917 17.2956C22.9933 16.599 24.045 16.5223 24.7417 17.1223C25.4383 17.7206 25.515 18.774 24.9133 19.4706Z" fill="black"/>
</svg>
