<svg width="40" height="40" viewBox="0 0 40 40" fill="none" xmlns="http://www.w3.org/2000/svg">
<path d="M11.6667 1.66602C10.7467 1.66602 10 2.41268 10 3.33268V4.99935H8.33333C6.5 4.99935 5 6.49935 5 8.33268V31.666C5 33.4993 6.5 34.9993 8.33333 34.9993H31.6667C33.5 34.9993 35 33.4993 35 31.666V8.33268C35 6.49935 33.5 4.99935 31.6667 4.99935H30V3.33268C30 2.41268 29.2533 1.66602 28.3333 1.66602C27.4133 1.66602 26.6667 2.41268 26.6667 3.33268V4.99935H13.3333V3.33268C13.3333 2.41268 12.5867 1.66602 11.6667 1.66602ZM8.33333 13.3327H31.6667V29.9993C31.6667 30.9193 30.92 31.666 30 31.666H10C9.08 31.666 8.33333 30.9193 8.33333 29.9993V13.3327Z" fill="black"/>
</svg>
