<svg width="40" height="40" viewBox="0 0 40 40" fill="none" xmlns="http://www.w3.org/2000/svg">
<path d="M8.33341 5C6.49175 5 5.00008 6.49167 5.00008 8.33333V11.6667H3.33341C2.41341 11.6667 1.66675 12.4133 1.66675 13.3333C1.66675 14.2533 2.41341 15 3.33341 15H5.00008C5.92008 15 6.66675 15.7467 6.66675 16.6667C6.66675 17.5867 5.92008 18.3333 5.00008 18.3333H3.33341C2.41341 18.3333 1.66675 19.08 1.66675 20C1.66675 20.92 2.41341 21.6667 3.33341 21.6667H5.00008C5.92008 21.6667 6.66675 22.4133 6.66675 23.3333C6.66675 24.2533 5.92008 25 5.00008 25H3.33341C2.41341 25 1.66675 25.7467 1.66675 26.6667C1.66675 27.5867 2.41341 28.3333 3.33341 28.3333H5.00008V31.6667C5.00008 33.5083 6.49175 35 8.33341 35H31.6667C33.5084 35 35.0001 33.5083 35.0001 31.6667V8.33333C35.0001 6.49167 33.5084 5 31.6667 5H8.33341ZM20.0001 10C25.5234 10 30.0001 14.4767 30.0001 20V21.25C30.0001 23.3217 28.3217 25 26.2501 25C25.0984 25 24.0803 24.469 23.392 23.6523C22.4987 24.4807 21.3151 25 20.0001 25C17.2384 25 15.0001 22.7617 15.0001 20C15.0001 17.2383 17.2384 15 20.0001 15C22.7617 15 25.0001 17.2383 25.0001 20V21.25C25.0001 21.94 25.5601 22.5 26.2501 22.5C26.9401 22.5 27.5001 21.94 27.5001 21.25V20C27.5001 15.8583 24.1417 12.5 20.0001 12.5C15.8584 12.5 12.5001 15.8583 12.5001 20C12.5001 24.1417 15.8584 27.5 20.0001 27.5H23.7501C24.4401 27.5 25.0001 28.06 25.0001 28.75C25.0001 29.44 24.4401 30 23.7501 30H20.0001C14.4767 30 10.0001 25.5233 10.0001 20C10.0001 14.4767 14.4767 10 20.0001 10ZM20.0001 17.5C19.337 17.5 18.7012 17.7634 18.2323 18.2322C17.7635 18.7011 17.5001 19.337 17.5001 20C17.5001 20.663 17.7635 21.2989 18.2323 21.7678C18.7012 22.2366 19.337 22.5 20.0001 22.5C20.6631 22.5 21.299 22.2366 21.7678 21.7678C22.2367 21.2989 22.5001 20.663 22.5001 20C22.5001 19.337 22.2367 18.7011 21.7678 18.2322C21.299 17.7634 20.6631 17.5 20.0001 17.5Z" fill="black"/>
</svg>
