<svg width="40" height="40" viewBox="0 0 40 40" fill="none" xmlns="http://www.w3.org/2000/svg">
<path d="M30.7178 10.9844C27.8953 10.9844 25.6072 13.2751 25.6072 16.0951C25.6063 18.9201 27.8945 21.2122 30.7178 21.2122C33.547 21.2122 35.8334 18.9209 35.8334 16.0951C35.8334 13.2751 33.5462 10.9844 30.7178 10.9844ZM14.6713 11.3034C14.4207 11.2923 14.1709 11.338 13.9405 11.4368L3.8884 15.737C3.68318 15.8203 3.49661 15.9436 3.3396 16.0998C3.18259 16.256 3.05829 16.442 2.97396 16.6468C2.88962 16.8516 2.84695 17.0711 2.84843 17.2926C2.84991 17.5141 2.89551 17.733 2.98257 17.9367C3.06963 18.1403 3.19641 18.3246 3.35549 18.4787C3.51458 18.6328 3.70277 18.7536 3.90909 18.8342C4.11541 18.9147 4.33571 18.9533 4.55712 18.9478C4.77853 18.9422 4.99662 18.8926 5.19863 18.8018L5.46718 18.6862L13.9584 16.0609L16.6504 20.7891L10.8529 25.4814C11.1196 25.6264 11.6459 25.833 12.5001 25.833C13.6992 25.833 14.2565 25.4279 14.349 25.3529L14.5964 25.1104C14.6181 25.0904 14.6414 25.0701 14.6648 25.0501C14.8973 24.8535 15.1223 24.7326 15.254 24.6693C15.3906 24.5901 15.5106 24.5297 15.6381 24.4772C15.9289 24.3522 16.2587 24.2626 16.6212 24.2168C16.7453 24.1993 16.8641 24.19 16.9841 24.1875C17.3191 24.1708 17.6865 24.2168 18.0665 24.321C18.1373 24.3385 18.2343 24.3649 18.3318 24.3991C18.6034 24.4966 18.8519 24.6209 19.0919 24.7767L19.2188 24.8353L19.5818 25.1331C19.5893 25.139 19.5955 25.146 19.6013 25.151C19.668 25.206 19.7419 25.2737 19.8178 25.3512C19.9053 25.4237 20.4609 25.833 21.6667 25.833C22.8659 25.833 23.4232 25.4279 23.5157 25.3529L23.7631 25.1104C23.7847 25.0904 23.8081 25.0701 23.8314 25.0501C24.0698 24.8493 24.2988 24.7285 24.4255 24.6676C24.5705 24.5843 24.6839 24.5264 24.8047 24.4756C25.1014 24.3489 25.4302 24.2618 25.7911 24.2168C25.9111 24.1993 26.0283 24.1884 26.1508 24.1859C26.4799 24.1709 26.841 24.2152 27.2185 24.3161C27.3168 24.3411 27.398 24.3642 27.4805 24.3926C27.5947 24.4334 27.6986 24.481 27.8028 24.5293C26.752 23.4135 25.6555 22.2516 24.5655 21.0983C24.3322 20.7616 24.0431 20.4713 23.7273 20.2113C19.862 16.1228 16.7932 12.8913 16.2859 12.3564C16.2313 12.2951 15.8432 11.8633 15.8432 11.8633C15.6952 11.6963 15.5153 11.5607 15.314 11.4645C15.1127 11.3683 14.8941 11.3135 14.6713 11.3034ZM35.42 27.0602C35.1753 27.0626 34.9341 27.1187 34.7136 27.2248C34.493 27.3308 34.2985 27.4842 34.1439 27.6738C34.1439 27.6738 34.0351 27.8311 33.5043 28.1263C32.9735 28.4215 32.1283 28.7497 30.8334 28.7497C29.5385 28.7497 28.6933 28.4215 28.1625 28.1263C27.6847 27.8605 27.6086 27.7476 27.5863 27.7194C27.4421 27.5311 27.2593 27.3758 27.0502 27.2638C26.841 27.1518 26.6104 27.0857 26.3738 27.07C26.3732 27.07 26.3727 27.07 26.3721 27.07C26.3667 27.07 26.3613 27.07 26.3559 27.07C26.3142 27.0668 26.2723 27.0652 26.2305 27.0651C25.9745 27.0659 25.7222 27.1256 25.493 27.2396C25.2638 27.3536 25.0639 27.5189 24.9089 27.7227C24.8849 27.7527 24.8115 27.8628 24.3376 28.1263C23.8069 28.4215 22.9616 28.7497 21.6667 28.7497C20.3718 28.7497 19.5266 28.4215 18.9958 28.1263C18.518 27.8605 18.442 27.7476 18.4197 27.7194C18.2754 27.5311 18.0926 27.3758 17.8835 27.2638C17.6744 27.1518 17.4438 27.0857 17.2071 27.07C17.2065 27.07 17.206 27.07 17.2055 27.07C17.2 27.07 17.1946 27.07 17.1892 27.07C17.1475 27.0668 17.1057 27.0652 17.0639 27.0651C16.8079 27.0659 16.5555 27.1256 16.3263 27.2396C16.0971 27.3536 15.8973 27.5189 15.7422 27.7227C15.7182 27.7527 15.6448 27.8628 15.171 28.1263C14.6402 28.4215 13.7949 28.7497 12.5001 28.7497C11.2052 28.7497 10.3599 28.4215 9.82916 28.1263C9.29839 27.8311 9.18951 27.6738 9.18951 27.6738C9.03009 27.4797 8.82885 27.3241 8.60084 27.2187C8.37283 27.1133 8.12394 27.0608 7.87278 27.0651C7.55549 27.0706 7.24636 27.1666 6.98172 27.3417C6.71709 27.5168 6.50795 27.7639 6.3789 28.0538C6.24984 28.3437 6.20622 28.6644 6.25317 28.9783C6.30012 29.2921 6.43569 29.5861 6.64394 29.8255C6.64394 29.8255 7.2405 30.5016 8.20807 31.0397C9.17563 31.5778 10.6216 32.083 12.5001 32.083C14.3785 32.083 15.8245 31.5778 16.7921 31.0397C16.9723 30.9395 16.9304 30.918 17.0834 30.8135C17.2364 30.918 17.1945 30.9395 17.3747 31.0397C18.3423 31.5778 19.7883 32.083 21.6667 32.083C23.5452 32.083 24.9912 31.5778 25.9587 31.0397C26.139 30.9395 26.097 30.918 26.2501 30.8135C26.4031 30.918 26.3612 30.9395 26.5414 31.0397C27.509 31.5778 28.9549 32.083 30.8334 32.083C32.7118 32.083 34.1578 31.5778 35.1254 31.0397C36.0929 30.5016 36.6895 29.8255 36.6895 29.8255C36.9015 29.5836 37.039 29.2855 37.0853 28.9671C37.1317 28.6488 37.0849 28.3239 36.9507 28.0315C36.8165 27.7392 36.6006 27.4919 36.3289 27.3196C36.0573 27.1472 35.7416 27.0571 35.42 27.0602Z" fill="black"/>
</svg>
