<svg width="40" height="40" viewBox="0 0 40 40" fill="none" xmlns="http://www.w3.org/2000/svg">
<path d="M20.0001 1.66602C17.2584 1.66602 15.0001 3.92433 15.0001 6.66602C15.0001 7.25243 15.1233 7.80786 15.3126 8.33268H5.00008C3.16175 8.33268 1.66675 9.82768 1.66675 11.666V31.666C1.66675 33.5043 3.16175 34.9993 5.00008 34.9993H35.0001C36.8384 34.9993 38.3334 33.5043 38.3334 31.666V11.666C38.3334 9.82768 36.8384 8.33268 35.0001 8.33268H24.6876C24.8768 7.80786 25.0001 7.25243 25.0001 6.66602C25.0001 3.92433 22.7418 1.66602 20.0001 1.66602ZM20.0001 4.99935C20.9403 4.99935 21.6667 5.7258 21.6667 6.66602C21.6667 7.60623 20.9403 8.33268 20.0001 8.33268C19.0599 8.33268 18.3334 7.60623 18.3334 6.66602C18.3334 5.7258 19.0599 4.99935 20.0001 4.99935ZM13.3334 14.9993C15.2217 14.9993 16.6667 16.4443 16.6667 18.3327C16.6667 20.221 15.2217 21.666 13.3334 21.666C11.4451 21.666 10.0001 20.221 10.0001 18.3327C10.0001 16.4443 11.4451 14.9993 13.3334 14.9993ZM25.0001 16.666H31.6667C32.5868 16.666 33.3334 17.4127 33.3334 18.3327C33.3334 19.2527 32.5868 19.9993 31.6667 19.9993H25.0001C24.0801 19.9993 23.3334 19.2527 23.3334 18.3327C23.3334 17.4127 24.0801 16.666 25.0001 16.666ZM13.3334 23.3327C16.9751 23.3327 20.0001 24.8473 20.0001 27.0273V27.4993C20.0001 27.9593 19.6267 28.3327 19.1667 28.3327H7.50008C7.04008 28.3327 6.66675 27.9593 6.66675 27.4993V27.0273C6.66675 24.8473 9.69175 23.3327 13.3334 23.3327ZM25.0001 23.3327H31.6667C32.5868 23.3327 33.3334 24.0793 33.3334 24.9993C33.3334 25.9193 32.5868 26.666 31.6667 26.666H25.0001C24.0801 26.666 23.3334 25.9193 23.3334 24.9993C23.3334 24.0793 24.0801 23.3327 25.0001 23.3327Z" fill="black"/>
</svg>
