<svg width="181" height="163" viewBox="0 0 181 163" fill="none" xmlns="http://www.w3.org/2000/svg">
<path d="M119.943 64.7372C119.309 64.8602 119.32 64.3042 119.068 63.9161C118.608 63.2031 117.984 62.6164 117.467 61.9345C116.675 60.8875 115.906 59.8347 114.96 58.917C114.583 58.5542 114.297 58.1062 113.836 57.7527C113.208 57.2696 112.533 56.5699 112.288 55.8435C112.095 55.2696 111.76 54.9933 111.456 54.6182C111.251 54.3667 110.953 54.1952 110.74 53.9514C109.091 52.0274 107.668 49.8647 105.684 48.2747C105.588 48.1958 105.552 48.0281 105.479 47.9091C105.262 47.5523 105.062 47.1855 104.816 46.8528C103.939 45.6786 103.116 44.451 101.949 43.5596C101.788 43.4341 101.72 43.1657 101.589 42.9702C101.304 42.5445 101.052 42.0764 100.71 41.7107C99.0992 39.9768 97.7198 38.0201 96.0964 36.2951C95.191 35.3275 94.4655 34.184 93.4974 33.2605C92.7626 32.5643 92.1682 31.6964 91.5036 30.9143C90.9638 30.2724 90.3094 29.7045 89.8953 28.9915C89.5344 28.368 89.1336 27.8628 88.6568 27.3422C87.5849 26.182 86.5865 24.9464 85.6054 23.701C84.5409 22.3507 83.5064 20.9816 82.2746 19.7983C81.9102 19.4437 81.3623 19.0719 81.282 18.664C81.1399 17.9577 80.5554 17.846 80.2851 17.4168C79.714 16.5089 78.7863 15.8148 78.7489 14.5578C78.732 13.8775 78.5584 13.0365 77.572 13.0415C77.5372 13.0444 77.4744 12.7919 77.424 12.6618L75.9528 13.0266C76.1516 13.4222 76.0514 13.6581 75.6726 13.7178C75.2355 13.7863 75.2479 14.057 75.2827 14.4989C75.3638 15.5512 75.4483 16.6311 75.3107 17.635C74.9897 19.9562 74.7178 22.2882 74.5032 24.6401C74.4184 25.5681 73.9504 26.4427 74.0205 27.3608C74.1209 28.7391 73.342 29.7936 73.4833 31.1561C73.538 31.6787 73.365 32.2064 73.2694 32.7207C72.8212 35.1077 72.69 37.5816 72.3432 40.0005C72.0877 41.7922 71.72 43.6003 71.713 45.4216C71.705 47.3059 71.2228 49.0397 71.1625 50.9028C71.1157 52.4146 70.9379 53.9474 70.7742 55.4597C70.7584 55.6062 70.5713 55.7096 70.4667 55.8325C70.4422 56.774 70.4732 57.7303 70.3837 58.6595C70.257 59.9458 70.0115 61.2102 69.8579 62.4918C69.5817 64.859 69.2897 67.2244 69.0913 69.6123C68.8646 72.3209 68.3338 74.968 68.5524 77.7658C68.5654 77.9394 68.5154 78.1401 68.4299 78.2753C68.0569 78.8641 68.105 79.3654 68.7861 79.7727C69.6703 81.989 71.6166 83.4572 72.6345 85.6119C72.9485 86.2813 73.5932 86.8345 74.0495 87.5028C75.7058 89.9269 77.6714 92.1489 79.1549 94.673C80.2841 96.5947 81.8016 98.1579 82.9275 100.069C83.9052 101.732 85.1813 103.206 86.3099 104.78C86.4993 105.047 86.5978 105.382 86.7418 105.683C87.7884 106.547 88.3242 107.852 89.2063 108.859C89.6642 109.384 90.1632 109.911 90.4892 110.52C91.2365 111.932 92.1751 113.188 93.1482 114.424C93.4352 114.792 93.847 115.152 93.9526 115.56C94.1706 116.412 94.7958 116.919 95.2751 117.53C95.8475 118.261 96.3823 119.018 96.931 119.755C97.5887 120.63 98.0028 121.64 98.6456 122.45C99.5128 123.541 100.065 124.864 101.082 125.816C101.319 126.037 101.611 126.226 101.761 126.497C102.684 128.196 103.765 129.765 105.036 131.207C105.539 131.778 105.794 132.587 106.288 133.178C107.041 134.081 107.407 135.33 108.482 135.959C108.645 136.056 108.74 136.346 108.83 136.557C109.614 138.382 110.92 139.838 112.048 141.412C112.808 142.467 113.774 143.386 114.288 144.587C114.582 145.273 114.658 145.881 115.5 145.524C115.585 145.486 115.841 145.737 115.966 145.894C116.166 146.146 116.278 146.507 116.507 146.706C116.924 147.065 117.258 147.239 117.814 146.799C118.596 146.183 118.665 145.384 118.643 144.471C118.621 143.513 118.484 142.543 118.485 141.59C118.485 140.141 118.589 138.701 118.594 137.251C118.604 135.817 118.794 134.423 118.729 132.962C118.649 131.088 118.95 129.245 119.076 127.383C119.089 127.209 119.086 127.004 119.015 126.839C118.561 125.765 118.978 124.743 118.878 123.679C118.753 122.369 119.104 121.067 119.245 119.76C119.275 119.496 119.277 119.222 119.274 118.949C119.242 117.497 119.201 116.047 119.176 114.598C119.161 113.826 119.124 113.048 119.173 112.283C119.251 111.089 119.575 109.913 119.463 108.726C119.299 107.061 119.847 105.539 119.601 103.872C119.54 103.442 119.723 103.015 119.718 102.571C119.707 101.233 119.419 99.793 119.686 98.5633C120.121 96.5446 119.667 94.421 119.981 92.4039C120.156 91.2766 120.104 90.069 120.04 88.8925C119.993 88.0486 120.318 87.238 120.194 86.4929C119.853 84.4841 120.301 82.622 120.212 80.6705C120.162 79.5876 120.403 78.5239 120.328 77.4416C120.278 76.7354 120.367 76.1028 120.471 75.4497C120.507 75.2355 120.63 74.9426 120.543 74.8101C119.904 73.8621 120.29 72.9391 120.35 72.0629C120.482 70.2505 120.578 68.4357 120.557 66.6044C120.553 66.1148 120.389 65.6021 120.26 65.1035C120.219 64.954 120.011 64.7091 119.938 64.7214L119.943 64.7372Z" fill="#FEDF46"/>
<path d="M108.745 110.584C108.544 109.835 109.097 109.917 109.45 109.673C110.099 109.229 110.602 108.579 111.214 108.066C112.152 107.279 113.1 106.52 113.892 105.54C114.204 105.149 114.612 104.873 114.905 104.384C115.306 103.717 115.915 103.024 116.604 102.83C117.149 102.677 117.381 102.324 117.715 102.018C117.938 101.812 118.071 101.489 118.286 101.273C119.988 99.6038 121.953 98.2255 123.282 96.128C123.348 96.0271 123.51 96.0054 123.619 95.9364C123.945 95.7291 124.284 95.543 124.583 95.3002C125.637 94.4304 126.751 93.6303 127.489 92.3912C127.593 92.2205 127.851 92.1753 128.028 92.0471C128.414 91.7706 128.847 91.5373 129.167 91.1866C130.684 89.5381 132.451 88.1845 133.958 86.5204C134.804 85.593 135.847 84.8952 136.642 83.8899C137.24 83.1262 138.026 82.546 138.718 81.874C139.287 81.3291 139.768 80.6427 140.423 80.2518C140.996 79.9113 141.447 79.5102 141.903 79.0232C142.919 77.9271 144.019 76.9251 145.131 75.9444C146.337 74.8802 147.564 73.8528 148.584 72.5747C148.89 72.1972 149.19 71.6097 149.584 71.5671C150.266 71.4897 150.304 70.8278 150.696 70.5683C151.524 70.0198 152.097 69.033 153.337 69.1444C154.008 69.2085 154.82 69.1114 154.693 67.9707C154.686 67.9302 154.928 67.8886 155.05 67.8463L154.507 66.1012C154.14 66.2823 153.894 66.1375 153.788 65.6924C153.666 65.1787 153.399 65.1598 152.966 65.1457C151.934 65.1099 150.875 65.0749 149.864 64.7923C147.525 64.1359 145.182 63.5349 142.827 62.9976C141.897 62.7855 140.973 62.1371 140.073 62.1052C138.72 62.0517 137.579 61.0218 136.248 61.0176C135.737 61.0165 135.193 60.7517 134.672 60.578C132.252 59.7664 129.786 59.3106 127.348 58.6124C125.542 58.0966 123.706 57.4494 121.901 57.2173C120.034 56.9764 118.258 56.2058 116.405 55.907C114.902 55.667 113.362 55.2731 111.845 54.8978C111.697 54.8616 111.572 54.6326 111.437 54.4967C110.502 54.3525 109.559 54.2708 108.627 54.0531C107.338 53.7485 106.055 53.3092 104.767 52.9741C102.389 52.3638 100.01 51.7355 97.6209 51.2124C94.9106 50.6174 92.2235 49.6784 89.4799 49.587C89.3096 49.5806 89.1046 49.4982 88.9601 49.3827C88.3309 48.8792 87.8403 48.8732 87.5214 49.6103C85.436 50.3596 84.2231 52.4285 82.2153 53.34C81.5913 53.6205 81.1233 54.2976 80.518 54.7428C78.3224 56.359 76.3654 58.3574 74.0495 59.7616C72.2862 60.8303 70.9261 62.3918 69.1729 63.458C67.6474 64.3836 66.3451 65.6771 64.9261 66.7878C64.6854 66.974 64.3659 67.0467 64.0858 67.1761C63.3596 68.2793 62.1341 68.7382 61.2455 69.6338C60.782 70.0984 60.3223 70.6103 59.7592 70.9121C58.4536 71.6023 57.326 72.5326 56.2224 73.5052C55.8935 73.7917 55.5881 74.2233 55.1978 74.2953C54.3802 74.4423 53.9558 75.1026 53.4099 75.5814C52.757 76.1531 52.0734 76.678 51.4118 77.2216C50.6267 77.8741 49.6782 78.2286 48.9554 78.8718C47.9821 79.7399 46.74 80.215 45.9239 81.2739C45.7344 81.52 45.5828 81.8352 45.3332 81.9752C43.7648 82.8328 42.3452 83.8894 41.0749 85.181C40.5714 85.6917 39.8015 85.8874 39.2777 86.3849C38.4769 87.144 37.2847 87.4135 36.7951 88.5792C36.7195 88.7549 36.4438 88.8289 36.2458 88.9079C34.5356 89.589 33.2556 90.9193 31.8367 92.0301C30.8857 92.7778 30.096 93.7819 28.9698 94.2285C28.327 94.4835 27.7338 94.4967 28.1916 95.5137C28.2399 95.6166 28.0237 95.8813 27.8835 96.0064C27.6581 96.2069 27.3152 96.2914 27.1459 96.5325C26.8422 96.9698 26.7113 97.3342 27.2162 98.0314C27.9231 99.0112 28.7224 99.1889 29.6235 99.275C30.5702 99.3681 31.5137 99.3291 32.4573 99.447C33.8921 99.6252 35.3316 99.923 36.7681 100.107C38.1895 100.294 39.5929 100.686 41.0319 100.79C42.8775 100.928 44.7397 101.502 46.5998 101.878C46.7738 101.913 46.9763 101.936 47.1307 101.874C48.1378 101.481 49.2014 102.089 50.2434 102.104C51.5246 102.12 52.8575 102.686 54.1691 103.01C54.4345 103.077 54.7063 103.113 54.9763 103.143C56.4107 103.285 57.8416 103.416 59.2726 103.565C60.0354 103.643 60.8013 103.696 61.5649 103.846C62.7576 104.084 63.9618 104.603 65.1234 104.619C66.7519 104.634 68.3268 105.455 69.9476 105.376C70.3654 105.357 70.8117 105.622 71.2505 105.671C72.5737 105.822 73.9644 105.667 75.2151 106.126C77.2681 106.877 79.315 106.614 81.3512 107.224C82.4894 107.566 83.6788 107.654 84.8359 107.725C85.6658 107.775 86.5088 108.25 87.2314 108.198C89.1784 108.051 91.0779 108.798 92.9994 108.934C94.0656 109.01 95.1489 109.42 96.2114 109.466C96.9045 109.495 97.542 109.676 98.2016 109.876C98.4181 109.944 98.7235 110.122 98.8439 110.038C99.7036 109.416 100.665 109.976 101.541 110.153C103.352 110.529 105.161 110.862 106.972 111.063C107.456 111.119 107.944 110.992 108.421 110.905C108.564 110.876 108.781 110.665 108.76 110.58L108.745 110.584Z" fill="#FEDF46"/>
</svg>
