<svg width="121" height="117" viewBox="0 0 121 117" fill="none" xmlns="http://www.w3.org/2000/svg">
<g clip-path="url(#clip0_620_51472)">
<path d="M111.509 86.8154L78.6362 79.1505C76.8723 78.7657 75.0442 79.6957 74.3708 81.3955L62.2801 111.51C60.0993 118.565 51.9533 117.956 51.2798 110.163L45.6995 76.8094C45.4429 75.302 44.1601 74.1475 42.5886 74.1154L6.18834 72.9288C-0.00130927 72.7364 -3.01596 63.3396 4.23203 59.5553L35.7576 46.1177C37.329 45.4442 38.2912 43.8086 38.0987 42.1088L31.877 7.60068C30.7866 -0.769786 39.125 -2.08469 43.3583 3.23906L65.9041 27.0997C66.8021 28.3825 68.4697 28.8636 69.945 28.3184L100.508 16.5484C107.404 14.56 113.208 21.0383 107.5 27.4525L89.9892 49.8379C88.9629 51.1207 89.1874 53.0129 90.4703 54.0391L117.859 76.1038C123.503 80.5616 119.526 89.2207 111.509 86.9116V86.8154Z" fill="#F86008"/>
<path d="M65.5859 62.8596L66.067 61.7051L116.322 82.7114L115.841 83.866L65.5859 62.8596Z" fill="#FEDF46"/>
<path d="M55.4492 111.286L60.2598 65.0078L61.4785 65.1361L56.7 111.414L55.4492 111.286Z" fill="#FEDF46"/>
<path d="M64.1094 56.6038L102.69 21.6787L103.524 22.6088L64.9432 57.5017L64.1094 56.6038Z" fill="#FEDF46"/>
<path d="M37.332 5.51524L38.4545 5.03418L59.7816 55.8663L58.6591 56.3474L37.332 5.51524Z" fill="#FEDF46"/>
<path d="M4.00719 66.8674L3.87891 65.6487L56.4429 59.876L56.5711 61.1267L4.00719 66.8674Z" fill="#FEDF46"/>
<path d="M55.7391 60.5804L58.9141 55.417L65.0075 56.5074L66.5149 62.5688L60.7421 65.8079L55.707 60.5483L55.7391 60.5804ZM59.5234 56.796L57.2785 60.42L60.9666 64.3006L65.0717 61.9915L63.9813 57.5978L59.4914 56.796H59.5234Z" fill="#FEDF46"/>
</g>
<defs>
<clipPath id="clip0_620_51472">
<rect width="120.49" height="116.417" fill="white"/>
</clipPath>
</defs>
</svg>
