<svg width="167" height="155" viewBox="0 0 167 155" fill="none" xmlns="http://www.w3.org/2000/svg">
<path d="M124.912 101.975C125.911 110.154 129.3 116.538 133.64 118.415L140.976 121.583L133.644 124.751C129.3 126.628 125.911 133.012 124.916 141.191L123.232 155L121.547 141.191C120.549 133.012 117.159 126.628 112.82 124.751L105.488 121.583L112.824 118.415C117.163 116.538 120.557 110.154 121.551 101.975L123.236 88.1661L124.92 101.975L124.912 101.975Z" fill="#F86008"/>
<path d="M19.8094 103.777C27.9885 102.778 34.3723 99.3886 36.2491 95.0488L39.417 87.7129L42.585 95.0448C44.4617 99.3886 50.8456 102.778 59.0247 103.772L72.834 105.457L59.0247 107.142C50.8456 108.14 44.4617 111.53 42.585 115.869L39.417 123.201L36.2491 115.865C34.3723 111.526 27.9885 108.132 19.8094 107.138L6.00011 105.453L19.8094 103.768L19.8094 103.777Z" fill="#F86008"/>
<path d="M116.191 47.3173C102.563 48.9836 91.9178 54.6566 88.7941 61.9189L83.5038 89L78.2212 61.9221C75.0937 54.6534 64.4481 48.9803 50.8166 47.3141L5.83568e-06 44.5016L50.8128 41.686C64.4443 40.0197 75.0899 34.3402 78.2174 27.0779L83.5 -1.09497e-05L88.7903 27.0811C91.9178 34.3466 102.56 40.0197 116.187 41.6859L167 44.5016L116.187 47.3205L116.191 47.3173Z" fill="#F86008"/>
</svg>
