<svg width="128" height="116" viewBox="0 0 128 116" fill="none" xmlns="http://www.w3.org/2000/svg">
<g clip-path="url(#clip0_4735_9518)">
<path opacity="0.3" d="M63.5665 75.5655C62.7285 73.4235 60.7925 72.0915 58.3905 72.0015C58.3425 71.9995 58.2965 71.9995 58.2485 71.9995C58.2285 71.9995 58.2085 71.9995 58.1865 71.9995C56.1445 72.0335 53.3265 72.0635 50.4705 72.0935C48.1045 72.1195 45.7105 72.1435 43.7065 72.1715C42.0925 69.2935 40.8365 66.1755 39.8045 62.5155C39.3325 60.5795 36.8265 54.1855 31.9345 54.1855C30.7585 54.1855 28.5385 54.5995 26.8845 57.3795C26.8325 57.4655 26.7865 57.5535 26.7405 57.6435C24.7705 61.6455 22.9145 65.9635 20.7765 71.5235C20.7205 71.5315 20.6685 71.5375 20.6185 71.5455C16.1085 72.0095 11.3385 72.5655 6.93853 73.4735C6.34053 73.5775 5.06053 73.8275 3.93653 74.8275C3.88053 74.8775 3.82653 74.9295 3.77253 74.9815C2.47253 76.2835 1.85453 77.9515 2.03453 79.6755C2.40653 83.2615 6.04053 85.6355 8.21053 87.0535C8.46653 87.2215 8.68453 87.3595 8.83253 87.4695C8.87853 87.5035 8.92653 87.5375 8.97453 87.5695C10.8085 88.7915 12.6525 90.4415 14.4485 92.0915C13.8045 95.1695 12.9725 98.6235 12.1625 101.986C11.6705 104.026 11.1965 105.994 10.7945 107.762C9.96453 109.348 9.93253 111.248 10.7525 112.922C11.7245 114.906 13.7365 116.188 15.8805 116.188C16.9505 116.188 18.0145 115.874 18.9625 115.282C23.7185 112.41 27.9885 108.718 32.1025 105.082C36.8005 108.75 41.6945 112.424 47.1765 115.408C47.4045 115.532 47.6465 115.634 47.8965 115.708C48.4285 115.868 48.9805 115.95 49.5345 115.95C52.0605 115.95 54.2485 114.322 54.9765 111.898C54.9905 111.85 55.0045 111.802 55.0165 111.754C55.9605 108.094 54.7565 105.494 53.8765 103.594C53.7705 103.366 53.6625 103.134 53.5585 102.896C53.5045 102.774 53.4445 102.654 53.3765 102.538C51.2825 98.9055 50.0785 95.6455 49.6505 92.4095C51.0545 91.3075 52.6065 90.2155 54.1985 89.2115C54.2365 89.1875 54.2725 89.1635 54.3085 89.1395C54.8585 88.7655 55.5225 88.3955 56.2245 88.0035C58.0205 87.0015 60.0505 85.8695 61.7545 83.8795C63.5365 81.9835 64.6845 78.4215 63.5665 75.5655Z" fill="black"/>
<path d="M61.5645 73.38C60.7265 71.238 58.7905 69.906 56.3885 69.816C56.3425 69.814 56.2945 69.814 56.2465 69.814C56.2265 69.814 56.2065 69.814 56.1845 69.814C54.1425 69.848 51.3245 69.878 48.4685 69.908C46.1025 69.934 43.7085 69.958 41.7045 69.986C40.0905 67.108 38.8345 63.99 37.8025 60.33C37.3325 58.394 34.8245 52 29.9325 52C28.7565 52 26.5365 52.414 24.8825 55.194C24.8305 55.28 24.7845 55.368 24.7385 55.458C22.7685 59.46 20.9125 63.778 18.7745 69.338C18.7225 69.346 18.6705 69.354 18.6185 69.362C14.1085 69.826 9.33853 70.382 4.93853 71.29C4.34053 71.394 3.06053 71.644 1.93653 72.644C1.88053 72.694 1.82653 72.746 1.77253 72.798C0.472526 74.1 -0.145474 75.768 0.0345259 77.492C0.406526 81.078 4.04053 83.452 6.21053 84.87C6.46653 85.038 6.68453 85.176 6.83253 85.286C6.87853 85.32 6.92653 85.354 6.97453 85.386C8.80853 86.608 10.6525 88.258 12.4485 89.908C11.8065 92.984 10.9745 96.438 10.1645 99.8C9.67253 101.84 9.19853 103.808 8.79653 105.576C7.96653 107.162 7.93453 109.062 8.75453 110.736C9.72453 112.718 11.7385 114 13.8825 114C14.9525 114 16.0165 113.686 16.9645 113.094C21.7205 110.222 25.9905 106.53 30.1045 102.894C34.8025 106.562 39.6965 110.236 45.1785 113.22C45.4065 113.344 45.6485 113.446 45.8985 113.52C46.4305 113.68 46.9825 113.762 47.5365 113.762C50.0625 113.762 52.2505 112.134 52.9785 109.71C52.9925 109.662 53.0065 109.614 53.0185 109.566C53.9625 105.906 52.7585 103.306 51.8785 101.406C51.7725 101.178 51.6645 100.946 51.5605 100.708C51.5065 100.586 51.4465 100.466 51.3785 100.35C49.2845 96.718 48.0805 93.458 47.6525 90.222C49.0565 89.12 50.6085 88.028 52.2005 87.024C52.2385 87 52.2745 86.976 52.3105 86.952C52.8605 86.578 53.5245 86.208 54.2265 85.816C56.0225 84.814 58.0525 83.682 59.7565 81.692C61.5345 79.796 62.6825 76.236 61.5645 73.38Z" fill="white"/>
<path d="M56.2479 73.3101C51.8979 73.3801 44.0499 73.4381 39.7639 73.5141C39.7159 73.5181 39.6819 73.5161 39.6399 73.5181C39.6339 73.5061 39.6299 73.5021 39.6239 73.4901C37.1639 69.5941 35.4939 65.5241 34.2379 61.0521C33.7099 59.4241 32.8539 57.0381 30.9159 55.7581C29.8059 55.1901 28.4859 55.7681 28.0419 56.9081C25.9999 60.9981 24.2299 65.1821 22.5719 69.4301C22.3079 70.1121 21.6859 71.7561 21.3599 72.5781C20.7019 72.6481 19.2719 72.7701 19.1619 72.7781C14.7719 73.2341 9.94794 73.8001 5.63994 74.7221C5.21794 74.7981 4.76994 74.8941 4.42594 75.1901C1.65794 77.9081 7.58794 81.0761 9.01994 82.1301C11.6259 83.8721 14.1799 86.3561 16.4299 88.4101C15.3979 93.8581 13.5419 101.02 12.3619 106.31L12.2599 106.722L12.2339 106.824C12.2379 106.82 12.2319 106.838 12.2259 106.858C11.7619 107.53 11.6679 108.428 12.1599 109.166C12.8839 110.254 14.0899 110.296 15.0179 109.738L15.0319 109.762C20.3919 106.53 25.2519 102.058 29.9659 97.9061C35.3479 102.13 40.7999 106.452 46.9659 109.798C51.2219 110.416 49.4899 104.068 48.1959 102.012C45.7919 97.7501 43.8859 93.1521 43.8899 88.4421C45.6779 86.6581 48.1039 85.1261 50.2379 83.7121C52.3959 82.2441 55.1479 81.2721 57.0299 79.0201C58.4099 77.5961 59.3639 73.4301 56.2479 73.3101ZM12.4099 106.606C12.5679 106.4 12.7779 106.216 13.0059 106.142L13.0099 106.148C12.7759 106.266 12.5779 106.424 12.4099 106.606ZM43.7019 83.1881C42.5039 84.1661 41.2879 84.8461 40.3459 86.2841C39.3199 87.8301 39.7499 89.9741 39.9539 91.4121C40.4979 95.4701 42.1779 99.7621 44.1379 103.25C39.6939 100.306 35.4259 96.9621 31.1779 93.5941C30.4159 92.9701 29.2879 92.9741 28.5279 93.6501C25.3059 96.4581 21.8679 99.6201 18.3219 102.4C19.3899 99.2221 20.3839 96.0201 21.2279 92.7641C21.5679 90.9521 22.6279 88.7361 22.0839 86.6361C21.7259 85.5981 20.9839 84.8081 20.3299 84.2341C17.7279 82.1541 15.2539 80.5001 12.4839 78.9401C13.3479 78.9281 14.2159 78.9301 15.0779 78.8961L19.6199 78.6901C20.9839 78.5641 22.4039 78.6381 23.8459 78.1281C25.8079 77.5101 26.8499 75.2841 27.3379 73.5861C28.5139 70.2081 29.6199 66.7961 30.6039 63.3521C30.9459 64.4921 31.2999 65.7201 31.7639 66.8841C33.0199 70.2141 34.5619 73.3641 36.5359 76.3401C36.7499 76.6261 37.1419 77.0601 37.7339 77.3421C38.9319 77.8301 39.4959 77.6181 39.8139 77.6641L42.1679 77.6341C44.3379 77.6081 48.9139 77.5501 52.5379 77.5061C52.4759 77.5481 52.4179 77.5941 52.3559 77.6361C49.6359 79.2201 46.3039 81.1561 43.7019 83.1881Z" fill="black"/>
</g>
<g clip-path="url(#clip1_4735_9518)">
<path opacity="0.3" d="M127.567 75.5655C126.729 73.4235 124.793 72.0915 122.391 72.0015C122.343 71.9995 122.297 71.9995 122.249 71.9995C122.229 71.9995 122.209 71.9995 122.187 71.9995C120.145 72.0335 117.327 72.0635 114.471 72.0935C112.105 72.1195 109.711 72.1435 107.707 72.1715C106.093 69.2935 104.837 66.1755 103.805 62.5155C103.333 60.5795 100.827 54.1855 95.9345 54.1855C94.7585 54.1855 92.5385 54.5995 90.8845 57.3795C90.8325 57.4655 90.7865 57.5535 90.7405 57.6435C88.7705 61.6455 86.9145 65.9635 84.7765 71.5235C84.7205 71.5315 84.6685 71.5375 84.6185 71.5455C80.1085 72.0095 75.3385 72.5655 70.9385 73.4735C70.3405 73.5775 69.0605 73.8275 67.9365 74.8275C67.8805 74.8775 67.8265 74.9295 67.7725 74.9815C66.4725 76.2835 65.8545 77.9515 66.0345 79.6755C66.4065 83.2615 70.0405 85.6355 72.2105 87.0535C72.4665 87.2215 72.6845 87.3595 72.8325 87.4695C72.8785 87.5035 72.9265 87.5375 72.9745 87.5695C74.8085 88.7915 76.6525 90.4415 78.4485 92.0915C77.8045 95.1695 76.9725 98.6235 76.1625 101.986C75.6705 104.026 75.1965 105.994 74.7945 107.762C73.9645 109.348 73.9325 111.248 74.7525 112.922C75.7245 114.906 77.7365 116.188 79.8805 116.188C80.9505 116.188 82.0145 115.874 82.9625 115.282C87.7185 112.41 91.9885 108.718 96.1025 105.082C100.801 108.75 105.695 112.424 111.177 115.408C111.405 115.532 111.647 115.634 111.897 115.708C112.429 115.868 112.981 115.95 113.535 115.95C116.061 115.95 118.249 114.322 118.977 111.898C118.991 111.85 119.005 111.802 119.017 111.754C119.961 108.094 118.757 105.494 117.877 103.594C117.771 103.366 117.663 103.134 117.559 102.896C117.505 102.774 117.445 102.654 117.377 102.538C115.283 98.9055 114.079 95.6455 113.651 92.4095C115.055 91.3075 116.607 90.2155 118.199 89.2115C118.237 89.1875 118.273 89.1635 118.309 89.1395C118.859 88.7655 119.523 88.3955 120.225 88.0035C122.021 87.0015 124.051 85.8695 125.755 83.8795C127.537 81.9835 128.685 78.4215 127.567 75.5655Z" fill="black"/>
<path d="M125.565 73.38C124.727 71.238 122.791 69.906 120.389 69.816C120.343 69.814 120.295 69.814 120.247 69.814C120.227 69.814 120.207 69.814 120.185 69.814C118.143 69.848 115.325 69.878 112.469 69.908C110.103 69.934 107.709 69.958 105.705 69.986C104.091 67.108 102.835 63.99 101.803 60.33C101.333 58.394 98.8245 52 93.9325 52C92.7565 52 90.5365 52.414 88.8825 55.194C88.8305 55.28 88.7845 55.368 88.7385 55.458C86.7685 59.46 84.9125 63.778 82.7745 69.338C82.7225 69.346 82.6705 69.354 82.6185 69.362C78.1085 69.826 73.3385 70.382 68.9385 71.29C68.3405 71.394 67.0605 71.644 65.9365 72.644C65.8805 72.694 65.8265 72.746 65.7725 72.798C64.4725 74.1 63.8545 75.768 64.0345 77.492C64.4065 81.078 68.0405 83.452 70.2105 84.87C70.4665 85.038 70.6845 85.176 70.8325 85.286C70.8785 85.32 70.9265 85.354 70.9745 85.386C72.8085 86.608 74.6525 88.258 76.4485 89.908C75.8065 92.984 74.9745 96.438 74.1645 99.8C73.6725 101.84 73.1985 103.808 72.7965 105.576C71.9665 107.162 71.9345 109.062 72.7545 110.736C73.7245 112.718 75.7385 114 77.8825 114C78.9525 114 80.0165 113.686 80.9645 113.094C85.7205 110.222 89.9905 106.53 94.1045 102.894C98.8025 106.562 103.697 110.236 109.179 113.22C109.407 113.344 109.649 113.446 109.899 113.52C110.431 113.68 110.983 113.762 111.537 113.762C114.063 113.762 116.251 112.134 116.979 109.71C116.993 109.662 117.007 109.614 117.019 109.566C117.963 105.906 116.759 103.306 115.879 101.406C115.773 101.178 115.665 100.946 115.561 100.708C115.507 100.586 115.447 100.466 115.379 100.35C113.285 96.718 112.081 93.458 111.653 90.222C113.057 89.12 114.609 88.028 116.201 87.024C116.239 87 116.275 86.976 116.311 86.952C116.861 86.578 117.525 86.208 118.227 85.816C120.023 84.814 122.053 83.682 123.757 81.692C125.535 79.796 126.683 76.236 125.565 73.38Z" fill="white"/>
<path d="M120.248 73.3101C115.898 73.3801 108.05 73.4381 103.764 73.5141C103.716 73.5181 103.682 73.5161 103.64 73.5181C103.634 73.5061 103.63 73.5021 103.624 73.4901C101.164 69.5941 99.4939 65.5241 98.2379 61.0521C97.7099 59.4241 96.8539 57.0381 94.9159 55.7581C93.8059 55.1901 92.4859 55.7681 92.0419 56.9081C89.9999 60.9981 88.2299 65.1821 86.5719 69.4301C86.3079 70.1121 85.6859 71.7561 85.3599 72.5781C84.7019 72.6481 83.2719 72.7701 83.1619 72.7781C78.7719 73.2341 73.9479 73.8001 69.6399 74.7221C69.2179 74.7981 68.7699 74.8941 68.4259 75.1901C65.6579 77.9081 71.5879 81.0761 73.0199 82.1301C75.6259 83.8721 78.1799 86.3561 80.4299 88.4101C79.3979 93.8581 77.5419 101.02 76.3619 106.31L76.2599 106.722L76.2339 106.824C76.2379 106.82 76.2319 106.838 76.2259 106.858C75.7619 107.53 75.6679 108.428 76.1599 109.166C76.8839 110.254 78.0899 110.296 79.0179 109.738L79.0319 109.762C84.3919 106.53 89.2519 102.058 93.9659 97.9061C99.3479 102.13 104.8 106.452 110.966 109.798C115.222 110.416 113.49 104.068 112.196 102.012C109.792 97.7501 107.886 93.1521 107.89 88.4421C109.678 86.6581 112.104 85.1261 114.238 83.7121C116.396 82.2441 119.148 81.2721 121.03 79.0201C122.41 77.5961 123.364 73.4301 120.248 73.3101ZM76.4099 106.606C76.5679 106.4 76.7779 106.216 77.0059 106.142L77.0099 106.148C76.7759 106.266 76.5779 106.424 76.4099 106.606ZM107.702 83.1881C106.504 84.1661 105.288 84.8461 104.346 86.2841C103.32 87.8301 103.75 89.9741 103.954 91.4121C104.498 95.4701 106.178 99.7621 108.138 103.25C103.694 100.306 99.4259 96.9621 95.1779 93.5941C94.4159 92.9701 93.2879 92.9741 92.5279 93.6501C89.3059 96.4581 85.8679 99.6201 82.3219 102.4C83.3899 99.2221 84.3839 96.0201 85.2279 92.7641C85.5679 90.9521 86.6279 88.7361 86.0839 86.6361C85.7259 85.5981 84.9839 84.8081 84.3299 84.2341C81.7279 82.1541 79.2539 80.5001 76.4839 78.9401C77.3479 78.9281 78.2159 78.9301 79.0779 78.8961L83.6199 78.6901C84.9839 78.5641 86.4039 78.6381 87.8459 78.1281C89.8079 77.5101 90.8499 75.2841 91.3379 73.5861C92.5139 70.2081 93.6199 66.7961 94.6039 63.3521C94.9459 64.4921 95.2999 65.7201 95.7639 66.8841C97.0199 70.2141 98.5619 73.3641 100.536 76.3401C100.75 76.6261 101.142 77.0601 101.734 77.3421C102.932 77.8301 103.496 77.6181 103.814 77.6641L106.168 77.6341C108.338 77.6081 112.914 77.5501 116.538 77.5061C116.476 77.5481 116.418 77.5941 116.356 77.6361C113.636 79.2201 110.304 81.1561 107.702 83.1881Z" fill="black"/>
</g>
<g clip-path="url(#clip2_4735_9518)">
<path opacity="0.3" d="M95.5665 23.5655C94.7285 21.4235 92.7925 20.0915 90.3905 20.0015C90.3425 19.9995 90.2965 19.9995 90.2485 19.9995C90.2285 19.9995 90.2085 19.9995 90.1865 19.9995C88.1445 20.0335 85.3265 20.0635 82.4705 20.0935C80.1045 20.1195 77.7105 20.1435 75.7065 20.1715C74.0925 17.2935 72.8365 14.1755 71.8045 10.5155C71.3325 8.57955 68.8265 2.18555 63.9345 2.18555C62.7585 2.18555 60.5385 2.59955 58.8845 5.37955C58.8325 5.46555 58.7865 5.55355 58.7405 5.64355C56.7705 9.64555 54.9145 13.9635 52.7765 19.5235C52.7205 19.5315 52.6685 19.5375 52.6185 19.5455C48.1085 20.0095 43.3385 20.5655 38.9385 21.4735C38.3405 21.5775 37.0605 21.8275 35.9365 22.8275C35.8805 22.8775 35.8265 22.9295 35.7725 22.9815C34.4725 24.2835 33.8545 25.9515 34.0345 27.6755C34.4065 31.2615 38.0405 33.6355 40.2105 35.0535C40.4665 35.2215 40.6845 35.3595 40.8325 35.4695C40.8785 35.5035 40.9265 35.5375 40.9745 35.5695C42.8085 36.7915 44.6525 38.4415 46.4485 40.0915C45.8045 43.1695 44.9725 46.6235 44.1625 49.9855C43.6705 52.0255 43.1965 53.9935 42.7945 55.7615C41.9645 57.3475 41.9325 59.2475 42.7525 60.9215C43.7245 62.9055 45.7365 64.1875 47.8805 64.1875C48.9505 64.1875 50.0145 63.8735 50.9625 63.2815C55.7185 60.4095 59.9885 56.7175 64.1025 53.0815C68.8005 56.7495 73.6945 60.4235 79.1765 63.4075C79.4045 63.5315 79.6465 63.6335 79.8965 63.7075C80.4285 63.8675 80.9805 63.9495 81.5345 63.9495C84.0605 63.9495 86.2485 62.3215 86.9765 59.8975C86.9905 59.8495 87.0045 59.8015 87.0165 59.7535C87.9605 56.0935 86.7565 53.4935 85.8765 51.5935C85.7705 51.3655 85.6625 51.1335 85.5585 50.8955C85.5045 50.7735 85.4445 50.6535 85.3765 50.5375C83.2825 46.9055 82.0785 43.6455 81.6505 40.4095C83.0545 39.3075 84.6065 38.2155 86.1985 37.2115C86.2365 37.1875 86.2725 37.1635 86.3085 37.1395C86.8585 36.7655 87.5225 36.3955 88.2245 36.0035C90.0205 35.0015 92.0505 33.8695 93.7545 31.8795C95.5365 29.9835 96.6845 26.4215 95.5665 23.5655Z" fill="black"/>
<path d="M93.5645 21.38C92.7265 19.238 90.7905 17.906 88.3885 17.816C88.3425 17.814 88.2945 17.814 88.2465 17.814C88.2265 17.814 88.2065 17.814 88.1845 17.814C86.1425 17.848 83.3245 17.878 80.4685 17.908C78.1025 17.934 75.7085 17.958 73.7045 17.986C72.0905 15.108 70.8345 11.99 69.8025 8.33C69.3325 6.394 66.8245 0 61.9325 0C60.7565 0 58.5365 0.414 56.8825 3.194C56.8305 3.28 56.7845 3.368 56.7385 3.458C54.7685 7.46 52.9125 11.778 50.7745 17.338C50.7225 17.346 50.6705 17.354 50.6185 17.362C46.1085 17.826 41.3385 18.382 36.9385 19.29C36.3405 19.394 35.0605 19.644 33.9365 20.644C33.8805 20.694 33.8265 20.746 33.7725 20.798C32.4725 22.1 31.8545 23.768 32.0345 25.492C32.4065 29.078 36.0405 31.452 38.2105 32.87C38.4665 33.038 38.6845 33.176 38.8325 33.286C38.8785 33.32 38.9265 33.354 38.9745 33.386C40.8085 34.608 42.6525 36.258 44.4485 37.908C43.8065 40.984 42.9745 44.438 42.1645 47.8C41.6725 49.84 41.1985 51.808 40.7965 53.576C39.9665 55.162 39.9345 57.062 40.7545 58.736C41.7245 60.718 43.7385 62 45.8825 62C46.9525 62 48.0165 61.686 48.9645 61.094C53.7205 58.222 57.9905 54.53 62.1045 50.894C66.8025 54.562 71.6965 58.236 77.1785 61.22C77.4065 61.344 77.6485 61.446 77.8985 61.52C78.4305 61.68 78.9825 61.762 79.5365 61.762C82.0625 61.762 84.2505 60.134 84.9785 57.71C84.9925 57.662 85.0065 57.614 85.0185 57.566C85.9625 53.906 84.7585 51.306 83.8785 49.406C83.7725 49.178 83.6645 48.946 83.5605 48.708C83.5065 48.586 83.4465 48.466 83.3785 48.35C81.2845 44.718 80.0805 41.458 79.6525 38.222C81.0565 37.12 82.6085 36.028 84.2005 35.024C84.2385 35 84.2745 34.976 84.3105 34.952C84.8605 34.578 85.5245 34.208 86.2265 33.816C88.0225 32.814 90.0525 31.682 91.7565 29.692C93.5345 27.796 94.6825 24.236 93.5645 21.38Z" fill="white"/>
<path d="M88.2479 21.3101C83.8979 21.3801 76.0499 21.4381 71.7639 21.5141C71.7159 21.5181 71.6819 21.5161 71.6399 21.5181C71.6339 21.5061 71.6299 21.5021 71.6239 21.4901C69.1639 17.5941 67.4939 13.5241 66.2379 9.05211C65.7099 7.42411 64.8539 5.03811 62.9159 3.75811C61.8059 3.19011 60.4859 3.76811 60.0419 4.90811C57.9999 8.99811 56.2299 13.1821 54.5719 17.4301C54.3079 18.1121 53.6859 19.7561 53.3599 20.5781C52.7019 20.6481 51.2719 20.7701 51.1619 20.7781C46.7719 21.2341 41.9479 21.8001 37.6399 22.7221C37.2179 22.7981 36.7699 22.8941 36.4259 23.1901C33.6579 25.9081 39.5879 29.0761 41.0199 30.1301C43.6259 31.8721 46.1799 34.3561 48.4299 36.4101C47.3979 41.8581 45.5419 49.0201 44.3619 54.3101L44.2599 54.7221L44.2339 54.8241C44.2379 54.8201 44.2319 54.8381 44.2259 54.8581C43.7619 55.5301 43.6679 56.4281 44.1599 57.1661C44.8839 58.2541 46.0899 58.2961 47.0179 57.7381L47.0319 57.7621C52.3919 54.5301 57.2519 50.0581 61.9659 45.9061C67.3479 50.1301 72.7999 54.4521 78.9659 57.7981C83.2219 58.4161 81.4899 52.0681 80.1959 50.0121C77.7919 45.7501 75.8859 41.1521 75.8899 36.4421C77.6779 34.6581 80.1039 33.1261 82.2379 31.7121C84.3959 30.2441 87.1479 29.2721 89.0299 27.0201C90.4099 25.5961 91.3639 21.4301 88.2479 21.3101ZM44.4099 54.6061C44.5679 54.4001 44.7779 54.2161 45.0059 54.1421L45.0099 54.1481C44.7759 54.2661 44.5779 54.4241 44.4099 54.6061ZM75.7019 31.1881C74.5039 32.1661 73.2879 32.8461 72.3459 34.2841C71.3199 35.8301 71.7499 37.9741 71.9539 39.4121C72.4979 43.4701 74.1779 47.7621 76.1379 51.2501C71.6939 48.3061 67.4259 44.9621 63.1779 41.5941C62.4159 40.9701 61.2879 40.9741 60.5279 41.6501C57.3059 44.4581 53.8679 47.6201 50.3219 50.4001C51.3899 47.2221 52.3839 44.0201 53.2279 40.7641C53.5679 38.9521 54.6279 36.7361 54.0839 34.6361C53.7259 33.5981 52.9839 32.8081 52.3299 32.2341C49.7279 30.1541 47.2539 28.5001 44.4839 26.9401C45.3479 26.9281 46.2159 26.9301 47.0779 26.8961L51.6199 26.6901C52.9839 26.5641 54.4039 26.6381 55.8459 26.1281C57.8079 25.5101 58.8499 23.2841 59.3379 21.5861C60.5139 18.2081 61.6199 14.7961 62.6039 11.3521C62.9459 12.4921 63.2999 13.7201 63.7639 14.8841C65.0199 18.2141 66.5619 21.3641 68.5359 24.3401C68.7499 24.6261 69.1419 25.0601 69.7339 25.3421C70.9319 25.8301 71.4959 25.6181 71.8139 25.6641L74.1679 25.6341C76.3379 25.6081 80.9139 25.5501 84.5379 25.5061C84.4759 25.5481 84.4179 25.5941 84.3559 25.6361C81.6359 27.2201 78.3039 29.1561 75.7019 31.1881Z" fill="black"/>
</g>
<defs>
<clipPath id="clip0_4735_9518">
<rect width="64" height="64" fill="white" transform="translate(0.0078125 52)"/>
</clipPath>
<clipPath id="clip1_4735_9518">
<rect width="64" height="64" fill="white" transform="translate(64.0078 52)"/>
</clipPath>
<clipPath id="clip2_4735_9518">
<rect width="64" height="64" fill="white" transform="translate(32.0078)"/>
</clipPath>
</defs>
</svg>
