<svg width="129" height="64" viewBox="0 0 129 64" fill="none" xmlns="http://www.w3.org/2000/svg">
<g clip-path="url(#clip0_4735_9519)">
<path opacity="0.3" d="M63.5704 23.5655C62.7324 21.4235 60.7964 20.0915 58.3944 20.0015C58.3464 19.9995 58.3004 19.9995 58.2524 19.9995C58.2324 19.9995 58.2124 19.9995 58.1904 19.9995C56.1484 20.0335 53.3304 20.0635 50.4744 20.0935C48.1084 20.1195 45.7144 20.1435 43.7104 20.1715C42.0964 17.2935 40.8404 14.1755 39.8084 10.5155C39.3364 8.57955 36.8304 2.18555 31.9384 2.18555C30.7624 2.18555 28.5424 2.59955 26.8884 5.37955C26.8364 5.46555 26.7904 5.55355 26.7444 5.64355C24.7744 9.64555 22.9184 13.9635 20.7804 19.5235C20.7244 19.5315 20.6724 19.5375 20.6224 19.5455C16.1124 20.0095 11.3424 20.5655 6.94243 21.4735C6.34443 21.5775 5.06443 21.8275 3.94043 22.8275C3.88443 22.8775 3.83043 22.9295 3.77643 22.9815C2.47643 24.2835 1.85843 25.9515 2.03843 27.6755C2.41043 31.2615 6.04443 33.6355 8.21443 35.0535C8.47043 35.2215 8.68843 35.3595 8.83643 35.4695C8.88243 35.5035 8.93043 35.5375 8.97843 35.5695C10.8124 36.7915 12.6564 38.4415 14.4524 40.0915C13.8084 43.1695 12.9764 46.6235 12.1664 49.9855C11.6744 52.0255 11.2004 53.9935 10.7984 55.7615C9.96843 57.3475 9.93643 59.2475 10.7564 60.9215C11.7284 62.9055 13.7404 64.1875 15.8844 64.1875C16.9544 64.1875 18.0184 63.8735 18.9664 63.2815C23.7224 60.4095 27.9924 56.7175 32.1064 53.0815C36.8044 56.7495 41.6984 60.4235 47.1804 63.4075C47.4084 63.5315 47.6504 63.6335 47.9004 63.7075C48.4324 63.8675 48.9844 63.9495 49.5384 63.9495C52.0644 63.9495 54.2524 62.3215 54.9804 59.8975C54.9944 59.8495 55.0084 59.8015 55.0204 59.7535C55.9644 56.0935 54.7604 53.4935 53.8804 51.5935C53.7744 51.3655 53.6664 51.1335 53.5624 50.8955C53.5084 50.7735 53.4484 50.6535 53.3804 50.5375C51.2864 46.9055 50.0824 43.6455 49.6544 40.4095C51.0584 39.3075 52.6104 38.2155 54.2024 37.2115C54.2404 37.1875 54.2764 37.1635 54.3124 37.1395C54.8624 36.7655 55.5264 36.3955 56.2284 36.0035C58.0244 35.0015 60.0544 33.8695 61.7584 31.8795C63.5404 29.9835 64.6884 26.4215 63.5704 23.5655Z" fill="black"/>
<path d="M61.5684 21.38C60.7304 19.238 58.7944 17.906 56.3924 17.816C56.3464 17.814 56.2984 17.814 56.2504 17.814C56.2304 17.814 56.2104 17.814 56.1884 17.814C54.1464 17.848 51.3284 17.878 48.4724 17.908C46.1064 17.934 43.7124 17.958 41.7084 17.986C40.0944 15.108 38.8384 11.99 37.8064 8.33C37.3364 6.394 34.8284 0 29.9364 0C28.7604 0 26.5404 0.414 24.8864 3.194C24.8344 3.28 24.7884 3.368 24.7424 3.458C22.7724 7.46 20.9164 11.778 18.7784 17.338C18.7264 17.346 18.6744 17.354 18.6224 17.362C14.1124 17.826 9.34243 18.382 4.94243 19.29C4.34443 19.394 3.06443 19.644 1.94043 20.644C1.88443 20.694 1.83043 20.746 1.77643 20.798C0.476432 22.1 -0.141568 23.768 0.0384321 25.492C0.410432 29.078 4.04443 31.452 6.21443 32.87C6.47043 33.038 6.68843 33.176 6.83643 33.286C6.88243 33.32 6.93043 33.354 6.97843 33.386C8.81243 34.608 10.6564 36.258 12.4524 37.908C11.8104 40.984 10.9784 44.438 10.1684 47.8C9.67643 49.84 9.20243 51.808 8.80043 53.576C7.97043 55.162 7.93843 57.062 8.75843 58.736C9.72843 60.718 11.7424 62 13.8864 62C14.9564 62 16.0204 61.686 16.9684 61.094C21.7244 58.222 25.9944 54.53 30.1084 50.894C34.8064 54.562 39.7004 58.236 45.1824 61.22C45.4104 61.344 45.6524 61.446 45.9024 61.52C46.4344 61.68 46.9864 61.762 47.5404 61.762C50.0664 61.762 52.2544 60.134 52.9824 57.71C52.9964 57.662 53.0104 57.614 53.0224 57.566C53.9664 53.906 52.7624 51.306 51.8824 49.406C51.7764 49.178 51.6684 48.946 51.5644 48.708C51.5104 48.586 51.4504 48.466 51.3824 48.35C49.2884 44.718 48.0844 41.458 47.6564 38.222C49.0604 37.12 50.6124 36.028 52.2044 35.024C52.2424 35 52.2784 34.976 52.3144 34.952C52.8644 34.578 53.5284 34.208 54.2304 33.816C56.0264 32.814 58.0564 31.682 59.7604 29.692C61.5384 27.796 62.6864 24.236 61.5684 21.38Z" fill="white"/>
<path d="M56.2519 21.3101C51.9019 21.3801 44.0538 21.4381 39.7678 21.5141C39.7198 21.5181 39.6858 21.5161 39.6438 21.5181C39.6378 21.5061 39.6339 21.5021 39.6278 21.4901C37.1679 17.5941 35.4979 13.5241 34.2418 9.05211C33.7139 7.42411 32.8579 5.03811 30.9199 3.75811C29.8099 3.19011 28.4899 3.76811 28.0459 4.90811C26.0039 8.99811 24.2338 13.1821 22.5758 17.4301C22.3118 18.1121 21.6898 19.7561 21.3638 20.5781C20.7058 20.6481 19.2758 20.7701 19.1658 20.7781C14.7759 21.2341 9.95185 21.8001 5.64385 22.7221C5.22185 22.7981 4.77385 22.8941 4.42985 23.1901C1.66185 25.9081 7.59185 29.0761 9.02385 30.1301C11.6298 31.8721 14.1839 34.3561 16.4339 36.4101C15.4019 41.8581 13.5459 49.0201 12.3659 54.3101L12.2639 54.7221L12.2379 54.8241C12.2418 54.8201 12.2359 54.8381 12.2299 54.8581C11.7659 55.5301 11.6719 56.4281 12.1639 57.1661C12.8879 58.2541 14.0939 58.2961 15.0219 57.7381L15.0359 57.7621C20.3959 54.5301 25.2558 50.0581 29.9699 45.9061C35.3519 50.1301 40.8038 54.4521 46.9698 57.7981C51.2258 58.4161 49.4938 52.0681 48.1998 50.0121C45.7958 45.7501 43.8898 41.1521 43.8938 36.4421C45.6818 34.6581 48.1078 33.1261 50.2418 31.7121C52.3998 30.2441 55.1518 29.2721 57.0338 27.0201C58.4138 25.5961 59.3679 21.4301 56.2519 21.3101ZM12.4139 54.6061C12.5719 54.4001 12.7819 54.2161 13.0099 54.1421L13.0139 54.1481C12.7799 54.2661 12.5819 54.4241 12.4139 54.6061ZM43.7058 31.1881C42.5079 32.1661 41.2919 32.8461 40.3498 34.2841C39.3238 35.8301 39.7538 37.9741 39.9578 39.4121C40.5018 43.4701 42.1819 47.7621 44.1418 51.2501C39.6978 48.3061 35.4299 44.9621 31.1819 41.5941C30.4199 40.9701 29.2919 40.9741 28.5319 41.6501C25.3099 44.4581 21.8718 47.6201 18.3258 50.4001C19.3938 47.2221 20.3878 44.0201 21.2318 40.7641C21.5718 38.9521 22.6319 36.7361 22.0879 34.6361C21.7299 33.5981 20.9879 32.8081 20.3339 32.2341C17.7319 30.1541 15.2579 28.5001 12.4879 26.9401C13.3519 26.9281 14.2199 26.9301 15.0819 26.8961L19.6238 26.6901C20.9879 26.5641 22.4079 26.6381 23.8498 26.1281C25.8118 25.5101 26.8538 23.2841 27.3419 21.5861C28.5179 18.2081 29.6239 14.7961 30.6079 11.3521C30.9499 12.4921 31.3039 13.7201 31.7679 14.8841C33.0239 18.2141 34.5658 21.3641 36.5398 24.3401C36.7538 24.6261 37.1459 25.0601 37.7379 25.3421C38.9359 25.8301 39.4998 25.6181 39.8178 25.6641L42.1718 25.6341C44.3419 25.6081 48.9178 25.5501 52.5418 25.5061C52.4798 25.5481 52.4218 25.5941 52.3598 25.6361C49.6398 27.2201 46.3078 29.1561 43.7058 31.1881Z" fill="black"/>
</g>
<g clip-path="url(#clip1_4735_9519)">
<path opacity="0.3" d="M127.57 23.5655C126.732 21.4235 124.796 20.0915 122.394 20.0015C122.346 19.9995 122.3 19.9995 122.252 19.9995C122.232 19.9995 122.212 19.9995 122.19 19.9995C120.148 20.0335 117.33 20.0635 114.474 20.0935C112.108 20.1195 109.714 20.1435 107.71 20.1715C106.096 17.2935 104.84 14.1755 103.808 10.5155C103.336 8.57955 100.83 2.18555 95.9384 2.18555C94.7624 2.18555 92.5424 2.59955 90.8884 5.37955C90.8364 5.46555 90.7904 5.55355 90.7444 5.64355C88.7744 9.64555 86.9184 13.9635 84.7804 19.5235C84.7244 19.5315 84.6724 19.5375 84.6224 19.5455C80.1124 20.0095 75.3424 20.5655 70.9424 21.4735C70.3444 21.5775 69.0644 21.8275 67.9404 22.8275C67.8844 22.8775 67.8304 22.9295 67.7764 22.9815C66.4764 24.2835 65.8584 25.9515 66.0384 27.6755C66.4104 31.2615 70.0444 33.6355 72.2144 35.0535C72.4704 35.2215 72.6884 35.3595 72.8364 35.4695C72.8824 35.5035 72.9304 35.5375 72.9784 35.5695C74.8124 36.7915 76.6564 38.4415 78.4524 40.0915C77.8084 43.1695 76.9764 46.6235 76.1664 49.9855C75.6744 52.0255 75.2004 53.9935 74.7984 55.7615C73.9684 57.3475 73.9364 59.2475 74.7564 60.9215C75.7284 62.9055 77.7404 64.1875 79.8844 64.1875C80.9544 64.1875 82.0184 63.8735 82.9664 63.2815C87.7224 60.4095 91.9924 56.7175 96.1064 53.0815C100.804 56.7495 105.698 60.4235 111.18 63.4075C111.408 63.5315 111.65 63.6335 111.9 63.7075C112.432 63.8675 112.984 63.9495 113.538 63.9495C116.064 63.9495 118.252 62.3215 118.98 59.8975C118.994 59.8495 119.008 59.8015 119.02 59.7535C119.964 56.0935 118.76 53.4935 117.88 51.5935C117.774 51.3655 117.666 51.1335 117.562 50.8955C117.508 50.7735 117.448 50.6535 117.38 50.5375C115.286 46.9055 114.082 43.6455 113.654 40.4095C115.058 39.3075 116.61 38.2155 118.202 37.2115C118.24 37.1875 118.276 37.1635 118.312 37.1395C118.862 36.7655 119.526 36.3955 120.228 36.0035C122.024 35.0015 124.054 33.8695 125.758 31.8795C127.54 29.9835 128.688 26.4215 127.57 23.5655Z" fill="black"/>
<path d="M125.568 21.38C124.73 19.238 122.794 17.906 120.392 17.816C120.346 17.814 120.298 17.814 120.25 17.814C120.23 17.814 120.21 17.814 120.188 17.814C118.146 17.848 115.328 17.878 112.472 17.908C110.106 17.934 107.712 17.958 105.708 17.986C104.094 15.108 102.838 11.99 101.806 8.33C101.336 6.394 98.8284 0 93.9364 0C92.7604 0 90.5404 0.414 88.8864 3.194C88.8344 3.28 88.7884 3.368 88.7424 3.458C86.7724 7.46 84.9164 11.778 82.7784 17.338C82.7264 17.346 82.6744 17.354 82.6224 17.362C78.1124 17.826 73.3424 18.382 68.9424 19.29C68.3444 19.394 67.0644 19.644 65.9404 20.644C65.8844 20.694 65.8304 20.746 65.7764 20.798C64.4764 22.1 63.8584 23.768 64.0384 25.492C64.4104 29.078 68.0444 31.452 70.2144 32.87C70.4704 33.038 70.6884 33.176 70.8364 33.286C70.8824 33.32 70.9304 33.354 70.9784 33.386C72.8124 34.608 74.6564 36.258 76.4524 37.908C75.8104 40.984 74.9784 44.438 74.1684 47.8C73.6764 49.84 73.2024 51.808 72.8004 53.576C71.9704 55.162 71.9384 57.062 72.7584 58.736C73.7284 60.718 75.7424 62 77.8864 62C78.9564 62 80.0204 61.686 80.9684 61.094C85.7244 58.222 89.9944 54.53 94.1084 50.894C98.8064 54.562 103.7 58.236 109.182 61.22C109.41 61.344 109.652 61.446 109.902 61.52C110.434 61.68 110.986 61.762 111.54 61.762C114.066 61.762 116.254 60.134 116.982 57.71C116.996 57.662 117.01 57.614 117.022 57.566C117.966 53.906 116.762 51.306 115.882 49.406C115.776 49.178 115.668 48.946 115.564 48.708C115.51 48.586 115.45 48.466 115.382 48.35C113.288 44.718 112.084 41.458 111.656 38.222C113.06 37.12 114.612 36.028 116.204 35.024C116.242 35 116.278 34.976 116.314 34.952C116.864 34.578 117.528 34.208 118.23 33.816C120.026 32.814 122.056 31.682 123.76 29.692C125.538 27.796 126.686 24.236 125.568 21.38Z" fill="white"/>
<path d="M120.252 21.3101C115.902 21.3801 108.054 21.4381 103.768 21.5141C103.72 21.5181 103.686 21.5161 103.644 21.5181C103.638 21.5061 103.634 21.5021 103.628 21.4901C101.168 17.5941 99.4979 13.5241 98.2418 9.05211C97.7139 7.42411 96.8579 5.03811 94.9199 3.75811C93.8099 3.19011 92.4899 3.76811 92.0459 4.90811C90.0039 8.99811 88.2338 13.1821 86.5758 17.4301C86.3118 18.1121 85.6898 19.7561 85.3638 20.5781C84.7058 20.6481 83.2758 20.7701 83.1658 20.7781C78.7759 21.2341 73.9518 21.8001 69.6438 22.7221C69.2218 22.7981 68.7739 22.8941 68.4299 23.1901C65.6619 25.9081 71.5918 29.0761 73.0238 30.1301C75.6298 31.8721 78.1839 34.3561 80.4339 36.4101C79.4019 41.8581 77.5459 49.0201 76.3659 54.3101L76.2639 54.7221L76.2379 54.8241C76.2418 54.8201 76.2359 54.8381 76.2299 54.8581C75.7659 55.5301 75.6719 56.4281 76.1639 57.1661C76.8879 58.2541 78.0939 58.2961 79.0219 57.7381L79.0359 57.7621C84.3959 54.5301 89.2558 50.0581 93.9699 45.9061C99.3519 50.1301 104.804 54.4521 110.97 57.7981C115.226 58.4161 113.494 52.0681 112.2 50.0121C109.796 45.7501 107.89 41.1521 107.894 36.4421C109.682 34.6581 112.108 33.1261 114.242 31.7121C116.4 30.2441 119.152 29.2721 121.034 27.0201C122.414 25.5961 123.368 21.4301 120.252 21.3101ZM76.4139 54.6061C76.5719 54.4001 76.7819 54.2161 77.0099 54.1421L77.0139 54.1481C76.7799 54.2661 76.5819 54.4241 76.4139 54.6061ZM107.706 31.1881C106.508 32.1661 105.292 32.8461 104.35 34.2841C103.324 35.8301 103.754 37.9741 103.958 39.4121C104.502 43.4701 106.182 47.7621 108.142 51.2501C103.698 48.3061 99.4299 44.9621 95.1819 41.5941C94.4199 40.9701 93.2919 40.9741 92.5319 41.6501C89.3099 44.4581 85.8718 47.6201 82.3258 50.4001C83.3938 47.2221 84.3878 44.0201 85.2318 40.7641C85.5718 38.9521 86.6319 36.7361 86.0879 34.6361C85.7299 33.5981 84.9879 32.8081 84.3339 32.2341C81.7319 30.1541 79.2579 28.5001 76.4879 26.9401C77.3519 26.9281 78.2199 26.9301 79.0819 26.8961L83.6238 26.6901C84.9879 26.5641 86.4079 26.6381 87.8498 26.1281C89.8118 25.5101 90.8538 23.2841 91.3419 21.5861C92.5179 18.2081 93.6239 14.7961 94.6079 11.3521C94.9499 12.4921 95.3039 13.7201 95.7679 14.8841C97.0239 18.2141 98.5658 21.3641 100.54 24.3401C100.754 24.6261 101.146 25.0601 101.738 25.3421C102.936 25.8301 103.5 25.6181 103.818 25.6641L106.172 25.6341C108.342 25.6081 112.918 25.5501 116.542 25.5061C116.48 25.5481 116.422 25.5941 116.36 25.6361C113.64 27.2201 110.308 29.1561 107.706 31.1881Z" fill="black"/>
</g>
<defs>
<clipPath id="clip0_4735_9519">
<rect width="64" height="64" fill="white" transform="translate(0.0117188)"/>
</clipPath>
<clipPath id="clip1_4735_9519">
<rect width="64" height="64" fill="white" transform="translate(64.0117)"/>
</clipPath>
</defs>
</svg>
