<svg width="24" height="24" viewBox="0 0 24 24" fill="none" xmlns="http://www.w3.org/2000/svg">
<path d="M12 2C10.498 2 9.07687 2.34345 7.79688 2.93945C7.79887 2.96645 7.8125 2.98862 7.8125 3.01562C7.8115 3.02262 7.85133 4.14206 8.61133 5.91406C9.72333 5.38406 11.8245 4.59977 14.8945 4.38477C16.3595 4.28177 17.5681 4.35133 18.5781 4.48633C16.8171 2.94333 14.519 2 12 2ZM5.93945 4.06445C4.90445 4.85745 4.03014 5.84461 3.36914 6.97461C3.46814 7.70961 3.88119 9.61059 5.61719 12.1836C7.15819 14.4686 8.66677 15.7128 9.50977 16.2988C10.5098 14.5088 10.8384 13.1447 10.9434 12.4707C10.2334 11.9137 8.94683 10.7118 7.67383 8.50781C6.56383 6.58181 6.11945 5.02645 5.93945 4.06445ZM16.1367 6.33398C15.7878 6.33787 15.4191 6.35191 15.0312 6.37891C12.3092 6.56991 10.4644 7.25727 9.52539 7.69727C10.5744 9.45627 11.5891 10.4236 12.1211 10.8516C12.9581 10.5146 14.6425 10 17.1875 10C19.4145 10 20.9862 10.3967 21.9082 10.7207C21.7382 9.3937 21.3089 8.14911 20.6699 7.03711C20.0714 6.79123 18.5791 6.30682 16.1367 6.33398ZM2.19141 10.0605C2.06741 10.6885 2 11.336 2 12C2 13.825 2.50528 15.527 3.36328 17H7.17773C6.23773 16.179 5.09503 14.9887 3.95703 13.3027C3.14103 12.0927 2.57941 10.9975 2.19141 10.0605ZM16.9707 12.0078C14.9187 12.0358 13.5706 12.4317 12.9336 12.6777C12.8156 13.5037 12.4592 15.035 11.4062 17H15.5508C16.5818 14.747 16.8897 12.9738 16.9707 12.0078ZM18.9668 12.1074C18.8848 13.1354 18.6005 14.859 17.7305 17H20.6484C21.3604 15.774 21.8201 14.3834 21.9531 12.8984C21.9271 12.8864 21.899 12.8802 21.873 12.8652C21.867 12.8612 20.8798 12.3364 18.9668 12.1074ZM0 19C0 19.9238 0.523424 20.7184 1.2168 21.2227C1.91017 21.7269 2.7941 22 3.75 22C4.7059 22 5.58983 21.7269 6.2832 21.2227C6.36979 21.1597 6.41939 21.0561 6.5 20.9844C6.58061 21.0561 6.63021 21.1597 6.7168 21.2227C7.41017 21.7269 8.2941 22 9.25 22C10.2059 22 11.0898 21.7269 11.7832 21.2227C11.8698 21.1597 11.9194 21.0561 12 20.9844C12.0806 21.0561 12.1302 21.1597 12.2168 21.2227C12.9102 21.7269 13.7941 22 14.75 22C15.7059 22 16.5898 21.7269 17.2832 21.2227C17.3698 21.1597 17.4194 21.0561 17.5 20.9844C17.5806 21.0561 17.6302 21.1597 17.7168 21.2227C18.4102 21.7269 19.2941 22 20.25 22C21.2059 22 22.0898 21.7269 22.7832 21.2227C23.4766 20.7184 24 19.9238 24 19H22C22 19.1812 21.9093 19.3859 21.6074 19.6055C21.3055 19.825 20.8131 20 20.25 20C19.6869 20 19.1945 19.825 18.8926 19.6055C18.5907 19.3859 18.5 19.1812 18.5 19H16.5C16.5 19.1812 16.4093 19.3859 16.1074 19.6055C15.8055 19.825 15.3131 20 14.75 20C14.1869 20 13.6945 19.825 13.3926 19.6055C13.0907 19.3859 13 19.1812 13 19H11C11 19.1812 10.9093 19.3859 10.6074 19.6055C10.3055 19.825 9.8131 20 9.25 20C8.6869 20 8.19446 19.825 7.89258 19.6055C7.5907 19.3859 7.5 19.1812 7.5 19H5.5C5.5 19.1812 5.4093 19.3859 5.10742 19.6055C4.80554 19.825 4.3131 20 3.75 20C3.1869 20 2.69446 19.825 2.39258 19.6055C2.0907 19.3859 2 19.1812 2 19H0Z" fill="black"/>
</svg>
