<svg preserveAspectRatio="none" viewBox="0 0 23 1365" fill="none" xmlns="http://www.w3.org/2000/svg">
<path d="M3.64263 1344.5C11.3474 1388.54 20.3886 1495.1 22.7568 1536L22.7568 -180.723C22.7568 -182.535 21.2876 -184.004 19.4754 -184.004C17.8986 -184.004 16.5517 -182.924 16.2645 -181.373C7.12996 -132.066 -7.00477 -26.308 6.02095 23.0664C19.2833 73.3378 18.7044 199.216 16.7571 255.871C9.5997 306.94 -2.56796 419.373 6.02097 460.547C14.4597 501.002 16.6801 622.569 16.7552 664.271C16.7578 665.742 16.655 667.105 16.4422 668.561C7.99581 726.348 -5.45563 848.541 6.02099 892.043C17.6413 936.091 18.0203 1090.74 16.7572 1162.55C9.96813 1209.43 -4.06217 1300.45 3.64263 1344.5Z" fill="#FEDF46"/>
</svg>
